<svg width="239" height="40" viewBox="0 0 239 40" fill="none" xmlns="http://www.w3.org/2000/svg">
<path d="M87.7875 12.5875H91.5375V27.75H87.7875V12.5875ZM93.025 22.025C93.025 18.275 95.325 16.0375 98.875 16.0375C102.425 16.0375 104.725 18.275 104.725 22.025C104.725 25.775 102.475 28.025 98.875 28.025C95.275 28.025 93.025 25.8375 93.025 22.025ZM100.963 22.025C100.963 19.9625 100.15 18.75 98.875 18.75C97.6 18.75 96.8 20 96.8 22.025C96.8 24.05 97.5875 25.275 98.875 25.275C100.163 25.275 100.963 24.125 100.963 22.0375V22.025ZM106.138 28.4875H109.738C109.909 28.8681 110.199 29.1832 110.563 29.386C110.928 29.5886 111.349 29.6681 111.763 29.6125C113.188 29.6125 113.938 28.8375 113.938 27.7125V25.6125H113.863C113.564 26.2561 113.079 26.7954 112.471 27.1609C111.862 27.5262 111.159 27.701 110.45 27.6625C107.713 27.6625 105.9 25.575 105.9 21.9875C105.9 18.4 107.625 16.1375 110.5 16.1375C111.231 16.1089 111.953 16.3042 112.569 16.6974C113.186 17.0906 113.668 17.6629 113.95 18.3375V16.25H117.7V27.625C117.7 30.3625 115.288 32.0625 111.725 32.0625C108.413 32.0625 106.35 30.575 106.138 28.5V28.4875ZM113.95 22.0125C113.95 20.1875 113.113 19.0375 111.788 19.0375C110.463 19.0375 109.65 20.175 109.65 22.0125C109.65 23.85 110.45 24.8875 111.788 24.8875C113.125 24.8875 113.95 23.875 113.95 22.025V22.0125ZM119.113 22.0125C119.113 18.2625 121.413 16.025 124.963 16.025C128.513 16.025 130.825 18.2625 130.825 22.0125C130.825 25.7625 128.575 28.0125 124.963 28.0125C121.35 28.0125 119.113 25.8375 119.113 22.025V22.0125ZM127.05 22.0125C127.05 19.95 126.238 18.7375 124.963 18.7375C123.688 18.7375 122.95 20 122.95 22.0375C122.95 24.075 123.738 25.2875 125.013 25.2875C126.288 25.2875 127.05 24.125 127.05 22.0375V22.0125ZM132.25 13.525C132.24 13.1464 132.343 12.7734 132.545 12.4532C132.748 12.1331 133.041 11.8803 133.387 11.7269C133.733 11.5734 134.117 11.5262 134.49 11.5913C134.864 11.6564 135.209 11.8308 135.483 12.0923C135.757 12.3539 135.947 12.691 136.029 13.0607C136.111 13.4305 136.082 13.8162 135.944 14.1692C135.807 14.5221 135.568 14.8264 135.257 15.0432C134.947 15.2601 134.579 15.38 134.2 15.3875C133.949 15.4047 133.697 15.3699 133.46 15.2851C133.223 15.2004 133.007 15.0676 132.823 14.895C132.64 14.7225 132.495 14.5139 132.396 14.2824C132.297 14.051 132.248 13.8016 132.25 13.55V13.525ZM132.25 16.275H136V27.75H132.25V16.275ZM149.613 22.0125C149.613 25.7625 147.95 27.9 145.1 27.9C144.369 27.9469 143.642 27.7682 143.016 27.3882C142.39 27.0081 141.896 26.445 141.6 25.775H141.525V31.425H137.775V16.25H141.525V18.3H141.6C141.882 17.6189 142.367 17.0411 142.988 16.6452C143.61 16.2494 144.339 16.0546 145.075 16.0875C147.95 16.1375 149.663 18.2875 149.663 22.0375L149.613 22.0125ZM145.863 22.0125C145.863 20.1875 145.025 19.025 143.713 19.025C142.4 19.025 141.563 20.2 141.55 22.0125C141.538 23.825 142.4 24.9875 143.713 24.9875C145.025 24.9875 145.863 23.85 145.863 22.0375V22.0125ZM156.05 16.0125C159.163 16.0125 161.05 17.4875 161.138 19.85H157.725C157.725 19.0375 157.05 18.525 156.013 18.525C154.975 18.525 154.513 18.925 154.513 19.5125C154.513 20.1 154.925 20.2875 155.763 20.4625L158.163 20.95C160.45 21.4375 161.425 22.3625 161.425 24.1C161.425 26.475 159.263 28 156.075 28C152.888 28 150.8 26.475 150.638 24.1375H154.25C154.363 24.9875 155.038 25.4875 156.138 25.4875C157.238 25.4875 157.738 25.125 157.738 24.525C157.738 23.925 157.388 23.8 156.488 23.6125L154.325 23.15C152.088 22.6875 150.913 21.5 150.913 19.75C150.938 17.5 152.95 16.0375 156.05 16.0375V16.0125ZM173.938 27.725H170.325V25.5875H170.25C170.051 26.3051 169.614 26.9332 169.009 27.3676C168.404 27.8019 167.669 28.0162 166.925 27.975C166.355 28.0074 165.785 27.9171 165.253 27.7102C164.722 27.5034 164.24 27.1849 163.842 26.776C163.444 26.3672 163.138 25.8776 162.946 25.3405C162.753 24.8034 162.678 24.2311 162.725 23.6625V16.25H166.475V22.8C166.475 24.1625 167.175 24.8875 168.338 24.8875C168.61 24.888 168.88 24.8304 169.129 24.7182C169.376 24.6061 169.599 24.4421 169.779 24.2374C169.958 24.0325 170.093 23.7916 170.171 23.5309C170.25 23.27 170.274 22.9952 170.238 22.725V16.25H173.988L173.938 27.725ZM175.75 16.25H179.375V18.4625H179.45C179.649 17.7544 180.078 17.1321 180.668 16.6934C181.258 16.2546 181.978 16.0239 182.713 16.0375C183.461 15.9776 184.204 16.2015 184.795 16.6647C185.385 17.128 185.78 17.7965 185.9 18.5375H185.975C186.201 17.7886 186.671 17.1366 187.31 16.684C187.948 16.2314 188.719 16.0039 189.5 16.0375C190.01 16.0204 190.518 16.1107 190.99 16.3027C191.464 16.4946 191.89 16.784 192.244 17.1517C192.598 17.5196 192.87 17.9577 193.044 18.4376C193.216 18.9175 193.287 19.4286 193.25 19.9375V27.75H189.5V20.9375C189.5 19.6875 188.938 19.1125 187.888 19.1125C187.654 19.1105 187.421 19.1587 187.208 19.254C186.994 19.3492 186.803 19.4892 186.648 19.6646C186.493 19.84 186.376 20.0465 186.307 20.2704C186.239 20.4944 186.22 20.7304 186.25 20.9625V27.75H182.688V20.8875C182.688 19.7375 182.125 19.1125 181.1 19.1125C180.864 19.1126 180.629 19.1629 180.414 19.26C180.198 19.3572 180.004 19.4991 179.848 19.6762C179.69 19.8534 179.573 20.0619 179.501 20.288C179.431 20.514 179.409 20.7524 179.438 20.9875V27.75H175.688L175.75 16.25Z" fill="#7C7C7C"/>
<path d="M77.3 13.275C76.6639 11.8204 75.822 10.4649 74.8 9.24999C73.2894 7.40041 71.4041 5.89172 69.2684 4.82324C67.1326 3.75476 64.7947 3.1507 62.4087 3.05081C60.0227 2.95093 57.6426 3.35747 55.425 4.24372C53.2075 5.12996 51.2027 6.4758 49.5427 8.19265C47.8828 9.90949 46.6052 11.9584 45.7941 14.2046C44.9831 16.4507 44.6569 18.8432 44.8371 21.2245C45.0173 23.6059 45.6997 25.922 46.8395 28.0205C47.9793 30.1191 49.5506 31.9525 51.45 33.4C52.6688 34.3474 54.0154 35.1175 55.45 35.6875C57.4612 36.5117 59.6139 36.9362 61.7875 36.9375C66.2742 36.9276 70.574 35.1391 73.7444 31.9641C76.9146 28.7891 78.6967 24.4867 78.7 20C78.7032 17.6856 78.2266 15.3957 77.3 13.275ZM61.775 6.48747C63.727 6.48727 65.6554 6.9139 67.425 7.73747C66.9935 7.92394 66.5397 8.05417 66.075 8.12499C64.5457 8.34635 63.1291 9.05632 62.0365 10.1489C60.9439 11.2416 60.2339 12.6582 60.0125 14.1875C59.9154 15.0451 59.5252 15.843 58.9081 16.4465C58.291 17.05 57.4846 17.422 56.625 17.5C55.0957 17.7214 53.6791 18.4314 52.5865 19.524C51.4939 20.6166 50.7839 22.0332 50.5625 23.5625C50.4876 24.378 50.1396 25.1444 49.575 25.7375C48.6008 23.6791 48.1632 21.4076 48.3028 19.1346C48.4425 16.8616 49.1549 14.6609 50.3737 12.7371C51.5925 10.8135 53.2782 9.22937 55.2739 8.13229C57.2695 7.0352 59.5102 6.46079 61.7875 6.46247L61.775 6.48747ZM51.4375 28.75C51.5875 28.6125 51.7375 28.4875 51.8875 28.3375C52.9996 27.2594 53.7134 25.8361 53.9125 24.3C53.9932 23.4365 54.3787 22.63 55 22.025C55.5979 21.4027 56.4025 21.0204 57.2625 20.95C58.7917 20.7286 60.2084 20.0186 61.301 18.926C62.3936 17.8334 63.1036 16.4167 63.325 14.8875C63.3791 13.9844 63.7666 13.1335 64.4125 12.5C65.0251 11.8898 65.8374 11.5214 66.7 11.4625C68.1049 11.2692 69.4151 10.6446 70.45 9.67499C71.6284 10.6526 72.6266 11.8286 73.4 13.15C73.3525 13.2141 73.298 13.2729 73.2375 13.325C72.6409 13.9527 71.8372 14.3435 70.975 14.425C69.4441 14.6425 68.0254 15.3512 66.932 16.4445C65.8387 17.5379 65.13 18.9566 64.9125 20.4875C64.8244 21.348 64.4415 22.1516 63.8287 22.7621C63.2159 23.3727 62.4109 23.7526 61.55 23.8375C60.0162 24.0571 58.5944 24.7657 57.4954 25.8579C56.3965 26.9501 55.6791 28.3676 55.45 29.9C55.3827 30.5109 55.1729 31.0975 54.8375 31.6125C53.555 30.851 52.4064 29.884 51.4375 28.75ZM61.775 33.575C60.5066 33.5764 59.2442 33.3996 58.025 33.05C58.4421 32.2725 58.7132 31.4251 58.825 30.55C58.9126 29.6914 59.2937 28.8892 59.904 28.279C60.5142 27.6687 61.3164 27.2876 62.175 27.2C63.7065 26.9811 65.126 26.2722 66.2211 25.1794C67.3161 24.0866 68.028 22.6685 68.25 21.1375C68.3376 20.2789 68.7187 19.4767 69.329 18.8665C69.9392 18.2562 70.7414 17.8751 71.6 17.7875C72.7525 17.6376 73.851 17.2085 74.8 16.5375C75.327 18.5349 75.3894 20.6264 74.9825 22.6516C74.5756 24.6769 73.7101 26.5821 72.4526 28.221C71.1951 29.8597 69.579 31.1889 67.728 32.1061C65.8771 33.0234 63.8407 33.5045 61.775 33.5125V33.575Z" fill="#7C7C7C"/>
</svg>
