<svg width="239" height="40" viewBox="0 0 239 40" fill="none" xmlns="http://www.w3.org/2000/svg">
<path d="M88.1829 12.8686H91.8514V27.7257H88.1829V12.8686ZM93.3143 22.1371C93.3143 18.4571 95.6 16.2514 99.0286 16.2514C102.457 16.2514 104.743 18.4571 104.743 22.1371C104.743 25.8171 102.537 28.0457 99.0286 28.0457C95.52 28.0457 93.3143 25.8971 93.3143 22.1371ZM101.109 22.1371C101.109 20.1143 100.32 18.9257 99.0629 18.9257C97.8057 18.9257 97.0286 20.0686 97.0286 22.1371C97.0286 24.2057 97.8057 25.3371 99.0629 25.3371C100.32 25.3371 101.131 24.2057 101.131 22.1486L101.109 22.1371ZM106.206 28.4914H109.749C109.91 28.8728 110.192 29.1911 110.551 29.3974C110.91 29.6038 111.326 29.687 111.737 29.6343C113.143 29.6343 113.874 28.88 113.874 27.76V25.7029H113.886C113.583 26.3434 113.093 26.8773 112.481 27.2343C111.869 27.5913 111.164 27.7546 110.457 27.7029C107.771 27.7029 105.989 25.6571 105.989 22.1371C105.989 18.6171 107.691 16.4229 110.56 16.4229C111.285 16.3841 112.004 16.571 112.618 16.9578C113.232 17.3447 113.711 17.9125 113.989 18.5829H113.886V16.5143H117.52V27.6457C117.52 30.3314 115.143 32.0114 111.646 32.0114C108.469 32 106.434 30.5486 106.229 28.5029L106.206 28.4914ZM113.886 22.1371C113.886 20.3429 113.063 19.2114 111.76 19.2114C110.457 19.2114 109.657 20.3543 109.657 22.1371C109.657 23.92 110.446 24.9714 111.76 24.9714C113.074 24.9714 113.886 24 113.886 22.1371ZM118.971 22.1371C118.971 18.4571 121.257 16.2514 124.686 16.2514C128.114 16.2514 130.4 18.4571 130.4 22.1371C130.4 25.8171 128.183 28.0457 124.686 28.0457C121.189 28.0457 118.994 25.8971 118.994 22.1371H118.971ZM126.766 22.1371C126.766 20.1143 125.966 18.9257 124.72 18.9257C123.474 18.9257 122.686 20.0686 122.686 22.1371C122.686 24.2057 123.463 25.3371 124.72 25.3371C125.977 25.3371 126.789 24.2057 126.789 22.1486L126.766 22.1371ZM131.886 13.8057C131.87 13.432 131.966 13.0621 132.162 12.7435C132.358 12.4249 132.645 12.1723 132.986 12.0182C133.326 11.8639 133.705 11.8152 134.074 11.8783C134.443 11.9413 134.784 12.1131 135.054 12.3718C135.325 12.6305 135.511 12.964 135.59 13.3296C135.669 13.6952 135.637 14.0761 135.498 14.4232C135.359 14.7704 135.119 15.068 134.809 15.2777C134.499 15.4874 134.134 15.5997 133.76 15.6C133.521 15.6061 133.283 15.5646 133.06 15.4781C132.837 15.3914 132.634 15.2614 132.462 15.0955C132.289 14.9297 132.152 14.7313 132.057 14.5118C131.962 14.2923 131.912 14.0562 131.909 13.8171L131.886 13.8057ZM131.886 16.5029H135.6V27.7714H131.943L131.886 16.5029ZM148.96 22.1371C148.96 25.8057 147.314 27.9314 144.514 27.9314C143.797 27.9757 143.084 27.7987 142.471 27.4248C141.858 27.0507 141.375 26.4976 141.086 25.84H141.017V31.3943H137.349V16.5371H140.994V18.5486H141.063C141.342 17.8781 141.821 17.3097 142.434 16.9211C143.048 16.5326 143.766 16.3426 144.491 16.3771C147.371 16.3543 149.029 18.4686 149.029 22.1486L148.96 22.1371ZM145.223 22.1371C145.223 20.3543 144.389 19.2 143.097 19.2C141.806 19.2 140.994 20.3429 140.983 22.1371C140.971 23.9314 141.806 25.0629 143.097 25.0629C144.389 25.0629 145.291 24 145.291 22.1486L145.223 22.1371ZM155.223 16.24C158.297 16.24 160.206 17.6914 160.229 20.0229H156.88C156.88 19.2114 156.206 18.7086 155.2 18.7086C154.194 18.7086 153.714 19.0971 153.714 19.68C153.714 20.2629 154.137 20.4457 154.983 20.6171L157.337 21.0971C159.623 21.5771 160.537 22.4914 160.537 24.1943C160.537 26.48 158.423 28.0343 155.28 28.0343C152.137 28.0343 150.091 26.5257 149.943 24.2286H153.497C153.6 25.0629 154.263 25.5543 155.337 25.5543C156.411 25.5543 156.914 25.2114 156.914 24.6057C156.914 24 156.571 23.8971 155.691 23.7143L153.566 23.2686C151.36 22.8 150.206 21.6457 150.206 19.92C150.274 17.68 152.194 16.2514 155.291 16.2514L155.223 16.24ZM172.823 27.76H169.269V25.6457H169.2C169.001 26.351 168.568 26.9673 167.971 27.3931C167.375 27.8191 166.651 28.029 165.92 27.9886C165.368 28.0065 164.817 27.9075 164.306 27.6979C163.795 27.4885 163.334 27.1731 162.953 26.7728C162.571 26.3723 162.28 25.8959 162.096 25.3747C161.912 24.8536 161.84 24.2993 161.886 23.7486V16.5143H165.554V22.96C165.554 24.2857 166.251 25.0057 167.394 25.0057C167.663 25.0037 167.927 24.9441 168.17 24.8312C168.414 24.7182 168.63 24.5543 168.803 24.3506C168.978 24.147 169.107 23.9082 169.182 23.6506C169.255 23.3929 169.273 23.1224 169.234 22.8571V16.5143H172.891L172.823 27.76ZM174.594 16.5029H178.16V18.6743H178.24C178.437 17.9786 178.859 17.368 179.44 16.9378C180.022 16.5078 180.729 16.2824 181.451 16.2971C182.177 16.2341 182.901 16.4439 183.479 16.8856C184.058 17.3273 184.451 17.9693 184.583 18.6857H184.743C184.971 17.9654 185.431 17.3407 186.051 16.9088C186.671 16.4768 187.417 16.2618 188.171 16.2971C188.673 16.2781 189.174 16.3651 189.639 16.5527C190.105 16.7401 190.526 17.0239 190.874 17.3854C191.223 17.7467 191.49 18.1777 191.661 18.6499C191.832 19.1222 191.901 19.625 191.863 20.1257V27.7714H188.171V21.0629C188.171 19.92 187.634 19.28 186.594 19.28C186.363 19.2762 186.135 19.3224 185.923 19.4152C185.712 19.5081 185.525 19.6456 185.371 19.8182C185.218 19.9909 185.104 20.1944 185.037 20.4152C184.97 20.636 184.952 20.8686 184.983 21.0971V27.7714H181.486V21.0286C181.486 19.8857 180.926 19.28 179.92 19.28C179.687 19.2782 179.456 19.3262 179.243 19.4208C179.03 19.5155 178.84 19.6546 178.685 19.8289C178.53 20.0032 178.415 20.2086 178.346 20.4312C178.277 20.6539 178.256 20.8888 178.286 21.12V27.7714H174.617L174.594 16.5029Z" fill="#7C7C7C"/>
<path d="M80.9257 13.8399C80.9258 11.5653 80.239 9.34367 78.9551 7.46603C77.6712 5.58838 75.8501 4.14227 73.7304 3.31713C71.6107 2.49197 69.2912 2.32626 67.0758 2.84167C64.8602 3.35709 62.8521 4.52962 61.3143 6.20566H47.0515V36.3085H77.1657V22.2399C78.3477 21.1828 79.2935 19.8883 79.9414 18.4409C80.5893 16.9934 80.9247 15.4258 80.9257 13.8399ZM75.1314 13.8399C75.1337 14.9299 74.8126 15.9961 74.2087 16.9035C73.6047 17.8108 72.7453 18.5187 71.7389 18.9373C70.7325 19.3561 69.6246 19.4668 68.5552 19.2555C67.4859 19.0443 66.5033 18.5205 65.7318 17.7506C64.9602 16.9806 64.4345 15.9991 64.221 14.9302C64.0075 13.8614 64.116 12.7532 64.5326 11.746C64.9491 10.7388 65.6552 9.87777 66.5613 9.27197C67.4674 8.66618 68.5329 8.34282 69.6229 8.34281C71.0818 8.34281 72.4813 8.92161 73.5139 9.95219C74.5467 10.9828 75.1285 12.381 75.1314 13.8399ZM71.3714 30.5142H52.8457V11.9999H58.4914C58.3824 12.6074 58.325 13.2229 58.32 13.8399C58.3231 16.8367 59.5149 19.7099 61.6339 21.829C63.7529 23.948 66.6261 25.1398 69.6229 25.1428C70.2088 25.1397 70.7935 25.09 71.3714 24.9942V30.5142Z" fill="#7C7C7C"/>
</svg>
