<svg width="240" height="40" viewBox="0 0 240 40" fill="none" xmlns="http://www.w3.org/2000/svg">
<path d="M59.3529 7.82349V2.82349H43.5882V37.1764H59.3529V32.1764C56.1235 32.1764 53.0263 30.8935 50.7428 28.61C48.4593 26.3264 47.1764 23.2294 47.1764 20C47.1764 16.7706 48.4593 13.6734 50.7428 11.3899C53.0263 9.10637 56.1235 7.82349 59.3529 7.82349Z" fill="#7C7C7C"/>
<path d="M59.3529 7.82349V32.1764C62.5823 32.1764 65.6795 30.8935 67.963 28.61C70.2466 26.3264 71.5294 23.2294 71.5294 20C71.5294 16.7706 70.2466 13.6734 67.963 11.3899C65.6795 9.10637 62.5823 7.82349 59.3529 7.82349Z" fill="#7C7C7C"/>
<path d="M80.3765 10.8823H83.9059V27.8823H80.3765V10.8823Z" fill="#7C7C7C"/>
<path d="M85.8823 22.0588C85.8823 20.8357 86.2455 19.6402 86.9257 18.6237C87.606 17.6073 88.5727 16.8156 89.7034 16.3491C90.8341 15.8828 92.0777 15.7626 93.2768 16.0037C94.4759 16.2449 95.5763 16.8367 96.4387 17.704C97.301 18.5714 97.8866 19.6751 98.1209 20.8756C98.3552 22.0761 98.2279 23.319 97.7549 24.447C97.282 25.5749 96.4849 26.5371 95.4646 27.2115C94.4442 27.886 93.2466 28.2422 92.0235 28.2353C91.2123 28.2416 90.408 28.086 89.6577 27.7773C88.9075 27.4687 88.2263 27.0134 87.6543 26.4382C87.0823 25.8629 86.631 25.1791 86.3267 24.4271C86.0224 23.6751 85.8714 22.87 85.8823 22.0588ZM94.7294 22.0588C94.7155 21.5315 94.5464 21.02 94.2434 20.5883C93.9403 20.1565 93.5168 19.8237 93.0255 19.6315C92.5343 19.4393 91.9974 19.3961 91.4819 19.5075C90.9662 19.6188 90.4949 19.8796 90.1268 20.2575C89.7587 20.6353 89.5101 21.1131 89.4122 21.6315C89.3143 22.1498 89.3714 22.6855 89.5763 23.1715C89.7813 23.6575 90.1249 24.0724 90.5644 24.3641C91.0039 24.6558 91.5195 24.8115 92.047 24.8117C92.4062 24.8188 92.7629 24.7516 93.0949 24.6144C93.4269 24.4774 93.727 24.2733 93.9766 24.0149C94.2261 23.7566 94.4196 23.4494 94.5452 23.1129C94.6707 22.7763 94.7254 22.4175 94.7059 22.0588H94.7294Z" fill="#7C7C7C"/>
<path d="M112.129 16.2353V27.3058C112.129 31.2117 109.071 32.8706 105.976 32.8706C104.885 32.9601 103.79 32.7433 102.816 32.2444C101.841 31.7456 101.025 30.9846 100.459 30.047L103.435 28.3294C103.676 28.8157 104.06 29.2169 104.535 29.4796C105.01 29.7423 105.554 29.8541 106.094 29.8C106.438 29.8423 106.787 29.8082 107.117 29.7C107.446 29.5916 107.747 29.412 107.999 29.1736C108.251 28.9353 108.447 28.6443 108.573 28.3214C108.699 27.9985 108.753 27.6517 108.729 27.3058V26.2353C108.319 26.7333 107.797 27.1285 107.207 27.39C106.617 27.6514 105.974 27.7716 105.329 27.7411C103.769 27.7411 102.273 27.1214 101.17 26.0182C100.067 24.9151 99.447 23.4189 99.447 21.8588C99.447 20.2987 100.067 18.8026 101.17 17.6994C102.273 16.5962 103.769 15.9764 105.329 15.9764C105.974 15.946 106.617 16.0662 107.207 16.3276C107.797 16.589 108.319 16.9843 108.729 17.4823V16.3058L112.129 16.2353ZM108.729 21.8235C108.753 21.2607 108.607 20.7036 108.312 20.2241C108.016 19.7445 107.584 19.3644 107.07 19.1325C106.557 18.9007 105.986 18.8277 105.431 18.923C104.875 19.0183 104.361 19.2775 103.955 19.6673C103.548 20.057 103.267 20.5596 103.148 21.1103C103.029 21.661 103.078 22.2345 103.288 22.7574C103.498 23.2802 103.859 23.7283 104.326 24.0441C104.792 24.3598 105.343 24.5289 105.906 24.5294C106.273 24.5558 106.643 24.5049 106.989 24.38C107.336 24.2549 107.653 24.0585 107.919 23.8035C108.185 23.5485 108.394 23.2405 108.534 22.8995C108.674 22.5584 108.74 22.1918 108.729 21.8235Z" fill="#7C7C7C"/>
<path d="M114.118 22.0588C114.118 20.8367 114.48 19.6421 115.159 18.6261C115.839 17.6101 116.804 16.8185 117.933 16.3514C119.062 15.8842 120.305 15.7626 121.503 16.0019C122.702 16.2412 123.802 16.8306 124.666 17.6955C125.529 18.5606 126.116 19.6622 126.353 20.8611C126.59 22.06 126.466 23.3022 125.997 24.4306C125.528 25.5591 124.734 26.5228 123.717 27.2001C122.7 27.8774 121.504 28.2376 120.282 28.2353C119.47 28.2432 118.663 28.0887 117.911 27.7809C117.159 27.4732 116.476 27.0183 115.902 26.4431C115.327 25.8678 114.874 25.1836 114.567 24.4308C114.261 23.678 114.108 22.8715 114.118 22.0588ZM122.965 22.0588C122.951 21.5311 122.781 21.0191 122.478 20.5871C122.174 20.1552 121.75 19.8223 121.258 19.6305C120.766 19.4386 120.229 19.3961 119.713 19.5085C119.197 19.6207 118.726 19.8828 118.358 20.2618C117.99 20.6407 117.743 21.1198 117.646 21.6388C117.55 22.1579 117.608 22.6939 117.815 23.1796C118.022 23.6655 118.367 24.0795 118.808 24.3699C119.249 24.6601 119.766 24.8139 120.294 24.8118C120.653 24.8188 121.01 24.7516 121.342 24.6145C121.674 24.4774 121.974 24.2733 122.224 24.0149C122.473 23.7566 122.667 23.4494 122.792 23.1129C122.918 22.7763 122.972 22.4175 122.953 22.0588H122.965Z" fill="#7C7C7C"/>
<path d="M128.082 13.1177C128.082 12.7036 128.205 12.2986 128.435 11.9543C128.665 11.6099 128.992 11.3415 129.375 11.183C129.758 11.0245 130.179 10.983 130.585 11.0638C130.991 11.1446 131.364 11.344 131.657 11.6369C131.95 11.9298 132.15 12.303 132.23 12.7091C132.311 13.1153 132.27 13.5364 132.111 13.9191C131.953 14.3017 131.684 14.6287 131.34 14.8589C130.996 15.089 130.591 15.2118 130.176 15.2118C129.623 15.2057 129.094 14.9831 128.702 14.5917C128.311 14.2003 128.088 13.6712 128.082 13.1177ZM128.424 16.2353H131.953V27.8824H128.424V16.2353Z" fill="#7C7C7C"/>
<path d="M147.059 22.0589C147.098 22.8335 146.984 23.6083 146.723 24.3386C146.462 25.069 146.059 25.7405 145.538 26.3145C145.016 26.8886 144.386 27.3538 143.684 27.6835C142.982 28.0131 142.222 28.2006 141.447 28.2354C140.79 28.2791 140.131 28.1738 139.52 27.9274C138.908 27.6808 138.361 27.2995 137.918 26.8118V32.5648H134.388V16.2354H137.918V17.3295C138.361 16.8432 138.909 16.4637 139.521 16.2192C140.132 15.9746 140.79 15.8716 141.447 15.9177C142.219 15.9524 142.976 16.1389 143.676 16.4663C144.375 16.7937 145.004 17.2558 145.525 17.8261C146.046 18.3963 146.45 19.0636 146.713 19.7899C146.976 20.5162 147.094 21.2871 147.059 22.0589ZM143.529 22.0589C143.516 21.5124 143.341 20.9823 143.027 20.5349C142.713 20.0875 142.274 19.7425 141.765 19.5436C141.256 19.3445 140.699 19.3003 140.165 19.4162C139.631 19.5321 139.143 19.8031 138.762 20.1952C138.381 20.5874 138.125 21.0831 138.024 21.6205C137.924 22.1578 137.985 22.7128 138.199 23.2158C138.413 23.7188 138.77 24.1475 139.227 24.4482C139.683 24.7489 140.218 24.9081 140.765 24.9059C141.139 24.9218 141.513 24.8584 141.861 24.7198C142.209 24.5812 142.524 24.3706 142.785 24.1018C143.046 23.833 143.247 23.5119 143.376 23.1599C143.504 22.8078 143.556 22.4326 143.529 22.0589Z" fill="#7C7C7C"/>
<path d="M157.8 24.3882C157.8 27.0705 155.447 28.2117 152.953 28.2117C151.936 28.3032 150.914 28.0876 150.021 27.5927C149.128 27.0977 148.403 26.3462 147.941 25.4352L150.976 23.7176C151.097 24.1374 151.357 24.5031 151.715 24.7537C152.073 25.0043 152.506 25.1244 152.941 25.0941C153.776 25.0941 154.2 24.8352 154.2 24.3647C154.2 23.0823 148.471 23.7647 148.471 19.7294C148.471 17.1882 150.612 15.9176 153.035 15.9176C153.956 15.8763 154.872 16.0854 155.684 16.5224C156.496 16.9595 157.174 17.6083 157.647 18.4L154.612 19.9999C154.478 19.6964 154.259 19.4383 153.981 19.2567C153.703 19.075 153.379 18.9777 153.047 18.9764C152.435 18.9764 152.071 19.2117 152.071 19.6235C152.071 20.9647 157.8 20.0823 157.8 24.3882Z" fill="#7C7C7C"/>
<path d="M170.588 16.2354V27.8824H167.059V26.7883C166.658 27.2726 166.148 27.6558 165.573 27.9072C164.996 28.1586 164.369 28.271 163.741 28.2354C161.388 28.2354 159.376 26.553 159.376 23.4118V16.2354H162.906V22.8824C162.878 23.1603 162.911 23.4409 163.002 23.7049C163.094 23.9688 163.241 24.2097 163.434 24.4111C163.628 24.6124 163.864 24.7694 164.124 24.8711C164.384 24.9728 164.662 25.0168 164.941 25.0001C166.212 25.0001 167.106 24.2471 167.106 22.6471V16.2354H170.588Z" fill="#7C7C7C"/>
<path d="M190.588 20.7294V27.8823H187.059V21.0353C187.059 19.8588 186.506 19.1294 185.388 19.1294C184.271 19.1294 183.565 19.9411 183.565 21.3176V27.8823H180.035V21.0353C180.035 19.8588 179.482 19.1294 178.365 19.1294C177.247 19.1294 176.541 19.9411 176.541 21.3176V27.8823H173.012V16.2353H176.541V17.3058C176.907 16.8329 177.383 16.4583 177.931 16.216C178.476 15.9736 179.075 15.871 179.671 15.9176C180.267 15.8864 180.862 16.0111 181.396 16.2793C181.931 16.5474 182.386 16.9498 182.718 17.447C183.106 16.9275 183.619 16.5148 184.209 16.2474C184.799 15.9798 185.448 15.8664 186.094 15.9176C188.847 15.9176 190.588 17.8235 190.588 20.7294Z" fill="#7C7C7C"/>
<path d="M193.553 16.1648C194.982 16.1648 196.141 15.0059 196.141 13.5765C196.141 12.1471 194.982 10.9883 193.553 10.9883C192.124 10.9883 190.965 12.1471 190.965 13.5765C190.965 15.0059 192.124 16.1648 193.553 16.1648Z" fill="#7C7C7C"/>
</svg>
