<svg width="239" height="40" viewBox="0 0 239 40" fill="none" xmlns="http://www.w3.org/2000/svg">
<path d="M96.1627 25.4546V9.89819H93.6118V25.4546H96.1627Z" fill="#7C7C7C"/>
<path d="M97.7239 20.2691C97.7239 23.4473 99.8567 25.7055 103.098 25.7055C106.338 25.7055 108.471 23.4473 108.471 20.2691C108.471 17.0909 106.338 14.8328 103.098 14.8328C99.8567 14.8328 97.7239 17.0909 97.7239 20.2691ZM100.296 20.2691C100.296 18.4082 101.404 17.1119 103.098 17.1119C104.791 17.1119 105.899 18.4082 105.899 20.2691C105.899 22.1091 104.791 23.4264 103.098 23.4264C101.404 23.4264 100.296 22.1091 100.296 20.2691Z" fill="#7C7C7C"/>
<path d="M109.329 20.06C109.329 23.0709 111.274 25.2454 114.18 25.2454C115.686 25.2454 116.982 24.6391 117.63 23.6354V25.3918C117.63 27.0854 116.564 28.2145 114.786 28.2145C113.197 28.2145 112.11 27.4409 111.964 26.0818H109.392C109.726 28.7791 111.796 30.5354 114.64 30.5354C117.986 30.5354 120.118 28.34 120.118 24.9318V15.1254H117.86L117.714 16.5263C117.086 15.4391 115.79 14.7909 114.264 14.7909C111.316 14.7909 109.329 17.0282 109.329 20.06ZM111.922 19.9973C111.922 18.2827 113.009 17.0282 114.619 17.0282C116.376 17.0282 117.546 18.3036 117.546 19.9973C117.546 21.7118 116.376 23.0291 114.619 23.0291C113.03 23.0291 111.922 21.7327 111.922 19.9973Z" fill="#7C7C7C"/>
<path d="M121.381 20.2691C121.381 23.4473 123.513 25.7055 126.754 25.7055C129.995 25.7055 132.128 23.4473 132.128 20.2691C132.128 17.0909 129.995 14.8328 126.754 14.8328C123.513 14.8328 121.381 17.0909 121.381 20.2691ZM123.952 20.2691C123.952 18.4082 125.061 17.1119 126.754 17.1119C128.448 17.1119 129.556 18.4082 129.556 20.2691C129.556 22.1091 128.448 23.4264 126.754 23.4264C125.061 23.4264 123.952 22.1091 123.952 20.2691Z" fill="#7C7C7C"/>
<path d="M134.889 13.0136C135.725 13.0136 136.415 12.3445 136.415 11.4873C136.415 10.6509 135.725 9.98181 134.889 9.98181C134.031 9.98181 133.383 10.6509 133.383 11.4873C133.383 12.3445 134.031 13.0136 134.889 13.0136ZM133.613 25.4545H136.164V15.1254H133.613V25.4545Z" fill="#7C7C7C"/>
<path d="M138.399 30.2427H140.887V24.0327C141.535 25.099 142.936 25.7263 144.484 25.7263C147.536 25.7263 149.355 23.3845 149.314 20.1645C149.251 16.9236 147.39 14.8118 144.463 14.8118C142.894 14.8118 141.473 15.5018 140.845 16.6936L140.699 15.1254H138.399V30.2427ZM140.992 20.29C140.992 18.429 142.121 17.1327 143.898 17.1327C145.675 17.1327 146.742 18.45 146.742 20.29C146.742 22.13 145.675 23.4263 143.898 23.4263C142.121 23.4263 140.992 22.1509 140.992 20.29Z" fill="#7C7C7C"/>
<path d="M149.961 22.36C150.045 24.409 151.634 25.7263 154.101 25.7263C156.526 25.7263 158.178 24.43 158.178 22.4227C158.178 20.9381 157.258 19.9345 155.565 19.5163L153.745 19.0772C152.972 18.8681 152.449 18.5963 152.449 17.9272C152.449 17.2163 153.014 16.7145 153.934 16.7145C154.895 16.7145 155.523 17.2581 155.523 18.1572H157.844C157.76 16.1081 156.234 14.8118 153.996 14.8118C151.78 14.8118 150.128 16.1081 150.128 18.0736C150.128 19.4118 150.902 20.5199 152.888 21.0427L154.686 21.5027C155.355 21.6909 155.774 22.0045 155.774 22.59C155.774 23.4054 155 23.7818 154.059 23.7818C152.93 23.7818 152.282 23.259 152.282 22.36H149.961Z" fill="#7C7C7C"/>
<path d="M163.47 25.7264C164.871 25.7264 166.209 25.0782 166.815 24.1164L166.983 25.4546H169.366V15.1255H166.815V20.5409C166.815 22.4019 166.105 23.4473 164.432 23.4473C163.135 23.4473 162.236 22.82 162.236 20.6873V15.1255H159.685V21.5864C159.685 24.0537 161.024 25.7264 163.47 25.7264Z" fill="#7C7C7C"/>
<path d="M174.168 25.4545V19.5163C174.168 17.8436 175.151 17.049 176.364 17.049C177.576 17.049 178.371 17.8227 178.371 19.2863V25.4545H180.859V19.5372C180.859 17.8436 181.821 17.049 183.034 17.049C184.267 17.049 185.062 17.8227 185.062 19.2863V25.4545H187.529V18.7009C187.529 16.3172 186.212 14.8118 183.703 14.8118C182.135 14.8118 180.901 15.5645 180.399 16.7772C179.835 15.5645 178.705 14.8118 176.991 14.8118C175.778 14.8118 174.691 15.3763 174.085 16.2963L173.959 15.1254H171.617V25.4545H174.168Z" fill="#7C7C7C"/>
<path d="M168.053 34.6855C168.433 34.6855 168.763 34.3655 168.763 33.9855C168.763 33.5955 168.433 33.2755 168.053 33.2755C167.663 33.2755 167.333 33.5955 167.333 33.9855C167.333 34.3655 167.663 34.6855 168.053 34.6855Z" fill="#7C7C7C"/>
<path d="M169.496 32.1055C169.496 33.6355 170.436 34.6655 171.806 34.6655C172.986 34.6655 173.886 33.9555 174.076 32.8955H173.176C173.006 33.4855 172.486 33.8355 171.866 33.8355C170.986 33.8355 170.426 33.1555 170.426 32.0955C170.426 31.0155 171.016 30.3555 171.886 30.3555C172.486 30.3555 173.006 30.6755 173.166 31.3055H174.066C173.906 30.2355 173.066 29.5155 171.896 29.5155C170.476 29.5155 169.496 30.5655 169.496 32.1055Z" fill="#7C7C7C"/>
<path d="M174.431 32.0955C174.431 33.5655 175.431 34.6655 176.931 34.6655C178.431 34.6655 179.431 33.5655 179.431 32.0955C179.431 30.6255 178.431 29.5255 176.931 29.5255C175.431 29.5255 174.431 30.6255 174.431 32.0955ZM175.381 32.0955C175.381 31.0955 175.991 30.3655 176.931 30.3655C177.871 30.3655 178.481 31.0955 178.481 32.0955C178.481 33.0955 177.871 33.8255 176.931 33.8255C175.991 33.8255 175.381 33.0955 175.381 32.0955Z" fill="#7C7C7C"/>
<path d="M181.174 34.5555V31.6155C181.174 30.8455 181.654 30.3455 182.354 30.3455C183.024 30.3455 183.444 30.7755 183.444 31.5455V34.5555H184.364V31.6255C184.364 30.8455 184.834 30.3455 185.544 30.3455C186.204 30.3455 186.624 30.7755 186.624 31.5455V34.5555H187.534V31.3455C187.534 30.2155 186.874 29.5255 185.754 29.5255C184.994 29.5255 184.404 29.8955 184.164 30.4955C183.914 29.8955 183.364 29.5255 182.564 29.5255C181.954 29.5255 181.414 29.8055 181.144 30.2855L181.074 29.6655H180.234V34.5555H181.174Z" fill="#7C7C7C"/>
<path fill-rule="evenodd" clip-rule="evenodd" d="M51.2181 20.3958L51.2199 20.2136L51.2235 20.0313L51.229 19.8491L51.2364 19.6668L51.2456 19.4845L51.2567 19.3022L51.2697 19.1201L51.2845 18.9379L51.3012 18.7558L51.3198 18.5737L51.3403 18.3919L51.3627 18.2101L51.3869 18.0284L51.413 17.847L51.4409 17.6657L51.4707 17.4847L51.5024 17.3038L51.536 17.1232L51.5714 16.9429L51.6087 16.7628L51.6479 16.583L51.6889 16.4035L51.7317 16.2244L51.7765 16.0456L51.823 15.8672L51.8714 15.6891L51.9217 15.5115L51.9738 15.3343L52.0277 15.1576L52.0835 14.9813L52.1411 14.8055L52.2005 14.6301L52.2618 14.4553L52.3248 14.2811L52.3897 14.1073L52.4564 13.9341L52.5249 13.7616L52.5951 13.5896L52.6672 13.4183L52.741 13.2476L52.8167 13.0775L52.8941 12.9081L52.9732 12.7395L53.0542 12.5715L53.1368 12.4042L53.2213 12.2378L53.3074 12.0721L53.3953 11.9071L53.4849 11.743L53.5763 11.5796L53.6693 11.4171L53.7641 11.2554L53.8605 11.0946L53.9587 10.9347L54.0585 10.7757L54.1599 10.6176L54.2631 10.4605L54.3679 10.3042L54.4743 10.1491L54.5824 9.99478L54.692 9.84151L54.8033 9.68933L54.9162 9.53806L55.0307 9.38796L55.1468 9.23887L55.2644 9.09082L55.3837 8.94391L55.5044 8.79811L55.6267 8.65344L55.7506 8.5099L55.8759 8.36753L56.0028 8.22634L56.1311 8.08633L56.261 7.94753L56.3923 7.80995L56.525 7.6736L56.6593 7.5385L56.7949 7.40466L56.932 7.27211L57.0705 7.14085L57.2104 7.0109L57.3517 6.88226L57.4943 6.75497L57.6383 6.62903L57.7837 6.50444L57.9303 6.38124L58.0783 6.25943L58.2277 6.13902L58.3783 6.02003L58.5301 5.90246L58.6832 5.78636L58.8377 5.67169L58.9933 5.55851L59.1501 5.44681L59.3081 5.3366L59.4674 5.2279L59.6278 5.12071L59.7893 5.01506L59.952 4.91096L60.116 4.80841L60.2809 4.70743L60.447 4.60802L60.614 4.51021L60.7822 4.414L60.9515 4.3194L61.1218 4.22643L61.293 4.13508L61.4653 4.04539L61.6386 3.95735L61.8129 3.87097L61.988 3.78627L62.1642 3.70326L62.3412 3.62194L62.5192 3.54233L62.698 3.46443L62.8778 3.38826L63.0583 3.31382L63.2397 3.24112L63.4219 3.17016L63.6049 3.10098L63.7886 3.03356L63.9731 2.96792L64.1584 2.90406L64.3444 2.84198L64.531 2.78172L64.7184 2.72326L64.9065 2.66661L65.0952 2.61179L65.2845 2.5588L65.4745 2.50764L65.665 2.45832L65.8561 2.41086L66.0478 2.36526L66.24 2.3215L66.4328 2.27963L66.626 2.23962L66.8197 2.20149L67.0139 2.16526L67.2085 2.1309L67.4036 2.09845L67.599 2.06789L67.7949 2.03924L67.991 2.0125L68.1876 1.98767L68.3845 1.96476L68.5817 1.94376L68.7791 1.92471L68.9769 1.90757L69.1749 1.89236L69.373 1.8791L70.4389 1.81824L70.4997 6.95339L70.5345 6.95299L70.6817 6.95278L70.8289 6.95402L70.976 6.9567L71.1234 6.96084L71.2707 6.96642L71.418 6.97344L71.5654 6.98192L71.7128 6.99186L71.86 7.00323L72.0074 7.01606L72.1546 7.03035L72.3018 7.0461L72.4488 7.06329L72.5958 7.08194L72.7426 7.10204L72.8893 7.12358L73.0359 7.14659L73.1823 7.17105L73.3285 7.19695L73.4746 7.2243L73.6204 7.2531L73.766 7.28336L73.9114 7.31505L74.0565 7.34818L74.2013 7.38276L74.346 7.41877L74.4902 7.45624L74.6341 7.49513L74.7778 7.53546L74.9211 7.57721L75.064 7.62039L75.2066 7.665L75.3488 7.71104L75.4906 7.75849L75.632 7.80735L75.7729 7.85764L75.9134 7.90932L76.0534 7.96242L76.193 8.01691L76.332 8.07281L76.4706 8.1301L76.6086 8.18877L76.7461 8.24884L76.8831 8.31028L77.0195 8.3731L77.1553 8.43728L77.2906 8.50284L77.4252 8.56976L77.5592 8.63803L77.6926 8.70765L77.8253 8.77861L77.9574 8.85092L78.0888 8.92456L78.2195 8.99952L78.3495 9.0758L78.4788 9.15342L78.6073 9.23233L78.7351 9.31251L78.8621 9.39405L78.9884 9.47678L79.1139 9.56087L79.2386 9.64624L79.3624 9.73278L79.4855 9.82069L79.6077 9.90978L79.729 10.0001L79.8495 10.0918L79.969 10.1846L80.0878 10.2787L80.2055 10.3739L80.3224 10.4703L80.4383 10.5681L80.5533 10.6669L80.6674 10.7669L80.7805 10.8681L80.8925 10.9704L81.0036 11.074L81.1137 11.1786L81.2228 11.2843L81.3308 11.3912L81.4378 11.4992L81.5437 11.6084L81.6486 11.7186L81.7523 11.8299L81.855 11.9422L81.9566 12.0557L82.057 12.1701L82.1564 12.2857L82.2546 12.4022L82.3517 12.5198L82.4476 12.6384L82.5423 12.758L82.6359 12.8785L82.7282 13.0001L82.8194 13.1226L82.9093 13.2461L82.998 13.3705L83.0855 13.4959L83.1718 13.6221L83.2568 13.7492L83.3405 13.8773L83.423 14.0063L83.504 14.1361L83.584 14.2668L83.6625 14.3983L83.7398 14.5307L83.8157 14.6639L83.8903 14.7979L83.9636 14.9327L84.0355 15.0682L84.106 15.2046L84.1752 15.3417L84.243 15.4795L84.3095 15.6181L84.3746 15.7574L84.4382 15.8974L84.5005 16.0381L84.5613 16.1795L84.6207 16.3216L84.6787 16.4642L84.7352 16.6076L84.7903 16.7515L84.844 16.8961L84.8961 17.0412L84.9469 17.1871L84.9961 17.3333L85.044 17.4802L85.0902 17.6276L85.135 17.7755L85.1783 17.924L85.2201 18.0729L85.2604 18.2223L85.2992 18.3722L85.3364 18.5225L85.3722 18.6733L85.4064 18.8245L85.439 18.9761L85.4702 19.1281L85.4998 19.2805L85.5278 19.4332L85.5543 19.5863L85.5792 19.7397L85.6026 19.8934L85.6244 20.0475L85.6446 20.2018L85.6632 20.3564L85.6803 20.5112L85.6958 20.6663L85.7097 20.8216L85.722 20.9771L85.7328 21.1329L85.7419 21.2888L85.7494 21.4448L85.7554 21.6011L85.7597 21.7573L85.7625 21.9138L85.7636 22.0703L85.7631 22.227L85.761 22.3837L85.7573 22.5405L85.752 22.6972L85.7451 22.8541L85.7367 23.0109L85.7265 23.1677L85.7148 23.3245L85.7014 23.4812L85.6864 23.638L85.6699 23.7946L85.6516 23.9511L85.6318 24.1075L85.6104 24.2638L85.5873 24.42L85.5627 24.576L85.5364 24.7318L85.5085 24.8874L85.479 25.0429L85.448 25.1981L85.4152 25.3531L85.3809 25.5079L85.345 25.6624L85.3075 25.8166L85.2683 25.9705L85.2276 26.1241L85.1853 26.2773L85.1414 26.4302L85.096 26.5828L85.0489 26.7351L85.0001 26.8868L84.95 27.0382L84.8981 27.1891L84.8447 27.3397L84.7898 27.4898L84.7332 27.6393L84.6751 27.7884L84.6155 27.9371L84.5543 28.0851L84.4916 28.2327L84.4273 28.3798L84.3615 28.5261L84.2941 28.6721L84.2252 28.8173L84.1549 28.962L84.0829 29.1061L84.0095 29.2494L83.9345 29.3922L83.8581 29.5342L83.7801 29.6757L83.7008 29.8163L83.6199 29.9563L83.5375 30.0956L83.4537 30.2341L83.3684 30.3719L83.2816 30.5088L83.1934 30.645L83.1039 30.7803L83.0128 30.9149L82.9203 31.0486L82.8264 31.1815L82.7311 31.3135L82.6344 31.4447L82.5363 31.575L82.4369 31.7043L82.336 31.8327L82.2339 31.9602L82.1303 32.0868L82.0254 32.2123L81.9191 32.337L81.8116 32.4606L81.7027 32.5832L81.5925 32.7049L81.481 32.8255L81.3683 32.9451L81.2542 33.0636L81.139 33.181L81.0223 33.2973L80.9045 33.4126L80.7855 33.5268L80.6652 33.6399L80.5438 33.7518L80.421 33.8626L80.2971 33.9721L80.1721 34.0806L80.0459 34.188L79.9185 34.2941L79.79 34.3989L79.6603 34.5026L79.5295 34.6051L79.3976 34.7062L79.2646 34.8061L79.1305 34.9049L78.9954 35.0023L78.8591 35.0984L78.7219 35.1933L78.5836 35.2869L78.4443 35.3791L78.304 35.47L78.1627 35.5596L78.0204 35.6478L77.8771 35.7347L77.7329 35.8201L77.5877 35.9043L77.4417 35.9871L77.2946 36.0683L77.1468 36.1483L76.998 36.2268L76.8483 36.3039L76.6978 36.3796L76.5464 36.4538L76.3942 36.5265L76.2412 36.5979L76.0874 36.6677L75.9329 36.7361L75.7775 36.8029L75.6214 36.8682L75.4646 36.9321L75.307 36.9945L75.1488 37.0553L74.9898 37.1147L74.8301 37.1724L74.6698 37.2287L74.5089 37.2833L74.3473 37.3365L74.185 37.3881L74.0222 37.4381L73.8589 37.4865L73.695 37.5333L73.5304 37.5786L73.3654 37.6223L73.1998 37.6643L73.0338 37.7048L72.8672 37.7437L72.7001 37.7809L72.5327 37.8165L72.3648 37.8505L72.1964 37.8829L72.0277 37.9136L71.8586 37.9426L71.689 37.9701L71.5192 37.9959L71.349 38.02L71.1785 38.0424L71.0077 38.0632L70.8365 38.0823L70.6651 38.0998L70.4935 38.1156L70.3217 38.1297L70.1496 38.1421L69.9773 38.1529L69.8048 38.162L69.6321 38.1693L69.4594 38.175L69.2864 38.179L69.1134 38.1812L68.9402 38.1819L68.767 38.1808L68.5938 38.178L68.4204 38.1735L68.247 38.1672L68.0737 38.1593L67.9003 38.1498L67.727 38.1384L67.5537 38.1254L67.3805 38.1107L67.2073 38.0942L67.0342 38.0761L66.8613 38.0563L66.6885 38.0348L66.5158 38.0115L66.3433 37.9865L66.171 37.9599L65.9989 37.9315L65.827 37.9015L65.6552 37.8697L65.4839 37.8362L65.3127 37.8011L65.1419 37.7642L64.9712 37.7257L64.801 37.6855L64.6311 37.6436L64.4616 37.6L64.2924 37.5547L64.1237 37.5078L63.9553 37.4591L63.7873 37.4089L63.6199 37.3569L63.4529 37.3032L63.2863 37.248L63.1202 37.191L62.9547 37.1323L62.7897 37.0721L62.6252 37.0102L62.4613 36.9467L62.298 36.8815L62.1353 36.8147L61.9732 36.7462L61.8118 36.6762L61.651 36.6046L61.4908 36.5313L61.3313 36.4564L61.1726 36.38L61.0146 36.3019L60.8572 36.2222L60.7007 36.1411L60.545 36.0582L60.3899 35.974L60.2357 35.8881L60.0823 35.8006L59.9298 35.7116L59.778 35.6211L59.6272 35.5291L59.4772 35.4354L59.3281 35.3404L59.18 35.2438L59.0328 35.1458L58.8865 35.0461L58.7412 34.9451L58.5969 34.8427L58.4535 34.7387L58.3112 34.6333L58.1698 34.5264L58.0296 34.4181L57.8903 34.3085L57.7521 34.1973L57.6151 34.0849L57.4791 33.971L57.3442 33.8557L57.2104 33.7391L57.0778 33.621L56.9464 33.5016L56.8161 33.381L56.687 33.2589L56.5591 33.1356L56.4324 33.0109L56.3069 32.885L56.1827 32.7578L56.0597 32.6292L55.938 32.4995L55.8176 32.3685L55.6985 32.2362L55.5806 32.1028L55.4641 31.9681L55.3489 31.8322L55.2351 31.6952L55.1227 31.557L55.0116 31.4176L54.9018 31.2771L54.7935 31.1354L54.6866 30.9926L54.5811 30.8487L54.4771 30.7037L54.3745 30.5576L54.2733 30.4105L54.1736 30.2623L54.0754 30.1131L53.9787 29.9629L53.8835 29.8116L53.7897 29.6593L53.6976 29.5061L53.6069 29.3519L53.5178 29.1968L53.4303 29.0407L53.3443 28.8837L53.2599 28.7257L53.177 28.5669L53.0958 28.4072L53.0162 28.2467L52.9381 28.0853L52.8618 27.9231L52.787 27.7601L52.7139 27.5961L52.6424 27.4316L52.5726 27.2661L52.5045 27.1001L52.438 26.9331L52.3732 26.7655L52.3101 26.5972L52.2487 26.4282L52.189 26.2586L52.1311 26.0883L52.0748 25.9173L52.0203 25.7458L51.9675 25.5736L51.9165 25.4009L51.8672 25.2275L51.8197 25.0536L51.7739 24.8792L51.7299 24.7043L51.6877 24.5289L51.6473 24.353L51.6087 24.1765L51.5718 23.9997L51.5367 23.8224L51.5035 23.6448L51.472 23.4667L51.4424 23.2882L51.4146 23.1094L51.3886 22.9302L51.3644 22.7507L51.3421 22.5709L51.3216 22.3908L51.303 22.2104L51.2861 22.0299L51.2712 21.849L51.258 21.6679L51.2468 21.4866L51.2373 21.3051L51.2298 21.1235L51.2241 20.9418L51.2202 20.7599L51.2183 20.5779L51.2181 20.3958ZM68.8346 7.06096L68.7931 3.56077L68.7538 3.56457L68.573 3.58381L68.3928 3.60479L68.2126 3.62756L68.0331 3.65201L67.8539 3.67825L67.6748 3.70624L67.4962 3.73595L67.3179 3.76743L67.1404 3.80055L66.9627 3.83552L66.7862 3.87206L66.6095 3.91046L66.4337 3.95047L66.258 3.99227L66.0832 4.03567L65.9089 4.08082L65.735 4.12765L65.5616 4.17616L65.389 4.22631L65.2168 4.27818L65.0454 4.33166L64.8745 4.38685L64.7045 4.44356L64.5348 4.50206L64.366 4.56212L64.198 4.62377L64.0304 4.68711L63.8638 4.75199L63.698 4.81844L63.5328 4.88659L63.3683 4.95629L63.2047 5.02758L63.042 5.10037L62.88 5.17475L62.719 5.25062L62.5586 5.32816L62.3993 5.40713L62.2409 5.48763L62.0833 5.56965L61.9267 5.65318L61.7711 5.73815L61.6162 5.82468L61.4623 5.91272L61.3098 6.00201L61.1577 6.09305L61.007 6.18529L60.8574 6.27897L60.7085 6.37419L60.5608 6.4708L60.4141 6.56882L60.2689 6.66799L60.1241 6.76892L59.9809 6.87093L59.8387 6.97435L59.6975 7.07918L59.5576 7.18526L59.419 7.29262L59.2811 7.40148L59.1449 7.51138L59.0096 7.62273L58.8756 7.73528L58.7428 7.84915L58.6113 7.9641L58.4808 8.08051L58.3519 8.19796L58.224 8.31676L58.0976 8.43656L57.9723 8.55765L57.8485 8.67985L57.7259 8.80325L57.6045 8.92792L57.4847 9.05345L57.3662 9.18005L57.2488 9.30815L57.133 9.43706L57.0187 9.56687L56.9055 9.69806L56.7939 9.83006L56.6836 9.96324L56.5748 10.0973L56.4674 10.2325L56.3614 10.3686L56.257 10.5056L56.1539 10.6436L56.0522 10.7827L55.9522 10.9224L55.8535 11.0633L55.7564 11.205L55.6608 11.3475L55.5666 11.491L55.4741 11.6352L55.383 11.7802L55.2935 11.9261L55.2055 12.0728L55.119 12.2203L55.0341 12.3687L54.9508 12.5176L54.8691 12.6673L54.7888 12.8179L54.7103 12.9691L54.6332 13.121L54.5578 13.2734L54.484 13.4266L54.4119 13.5804L54.3412 13.735L54.2723 13.89L54.2049 14.0457L54.1392 14.202L54.0752 14.3587L54.0127 14.5161L53.9519 14.674L53.8928 14.8323L53.8353 14.9912L53.7795 15.1505L53.7253 15.3104L53.6728 15.4707L53.6219 15.6314L53.5728 15.7924L53.5253 15.9541L53.4795 16.1159L53.4354 16.2781L53.3929 16.4407L53.3522 16.6037L53.3131 16.7669L53.2758 16.9304L53.2401 17.0942L53.2061 17.2583L53.1738 17.4226L53.1433 17.5871L53.1144 17.7519L53.0872 17.9169L53.0618 18.082L53.038 18.2472L53.0159 18.4127L52.9956 18.5782L52.9769 18.7439L52.96 18.9097L52.9448 19.0755L52.9312 19.2413L52.9194 19.4073L52.9093 19.5733L52.9009 19.7392L52.8942 19.9052L52.8892 20.0711L52.8859 20.2371L52.8843 20.4029L52.8844 20.5687L52.8862 20.7343L52.8897 20.9L52.8949 21.0654L52.9018 21.2307L52.9104 21.3959L52.9206 21.5608L52.9326 21.7256L52.9462 21.8901L52.9615 22.0545L52.9785 22.2187L52.9971 22.3825L53.0175 22.5461L53.0394 22.7094L53.0631 22.8724L53.0884 23.0351L53.1153 23.1974L53.144 23.3594L53.1742 23.5211L53.2061 23.6822L53.2396 23.8431L53.2747 24.0035L53.3115 24.1635L53.3499 24.3231L53.3899 24.4821L53.4315 24.6408L53.4747 24.7988L53.5195 24.9564L53.5659 25.1135L53.6139 25.2701L53.6635 25.4261L53.7146 25.5814L53.7673 25.7362L53.8216 25.8904L53.8774 26.0441L53.9347 26.197L53.9936 26.3493L54.054 26.501L54.1159 26.652L54.1793 26.8022L54.2443 26.9518L54.3107 27.1007L54.3786 27.2489L54.4481 27.3962L54.5189 27.5429L54.5913 27.6887L54.6651 27.8338L54.7403 27.9781L54.817 28.1215L54.8951 28.2641L54.9746 28.4059L55.0555 28.5468L55.1379 28.6869L55.2216 28.826L55.3067 28.9642L55.3931 29.1016L55.481 29.238L55.5701 29.3735L55.6607 29.5081L55.7525 29.6416L55.8456 29.7742L55.9401 29.9059L56.0359 30.0365L56.1329 30.1661L56.2312 30.2947L56.3308 30.4222L56.4316 30.5487L56.5337 30.6741L56.637 30.7986L56.7415 30.9219L56.8472 31.0441L56.9541 31.1651L57.0622 31.2851L57.1715 31.404L57.2819 31.5217L57.3935 31.6382L57.5061 31.7537L57.62 31.868L57.7349 31.981L57.8509 32.0929L57.968 32.2035L58.0861 32.3131L58.2054 32.4213L58.3257 32.5283L58.4469 32.6341L58.5692 32.7386L58.6926 32.8419L58.8168 32.9439L58.9421 33.0447L59.0683 33.1441L59.1955 33.2422L59.3236 33.3391L59.4527 33.4347L59.5826 33.5289L59.7134 33.6218L59.845 33.7133L59.9777 33.8036L60.111 33.8924L60.2454 33.98L60.3804 34.0661L60.5163 34.1509L60.653 34.2343L60.7904 34.3163L60.9287 34.397L61.0676 34.4761L61.2073 34.554L61.3477 34.6303L61.4889 34.7053L61.6306 34.7789L61.773 34.8511L61.9162 34.9217L62.06 34.991L62.2044 35.0588L62.3494 35.1251L62.495 35.19L62.6412 35.2534L62.788 35.3153L62.9353 35.3759L63.0831 35.4349L63.2315 35.4923L63.3804 35.5484L63.5297 35.603L63.6795 35.656L63.8299 35.7075L63.9806 35.7576L64.1318 35.8061L64.2832 35.8531L64.4353 35.8987L64.5876 35.9427L64.7403 35.9851L64.8934 36.0261L65.0468 36.0656L65.2005 36.1035L65.3544 36.1399L65.5088 36.1748L65.6633 36.2081L65.818 36.2399L65.9731 36.2701L66.1284 36.2989L66.2839 36.3261L66.4395 36.3517L66.5953 36.3758L66.7513 36.3983L66.9075 36.4193L67.0637 36.4389L67.22 36.4568L67.3765 36.4731L67.533 36.4881L67.6897 36.5013L67.8463 36.5131L68.003 36.5233L68.1597 36.5321L68.3163 36.5391L68.473 36.5448L68.6296 36.5489L68.7862 36.5513L68.9427 36.5523L69.0991 36.5518L69.2555 36.5497L69.4117 36.5461L69.5678 36.541L69.7238 36.5343L69.8796 36.5261L70.0351 36.5164L70.1906 36.5052L70.3459 36.4925L70.5009 36.4782L70.6556 36.4624L70.8101 36.4451L70.9643 36.4264L71.1183 36.4061L71.272 36.3843L71.4253 36.3611L71.5783 36.3363L71.731 36.3101L71.8834 36.2823L72.0353 36.2531L72.1869 36.2225L72.338 36.1903L72.4888 36.1568L72.639 36.1217L72.789 36.0851L72.9383 36.0472L73.0872 36.0078L73.2356 35.967L73.3836 35.9247L73.531 35.881L73.6779 35.8359L73.8241 35.7894L73.97 35.7414L74.1151 35.6921L74.2596 35.6414L74.4037 35.5892L74.547 35.5358L74.6898 35.4809L74.8319 35.4247L74.9732 35.3671L75.114 35.3081L75.254 35.2479L75.3934 35.1862L75.532 35.1233L75.67 35.0591L75.8071 34.9934L75.9435 34.9266L76.0792 34.8583L76.214 34.7889L76.3481 34.7181L76.4815 34.6461L76.6139 34.5728L76.7455 34.4982L76.8762 34.4225L77.0063 34.3454L77.1352 34.2672L77.2636 34.1877L77.3908 34.1071L77.5171 34.0251L77.6427 33.9421L77.7673 33.8577L77.8908 33.7724L78.0134 33.6858L78.1351 33.5981L78.2559 33.5092L78.3757 33.4191L78.4943 33.3281L78.6122 33.2358L78.7289 33.1425L78.8445 33.0481L78.9593 32.9526L79.073 32.856L79.1854 32.7584L79.297 32.6597L79.4073 32.5601L79.5167 32.4593L79.625 32.3576L79.732 32.255L79.838 32.1511L79.943 32.0464L80.0467 31.9408L80.1493 31.8341L80.2507 31.7267L80.3509 31.6183L80.4501 31.5087L80.548 31.3985L80.6448 31.2872L80.7402 31.1752L80.8346 31.0622L80.9277 30.9485L81.0195 30.8339L81.1102 30.7183L81.1996 30.6021L81.2879 30.485L81.3747 30.3671L81.4604 30.2484L81.545 30.1289L81.6279 30.0089L81.7098 29.8879L81.7902 29.7663L81.8695 29.6439L81.9476 29.5207L82.0241 29.3971L82.0994 29.2727L82.1735 29.1473L82.246 29.0218L82.3174 28.8953L82.3875 28.7682L82.456 28.6408L82.5234 28.5124L82.5894 28.3835L82.6539 28.2545L82.7171 28.1244L82.779 27.9939L82.8395 27.863L82.8986 27.7315L82.9563 27.5995L83.0126 27.4671L83.0676 27.3341L83.1211 27.2006L83.1732 27.0671L83.224 26.9325L83.2732 26.798L83.3212 26.6628L83.3678 26.5273L83.4129 26.3914L83.4564 26.2555L83.4988 26.1186L83.5395 25.9819L83.5789 25.8447L83.6169 25.7073L83.6534 25.5694L83.6884 25.4315L83.7221 25.2931L83.7543 25.1545L83.7851 25.0158L83.8145 24.8767L83.8423 24.7377L83.8688 24.5981L83.8938 24.4588L83.9173 24.319L83.9394 24.1791L83.96 24.0391L83.9793 23.899L83.997 23.759L84.0134 23.6183L84.0282 23.4782L84.0417 23.3377L84.0536 23.1974L84.0641 23.0567L84.0732 22.9165L84.0809 22.7759L84.087 22.6351L84.0918 22.4948L84.0951 22.3547L84.097 22.2141L84.0974 22.0737L84.0964 21.9335L84.094 21.7934L84.09 21.6533L84.0847 21.5138L84.078 21.3737L84.0698 21.2342L84.0601 21.0948L84.0491 20.9558L84.0367 20.8165L84.0229 20.6779L84.0076 20.5391L83.9909 20.4009L83.9728 20.2627L83.9533 20.125L83.9323 19.9871L83.91 19.85L83.8864 19.7132L83.8613 19.5764L83.8348 19.4401L83.807 19.3042L83.7777 19.1683L83.7472 19.0334L83.7151 18.8983L83.682 18.7641L83.6471 18.6298L83.6111 18.4964L83.5738 18.3632L83.535 18.2303L83.495 18.0982L83.4537 17.9666L83.4109 17.8351L83.367 17.7045L83.3215 17.5741L83.275 17.4444L83.227 17.3151L83.1778 17.1866L83.1271 17.0583L83.0753 16.9308L83.0223 16.8041L82.968 16.6779L82.9122 16.5519L82.8556 16.4271L82.7973 16.3023L82.738 16.1788L82.6775 16.0557L82.6156 15.9331L82.5527 15.8114L82.4884 15.6903L82.4229 15.5698L82.3565 15.4504L82.2886 15.3313L82.2197 15.2132L82.1494 15.0957L82.0783 14.9793L82.0057 14.8632L81.9322 14.7482L81.8574 14.6338L81.7816 14.5203L81.7048 14.4079L81.6266 14.2959L81.5474 14.1849L81.4672 14.0747L81.3859 13.9655L81.3035 13.857L81.22 13.7495L81.1356 13.6428L81.05 13.5371L80.9635 13.4322L80.8759 13.3282L80.7872 13.2252L80.6977 13.1231L80.6072 13.0221L80.5157 12.9219L80.423 12.8225L80.3298 12.7245L80.235 12.6271L80.1399 12.531L80.0436 12.4356L79.9465 12.3414L79.8481 12.248L79.7494 12.156L79.6494 12.0647L79.5486 11.9745L79.4472 11.8855L79.3449 11.7975L79.2413 11.7103L79.1372 11.6244L79.0324 11.5396L78.9267 11.4559L78.8201 11.3731L78.713 11.2918L78.6048 11.2111L78.4961 11.1319L78.3866 11.0537L78.2762 10.9765L78.1654 10.9006L78.0534 10.8256L77.9414 10.7521L77.8281 10.6795L77.7145 10.6081L77.6 10.5379L77.485 10.4688L77.3693 10.401L77.2532 10.3344L77.136 10.2687L77.0189 10.2045L76.9007 10.1413L76.782 10.0794L76.663 10.0188L76.5431 9.95924L76.4229 9.90087L76.3021 9.84387L76.1808 9.78796L76.0591 9.73342L75.9369 9.67996L75.8102 9.62615L75.6911 9.57696L75.5672 9.52715L75.4435 9.47887L75.3188 9.43151L75.194 9.38569L75.0688 9.34096L74.9432 9.2976L74.8171 9.25533L74.691 9.21451L74.5642 9.17487L74.4372 9.13651L74.3101 9.09951L74.1825 9.06366L74.0544 9.02904L73.9265 8.99583L73.7983 8.96388L73.6693 8.93311L73.5408 8.90376L73.4116 8.87557L73.2824 8.84876L73.1528 8.82316L73.0233 8.7989L72.8935 8.7759L72.7638 8.75424L72.6334 8.73378L72.5034 8.71468L72.3731 8.69685L72.2427 8.68029L72.1122 8.66504L71.9818 8.65109L71.8512 8.63842L71.7206 8.62704L71.5899 8.61694L71.459 8.60812L71.3286 8.60061L71.198 8.59438L71.067 8.58943L70.9368 8.58577L70.8062 8.58339L70.6758 8.5823L70.5451 8.58248L70.519 8.58278L70.5601 12.0575L70.6342 12.0571L70.7296 12.0577L70.825 12.0591L70.9204 12.0616L71.016 12.065L71.1115 12.0693L71.207 12.0746L71.3027 12.0808L71.3983 12.088L71.494 12.0961L71.5896 12.1051L71.6851 12.1151L71.7808 12.1261L71.8763 12.1381L71.9718 12.1509L72.0672 12.1648L72.1626 12.1795L72.2579 12.1952L72.3531 12.212L72.4482 12.2296L72.5432 12.2482L72.6381 12.2678L72.733 12.2882L72.8276 12.3097L72.922 12.3321L73.0164 12.3555L73.1105 12.3798L73.2045 12.4051L73.2983 12.4312L73.392 12.4584L73.4854 12.4865L73.5786 12.5155L73.6715 12.5455L73.7642 12.5764L73.8568 12.6083L73.949 12.6411L74.041 12.6749L74.1326 12.7095L74.224 12.7451L74.3151 12.7817L74.406 12.8191L74.4964 12.8576L74.5866 12.8969L74.6764 12.9371L74.7659 12.9782L74.855 13.0203L74.9438 13.0633L75.0321 13.1072L75.1201 13.1521L75.2078 13.1978L75.295 13.2443L75.3818 13.2919L75.4681 13.3402L75.554 13.3895L75.6396 13.4397L75.7247 13.4908L75.8092 13.5427L75.8933 13.5955L75.977 13.6492L76.0601 13.7038L76.1428 13.7591L76.225 13.8154L76.3066 13.8726L76.3877 13.9305L76.4682 13.9893L76.5482 14.0491L76.6278 14.1095L76.7066 14.1709L76.785 14.2331L76.8627 14.296L76.9399 14.3598L77.0164 14.4244L77.0924 14.4898L77.1678 14.556L77.2425 14.623L77.3166 14.6908L77.39 14.7593L77.4628 14.8287L77.5349 14.8988L77.6063 14.9697L77.6771 15.0413L77.7472 15.1138L77.8167 15.1869L77.8853 15.2608L77.9533 15.3354L78.0206 15.4108L78.0871 15.4868L78.153 15.5636L78.218 15.6411L78.2824 15.7192L78.346 15.7981L78.4088 15.8777L78.4708 15.958L78.532 16.0389L78.5925 16.1205L78.6521 16.2027L78.711 16.2856L78.769 16.3691L78.8263 16.4533L78.8827 16.5381L78.9382 16.6235L78.993 16.7096L79.0469 16.7962L79.1 16.8834L79.1521 16.9712L79.2034 17.0597L79.2539 17.1486L79.3034 17.2381L79.352 17.3282L79.3999 17.4189L79.4468 17.5101L79.4927 17.6018L79.5378 17.6941L79.582 17.7868L79.6251 17.88L79.6674 17.9738L79.7088 18.068L79.7492 18.1627L79.7887 18.2579L79.8272 18.3535L79.8648 18.4496L79.9013 18.5461L79.937 18.6431L79.9716 18.7404L80.0053 18.8382L80.038 18.9364L80.0697 19.0351L80.1004 19.134L80.1301 19.2333L80.1589 19.3331L80.1866 19.4331L80.2132 19.5336L80.239 19.6343L80.2636 19.7354L80.2872 19.8368L80.3099 19.9385L80.3314 20.0405L80.352 20.1428L80.3714 20.2453L80.3899 20.3482L80.4073 20.4513L80.4237 20.5546L80.439 20.6582L80.4532 20.762L80.4664 20.866L80.4786 20.9702L80.4896 21.0747L80.4996 21.1792L80.5086 21.2841L80.5164 21.389L80.5232 21.4941L80.5289 21.5992L80.5335 21.7046L80.537 21.8101L80.5395 21.9157L80.5409 22.0214L80.5411 22.1272L80.5403 22.2331L80.5384 22.339L80.5354 22.445L80.5313 22.5511L80.5261 22.6571L80.5199 22.7631L80.5125 22.8693L80.504 22.9754L80.4944 23.0815L80.4838 23.1876L80.472 23.2936L80.4591 23.3997L80.4451 23.5056L80.43 23.6115L80.4139 23.7173L80.3966 23.8231L80.3782 23.9287L80.3587 24.0342L80.3381 24.1397L80.3164 24.245L80.2936 24.3501L80.2698 24.4551L80.2448 24.56L80.2187 24.6646L80.1915 24.7691L80.1632 24.8734L80.1339 24.9775L80.1034 25.0813L80.0719 25.185L80.0392 25.2884L80.0054 25.3916L79.9706 25.4944L79.9347 25.5971L79.8978 25.6994L79.8597 25.8014L79.8205 25.9031L79.7803 26.0046L79.739 26.1057L79.6967 26.2065L79.6532 26.3069L79.6088 26.407L79.5632 26.5067L79.5166 26.606L79.469 26.7049L79.4202 26.8034L79.3704 26.9015L79.3196 26.9992L79.2678 27.0964L79.2149 27.1932L79.161 27.2896L79.106 27.3855L79.05 27.4809L78.993 27.5759L78.935 27.6702L78.876 27.7642L78.816 27.8576L78.755 27.9505L78.6929 28.0428L78.6299 28.1346L78.5659 28.2259L78.5009 28.3165L78.4349 28.4066L78.368 28.4961L78.3 28.5851L78.2311 28.6733L78.1613 28.761L78.0905 28.8481L78.0188 28.9344L77.9461 29.0202L77.8725 29.1053L77.798 29.1898L77.7225 29.2735L77.6461 29.3566L77.5689 29.439L77.4908 29.5207L77.4117 29.6016L77.3318 29.6819L77.2509 29.7613L77.1692 29.8401L77.0866 29.9181L77.0032 29.9953L76.919 30.0719L76.8338 30.1475L76.7479 30.2224L76.661 30.2966L76.5735 30.3699L76.485 30.4424L76.3959 30.5141L76.3058 30.5849L76.215 30.6549L76.1234 30.7241L76.031 30.7923L75.9379 30.8598L75.844 30.9264L75.7494 30.9921L75.654 31.0569L75.5579 31.1208L75.461 31.1838L75.3635 31.2459L75.2653 31.3071L75.1663 31.3672L75.0668 31.4266L74.9664 31.485L74.8655 31.5423L74.7639 31.5988L74.6616 31.6543L74.5587 31.7089L74.4551 31.7624L74.351 31.815L74.2462 31.8665L74.1409 31.9171L74.0349 31.9667L73.9283 32.0152L73.8212 32.0628L73.7136 32.1093L73.6053 32.1548L73.4966 32.1992L73.3873 32.2427L73.2775 32.2851L73.1672 32.3264L73.0564 32.3667L72.9451 32.4059L72.8333 32.444L72.7211 32.4811L72.6084 32.517L72.4953 32.5519L72.3818 32.5857L72.2678 32.6183L72.1534 32.65L72.0386 32.6804L71.9234 32.7098L71.8079 32.7381L71.692 32.7652L71.5756 32.7912L71.459 32.8161L71.342 32.8399L71.2248 32.8625L71.1072 32.8841L70.9893 32.9044L70.8711 32.9236L70.7528 32.9416L70.634 32.9585L70.515 32.9742L70.3959 32.9889L70.2765 33.0022L70.1569 33.0145L70.037 33.0256L69.917 33.0355L69.7969 33.0442L69.6765 33.0518L69.556 33.0581L69.4353 33.0633L69.3145 33.0673L69.1936 33.0701L69.0726 33.0718L68.9514 33.0722L68.8302 33.0715L68.709 33.0695L68.5877 33.0664L68.4663 33.0621L68.345 33.0565L68.2235 33.0498L68.1021 33.0419L67.9807 33.0328L67.8593 33.0224L67.738 33.0109L67.6166 32.9981L67.4953 32.9842L67.3741 32.9691L67.253 32.9528L67.132 32.9352L67.011 32.9165L66.8902 32.8966L66.7695 32.8754L66.649 32.8531L66.5286 32.8296L66.4084 32.8048L66.2883 32.7789L66.1685 32.7518L66.0489 32.7234L65.9294 32.6939L65.8102 32.6631L65.6912 32.6312L65.5725 32.5981L65.4541 32.5639L65.336 32.5284L65.218 32.4918L65.1005 32.4539L64.9833 32.4149L64.8663 32.3747L64.7498 32.3333L64.6336 32.2908L64.5177 32.2471L64.4022 32.2021L64.2871 32.1561L64.1724 32.1089L64.0581 32.0605L63.9443 32.0111L63.831 31.9603L63.718 31.9085L63.6055 31.8556L63.4935 31.8015L63.382 31.7462L63.2709 31.6899L63.1604 31.6324L63.0504 31.5738L62.941 31.5141L62.832 31.4532L62.7237 31.3912L62.6159 31.3282L62.5087 31.2641L62.402 31.1988L62.296 31.1325L62.1907 31.0651L62.086 30.9966L61.9819 30.927L61.8784 30.8563L61.7756 30.7847L61.6735 30.712L61.572 30.6381L61.4713 30.5633L61.3712 30.4874L61.272 30.4105L61.1734 30.3326L61.0756 30.2536L60.9785 30.1737L60.8821 30.0927L60.7866 30.0108L60.6919 29.9278L60.5979 29.8439L60.5047 29.759L60.4124 29.6731L60.3209 29.5863L60.2301 29.4985L60.1403 29.4098L60.0514 29.3201L59.9633 29.2295L59.876 29.1381L59.7897 29.0456L59.7043 28.9523L59.6198 28.8581L59.5361 28.763L59.4535 28.667L59.3717 28.5701L59.291 28.4724L59.211 28.3738L59.1322 28.2744L59.0543 28.1741L58.9774 28.0731L58.9015 27.9711L58.8265 27.8685L58.7526 27.765L58.6798 27.6607L58.6079 27.5556L58.537 27.4498L58.4673 27.3432L58.3986 27.2359L58.3309 27.1278L58.2643 27.019L58.1988 26.9094L58.1344 26.7992L58.0711 26.6882L58.0088 26.5767L57.9477 26.4643L57.8877 26.3514L57.8289 26.2378L57.7711 26.1235L57.7145 26.0086L57.6591 25.8931L57.6048 25.777L57.5517 25.6601L57.4997 25.5429L57.4489 25.425L57.3993 25.3064L57.3509 25.1874L57.3037 25.0679L57.2577 24.9477L57.2129 24.8271L57.1693 24.706L57.1269 24.5842L57.0858 24.4621L57.0458 24.3395L57.0072 24.2164L56.9697 24.093L56.9335 23.969L56.8986 23.8446L56.8649 23.7198L56.8325 23.5945L56.8014 23.469L56.7715 23.343L56.7429 23.2166L56.7156 23.0899L56.6895 22.9629L56.6648 22.8355L56.6414 22.7078L56.6192 22.5798L56.5984 22.4515L56.5788 22.323L56.5606 22.1941L56.5437 22.0651L56.5281 21.9357L56.5138 21.8061L56.5009 21.6764L56.4893 21.5464L56.479 21.4162L56.47 21.286L56.4624 21.1554L56.4561 21.0248L56.4511 20.8941L56.4475 20.7631L56.4452 20.6321L56.4443 20.501L56.4447 20.3698L56.4465 20.2385L56.4496 20.1072L56.4541 19.9759L56.4599 19.8444L56.4671 19.7131L56.4756 19.5816L56.4855 19.4502L56.4968 19.3188L56.5094 19.1875L56.5233 19.0561L56.5386 18.925L56.5553 18.7938L56.5733 18.6627L56.5927 18.5317L56.6135 18.4009L56.6355 18.2701L56.659 18.1396L56.6838 18.0091L56.71 17.8789L56.7375 17.7489L56.7664 17.619L56.7966 17.4893L56.8281 17.3599L56.861 17.2307L56.8953 17.1018L56.9309 16.9731L56.9679 16.8447L57.0061 16.7166L57.0458 16.5888L57.0867 16.4612L57.129 16.3341L57.1726 16.2073L57.2176 16.0809L57.2639 15.9548L57.3115 15.8291L57.3604 15.7038L57.4106 15.5789L57.4621 15.4544L57.515 15.3304L57.5691 15.2068L57.6246 15.0837L57.6813 14.9611L57.7393 14.8389L57.7987 14.7172L57.8593 14.5961L57.9212 14.4755L57.9843 14.3555L58.0487 14.236L58.1144 14.1171L58.1814 13.9987L58.2496 13.8809L58.319 13.7638L58.3897 13.6472L58.4616 13.5313L58.5348 13.4161L58.6091 13.3014L58.6848 13.1875L58.7615 13.0742L58.8396 12.9617L58.9188 12.8498L58.9991 12.7386L59.0808 12.6282L59.1635 12.5185L59.2475 12.4096L59.3326 12.3014L59.4189 12.1941L59.5062 12.0875L59.5948 11.9817L59.6845 11.8767L59.7753 11.7725L59.8672 11.6692L59.9603 11.5668L60.0544 11.4651L60.1497 11.3644L60.246 11.2645L60.3434 11.1656L60.4419 11.0675L60.5414 10.9703L60.642 10.8741L60.7437 10.7788L60.8463 10.6845L60.95 10.5911L61.0548 10.4987L61.1604 10.4072L61.2671 10.3168L61.3749 10.2273L61.4835 10.1389L61.5931 10.0514L61.7038 9.96506L61.8153 9.87969L61.9278 9.79542L62.0412 9.71215L62.1555 9.62996L62.2707 9.54887L62.3869 9.46887L62.5039 9.38996L62.6217 9.31224L62.7405 9.23551L62.86 9.15996L62.9805 9.08555L63.1018 9.01226L63.2239 8.94014L63.3467 8.86917L63.4704 8.79937L63.5949 8.73075L63.72 8.66332L63.846 8.59708L63.9728 8.53205L64.1002 8.46822L64.2284 8.40561L64.3573 8.34423L64.487 8.28408L64.6172 8.22517L64.7482 8.16751L64.8799 8.11111L65.0121 8.05597L65.145 8.0021L65.2785 7.94951L65.4127 7.8982L65.5474 7.84818L65.6828 7.79946L65.8187 7.75205L65.9551 7.70594L66.0921 7.66115L66.2296 7.61768L66.3677 7.57554L66.5062 7.53473L66.6453 7.49526L66.7848 7.45714L66.9248 7.42036L67.0652 7.38495L67.2061 7.35089L67.3474 7.31821L67.4891 7.28688L67.6312 7.25694L67.7737 7.22837L67.9166 7.2012L68.0598 7.17541L68.2033 7.15101L68.3472 7.12801L68.4914 7.10641L68.6359 7.08622L68.7806 7.06743L68.8346 7.06096ZM68.8957 12.2147L68.854 8.70177L68.7354 8.71836L68.6079 8.73747L68.4802 8.75786L68.3534 8.77942L68.2264 8.80229L68.1 8.82634L67.974 8.85162L67.8483 8.87808L67.723 8.9058L67.5979 8.93475L67.4731 8.96488L67.349 8.99621L67.2249 9.02879L67.1057 9.06133L66.9787 9.09742L66.856 9.13351L66.734 9.17078L66.6125 9.20915L66.4913 9.24878L66.3706 9.2896L66.2504 9.33151L66.1309 9.37451L66.0118 9.41878L65.8932 9.46406L65.7751 9.5106L65.658 9.55815L65.5408 9.60696L65.4245 9.65678L65.3088 9.70769L65.1939 9.75969L65.0792 9.81287L64.9652 9.86715L64.8522 9.92233L64.7394 9.97878L64.6278 10.0361L64.5163 10.0948L64.406 10.1541L64.2958 10.215L64.1867 10.2764L64.0783 10.3391L63.9705 10.4028L63.8635 10.4674L63.757 10.5332L63.6517 10.5998L63.5468 10.6675L63.4429 10.7361L63.3397 10.8057L63.2372 10.8763L63.1354 10.948L63.0348 11.0202L62.9347 11.0938L62.8354 11.1681L62.737 11.2434L62.6396 11.3195L62.5428 11.3967L62.447 11.4746L62.3521 11.5534L62.258 11.6333L62.165 11.7138L62.0726 11.7953L61.9811 11.8777L61.8907 11.9608L61.8012 12.0447L61.7124 12.1296L61.6249 12.2151L61.5381 12.3014L61.4522 12.3887L61.3674 12.4766L61.2835 12.5654L61.2006 12.6549L61.1187 12.7451L61.0377 12.8361L60.9576 12.9279L60.8789 13.0201L60.8009 13.1133L60.7239 13.2072L60.648 13.3017L60.5731 13.3968L60.4991 13.4928L60.4263 13.5892L60.3545 13.6864L60.2838 13.7842L60.214 13.8827L60.1455 13.9816L60.078 14.0812L60.0114 14.1815L59.946 14.2823L59.8817 14.3836L59.8185 14.4855L59.7563 14.5881L59.6952 14.6911L59.6353 14.7946L59.5764 14.8987L59.5188 15.0031L59.4621 15.1081L59.4065 15.2138L59.3522 15.3196L59.299 15.4261L59.2469 15.5331L59.1959 15.6402L59.146 15.7481L59.0973 15.8561L59.0498 15.9647L59.0033 16.0736L58.9581 16.1829L58.914 16.2925L58.871 16.4026L58.8292 16.513L58.7887 16.6236L58.7491 16.7347L58.711 16.8459L58.6738 16.9575L58.6379 17.0694L58.603 17.1816L58.5695 17.294L58.537 17.4066L58.5059 17.5194L58.4758 17.6326L58.4469 17.7459L58.4192 17.8594L58.3927 17.9731L58.3674 18.087L58.3433 18.2011L58.3204 18.3152L58.2986 18.4295L58.278 18.5441L58.2587 18.6586L58.2405 18.7733L58.2235 18.888L58.2077 19.0029L58.1931 19.1178L58.1797 19.2328L58.1675 19.3478L58.1564 19.4629L58.1466 19.578L58.1379 19.693L58.1305 19.8081L58.1242 19.9232L58.1191 20.0382L58.1152 20.1532L58.1124 20.2681L58.1109 20.3831L58.1105 20.498L58.1113 20.6127L58.1133 20.7273L58.1165 20.8419L58.1208 20.9562L58.1263 21.0706L58.133 21.1848L58.1408 21.2987L58.1498 21.4126L58.16 21.5262L58.1713 21.6397L58.1838 21.753L58.1974 21.8661L58.2122 21.979L58.2281 22.0915L58.2452 22.204L58.2634 22.316L58.2828 22.4279L58.3033 22.5395L58.3249 22.6507L58.3476 22.7618L58.3715 22.8724L58.3965 22.9829L58.4226 23.0928L58.4498 23.2025L58.4781 23.3119L58.5075 23.4209L58.538 23.5294L58.5696 23.6377L58.6022 23.7455L58.636 23.853L58.6709 23.9601L58.7068 24.0666L58.7438 24.1727L58.7818 24.2784L58.8209 24.3837L58.861 24.4885L58.9022 24.5928L58.9444 24.6966L58.9877 24.8L59.032 24.9028L59.0773 25.0051L59.1236 25.1069L59.171 25.2081L59.2193 25.3088L59.2686 25.409L59.319 25.5085L59.3702 25.6076L59.4225 25.7061L59.4758 25.8039L59.53 25.9011L59.5851 25.9978L59.6412 26.0938L59.6983 26.1891L59.7563 26.284L59.8152 26.3781L59.875 26.4715L59.9359 26.5644L59.9974 26.6564L60.06 26.748L60.1234 26.8387L60.1878 26.9288L60.253 27.0181L60.319 27.1068L60.386 27.1947L60.4538 27.282L60.5223 27.3684L60.5918 27.4541L60.662 27.5391L60.7331 27.6234L60.805 27.7068L60.8778 27.7896L60.9512 27.8714L61.0255 27.9526L61.1005 28.0329L61.1763 28.1124L61.2529 28.1911L61.3302 28.2691L61.4082 28.3461L61.487 28.4224L61.5666 28.4979L61.6467 28.5724L61.7277 28.6462L61.8092 28.7191L61.8915 28.7911L61.9745 28.8622L62.0581 28.9325L62.1424 29.002L62.2273 29.0704L62.3129 29.1381L62.399 29.2048L62.4859 29.2707L62.5733 29.3356L62.6612 29.3996L62.7498 29.4627L62.839 29.5249L62.9287 29.5861L63.019 29.6465L63.1099 29.7059L63.2012 29.7643L63.2931 29.8219L63.3855 29.8784L63.4784 29.9341L63.5719 29.9887L63.6657 30.0423L63.7601 30.0951L63.8549 30.1468L63.9502 30.1976L64.046 30.2474L64.142 30.2961L64.2387 30.3441L64.3358 30.3909L64.4331 30.4368L64.5309 30.4816L64.6291 30.5255L64.7276 30.5683L64.8265 30.6101L64.9258 30.6511L65.0254 30.6909L65.1252 30.7297L65.2255 30.7675L65.326 30.8043L65.4269 30.8401L65.528 30.8749L65.6294 30.9087L65.731 30.9413L65.833 30.9731L65.9351 31.0037L66.0375 31.0333L66.14 31.062L66.2429 31.0895L66.3459 31.1161L66.449 31.1416L66.5524 31.1661L66.656 31.1895L66.7597 31.212L66.8635 31.2333L66.9674 31.2536L67.0716 31.2729L67.1757 31.2911L67.28 31.3084L67.3844 31.3245L67.4889 31.3397L67.5934 31.3538L67.698 31.3669L67.8026 31.3789L67.9072 31.3899L68.012 31.3998L68.1167 31.4087L68.2214 31.4165L68.3261 31.4234L68.4308 31.4291L68.5354 31.434L68.6401 31.4377L68.7447 31.4404L68.8491 31.4421L68.9536 31.4427L69.058 31.4423L69.1622 31.4409L69.2664 31.4385L69.3704 31.4351L69.4744 31.4306L69.5781 31.4251L69.6818 31.4186L69.7852 31.4111L69.8886 31.4025L69.9917 31.393L70.0947 31.3824L70.1975 31.3709L70.3 31.3583L70.4024 31.3448L70.5045 31.3303L70.6064 31.3148L70.708 31.2982L70.8093 31.2808L70.9105 31.2622L71.0113 31.2428L71.1119 31.2224L71.2122 31.201L71.312 31.1786L71.4117 31.1553L71.511 31.131L71.61 31.1058L71.7086 31.0796L71.8069 31.0524L71.9048 31.0243L72.0023 30.9953L72.0994 30.9654L72.1961 30.9345L72.2926 30.9027L72.3885 30.87L72.484 30.8363L72.5791 30.8018L72.6738 30.7663L72.768 30.73L72.8617 30.6927L72.955 30.6545L73.0479 30.6155L73.1401 30.5756L73.232 30.5349L73.3233 30.4932L73.4142 30.4507L73.5046 30.4073L73.5942 30.3632L73.6837 30.3181L73.7723 30.2722L73.8606 30.2254L73.948 30.178L74.0351 30.1296L74.1217 30.0804L74.2075 30.0304L74.2929 29.9796L74.3776 29.9281L74.4616 29.8757L74.5452 29.8225L74.628 29.7687L74.7102 29.714L74.792 29.6584L74.8729 29.6022L74.953 29.5454L75.0329 29.4876L75.1118 29.4293L75.1901 29.3701L75.2679 29.3102L75.3446 29.2498L75.421 29.1884L75.4967 29.1264L75.5713 29.0639L75.6457 29.0003L75.719 28.9364L75.7917 28.8719L75.8639 28.8063L75.935 28.7405L76.0055 28.6739L76.0753 28.6066L76.1442 28.5388L76.2125 28.4702L76.28 28.4011L76.3468 28.3314L76.4126 28.2611L76.4778 28.1902L76.5422 28.1188L76.6057 28.0469L76.6686 27.9741L76.7305 27.9011L76.7916 27.8274L76.852 27.7531L76.9115 27.6785L76.9702 27.6031L77.0281 27.5274L77.0852 27.4511L77.1414 27.3743L77.1967 27.2972L77.2513 27.2193L77.305 27.1412L77.3578 27.0626L77.4099 26.9834L77.4608 26.9041L77.5111 26.8241L77.5605 26.7436L77.609 26.6629L77.6566 26.5817L77.7035 26.5L77.7492 26.4182L77.7943 26.3357L77.8384 26.2531L77.8815 26.1701L77.924 26.0864L77.9652 26.003L78.0059 25.9186L78.0453 25.8345L78.0842 25.7495L78.1219 25.6647L78.1589 25.5791L78.1949 25.4937L78.2299 25.4079L78.264 25.3217L78.2973 25.2352L78.3295 25.1488L78.361 25.0618L78.3914 24.9747L78.421 24.8874L78.4496 24.7999L78.4773 24.7121L78.5041 24.6241L78.53 24.5361L78.5549 24.4478L78.5788 24.3594L78.6019 24.2708L78.624 24.1821L78.6451 24.0933L78.6654 24.0041L78.6847 23.9151L78.7031 23.8259L78.7205 23.7367L78.737 23.6473L78.7526 23.5576L78.7672 23.4682L78.781 23.3786L78.7937 23.2889L78.8055 23.1993L78.8164 23.1096L78.8264 23.0196L78.8354 22.9302L78.8436 22.8401L78.8508 22.7504L78.857 22.6609L78.8623 22.5711L78.8667 22.4814L78.8701 22.3919L78.8727 22.3021L78.8742 22.2128L78.875 22.1231L78.8747 22.0338L78.8736 21.9444L78.8715 21.8554L78.8685 21.7662L78.8646 21.6772L78.8598 21.5886L78.854 21.4997L78.8474 21.4111L78.84 21.3229L78.8315 21.2344L78.8221 21.1465L78.8119 21.0584L78.8008 20.9708L78.7888 20.8832L78.7759 20.7958L78.762 20.7087L78.7474 20.6219L78.7319 20.5352L78.7154 20.4489L78.698 20.3624L78.6799 20.2766L78.6609 20.1911L78.641 20.1056L78.6201 20.0203L78.5986 19.9358L78.576 19.851L78.5528 19.7669L78.5286 19.6829L78.5036 19.5994L78.4778 19.5161L78.451 19.4331L78.4236 19.3506L78.3953 19.2684L78.366 19.1863L78.3362 19.105L78.3054 19.0238L78.2739 18.9431L78.2415 18.8627L78.2083 18.7826L78.1744 18.7032L78.1396 18.624L78.1041 18.5453L78.0679 18.4671L78.0308 18.3891L77.9929 18.3116L77.9544 18.2348L77.915 18.1581L77.875 18.0822L77.8341 18.0068L77.7925 17.9314L77.7503 17.857L77.7072 17.7828L77.6635 17.7092L77.619 17.636L77.574 17.5635L77.528 17.4912L77.4815 17.4198L77.4342 17.3488L77.3863 17.2783L77.3376 17.2082L77.2883 17.1389L77.2385 17.0701L77.1878 17.0017L77.1366 16.9341L77.0846 16.8669L77.0322 16.8004L76.979 16.7343L76.9251 16.669L76.8707 16.6041L76.8157 16.5399L76.7601 16.4764L76.7038 16.4133L76.647 16.3511L76.5896 16.2892L76.5318 16.2283L76.473 16.1677L76.414 16.108L76.3542 16.0486L76.294 15.9901L76.2334 15.9323L76.1721 15.8751L76.1102 15.8184L76.0479 15.7626L75.985 15.7074L75.9215 15.6527L75.858 15.5991L75.7935 15.5457L75.7287 15.4932L75.6634 15.4415L75.5976 15.3902L75.5314 15.3399L75.465 15.2903L75.3977 15.2412L75.33 15.1928L75.2622 15.1454L75.1936 15.0984L75.125 15.0525L75.0559 15.0071L74.9862 14.9623L74.9161 14.9183L74.846 14.8752L74.775 14.8327L74.704 14.7911L74.6324 14.75L74.5609 14.7099L74.4887 14.6704L74.4161 14.6316L74.3433 14.5936L74.2703 14.5565L74.1969 14.52L74.123 14.4842L74.0491 14.4493L73.975 14.4152L73.9001 14.3817L73.8256 14.3491L73.7505 14.3173L73.675 14.2861L73.5995 14.2559L73.5239 14.2264L73.4479 14.1977L73.3714 14.1696L73.2951 14.1425L73.2184 14.1161L73.1415 14.0904L73.0647 14.0656L72.9875 14.0416L72.9103 14.0183L72.8325 13.9958L72.755 13.9741L72.6772 13.9532L72.5993 13.9331L72.5213 13.9138L72.443 13.8952L72.3648 13.8775L72.2866 13.8606L72.208 13.8444L72.1293 13.829L72.051 13.8145L71.9722 13.8007L71.8936 13.7877L71.8146 13.7754L71.736 13.7641L71.6569 13.7533L71.5782 13.7436L71.4993 13.7345L71.4204 13.7262L71.3416 13.7188L71.2626 13.7121L71.184 13.7061L71.1049 13.7011L71.0261 13.6967L70.9476 13.6931L70.8685 13.6903L70.79 13.6883L70.7115 13.6871L70.633 13.6867L70.5794 13.6869L70.62 17.1191L70.6443 17.1191L70.6894 17.1198L70.7346 17.1209L70.7799 17.1223L70.8251 17.1244L70.8705 17.1269L70.9159 17.1298L70.9613 17.1332L71.0068 17.1371L71.0523 17.1415L71.0979 17.1463L71.1434 17.1516L71.189 17.1574L71.2346 17.1637L71.2802 17.1704L71.3259 17.1777L71.3715 17.1854L71.417 17.1936L71.4627 17.2023L71.5082 17.2114L71.5538 17.2211L71.5993 17.2312L71.6449 17.2419L71.6902 17.253L71.7357 17.2645L71.781 17.2766L71.8263 17.2891L71.8716 17.3021L71.9168 17.3157L71.9619 17.3297L72.0069 17.3442L72.0519 17.3592L72.0967 17.3747L72.1415 17.3906L72.1861 17.4071L72.2307 17.424L72.2751 17.4413L72.3195 17.4592L72.3637 17.4776L72.4078 17.4964L72.4518 17.5158L72.4956 17.5356L72.5393 17.5559L72.5829 17.5767L72.6262 17.5979L72.6695 17.6196L72.7125 17.6419L72.7554 17.6645L72.7981 17.6877L72.8407 17.7113L72.883 17.7354L72.9252 17.76L72.9671 17.785L73.009 17.8105L73.0505 17.8365L73.0919 17.863L73.133 17.8898L73.1739 17.9171L73.2146 17.9451L73.255 17.9733L73.2952 18.0021L73.3352 18.0312L73.375 18.0609L73.4144 18.091L73.4536 18.1215L73.4926 18.1525L73.5312 18.184L73.5696 18.2158L73.6078 18.2481L73.6456 18.2809L73.6831 18.3141L73.7204 18.3477L73.7573 18.3818L73.794 18.4162L73.8302 18.4511L73.8663 18.4865L73.902 18.5222L73.9373 18.5584L73.9724 18.595L74.007 18.632L74.0414 18.6694L74.0754 18.7072L74.1091 18.7454L74.1424 18.7841L74.1753 18.8231L74.208 18.8624L74.2401 18.9022L74.272 18.9424L74.3034 18.983L74.3345 19.024L74.3652 19.0652L74.3955 19.107L74.4253 19.149L74.4549 19.1914L74.484 19.2342L74.5126 19.2774L74.5409 19.3209L74.5688 19.3648L74.5961 19.409L74.6231 19.4535L74.6497 19.4984L74.6758 19.5436L74.7015 19.5891L74.7267 19.6351L74.7515 19.6812L74.7759 19.7278L74.7997 19.7746L74.8231 19.8217L74.846 19.8691L74.8685 19.917L74.8905 19.965L74.912 20.0133L74.9331 20.062L74.9537 20.1109L74.9738 20.1601L74.9933 20.2095L75.0124 20.2592L75.031 20.3092L75.0491 20.3595L75.0667 20.4101L75.0838 20.4608L75.1003 20.5118L75.1163 20.5631L75.1319 20.6145L75.1469 20.6662L75.1613 20.7182L75.1753 20.7703L75.1888 20.8227L75.2016 20.8753L75.214 20.9281L75.2258 20.9811L75.237 21.0343L75.2478 21.0877L75.2579 21.1411L75.2675 21.195L75.2766 21.2489L75.2851 21.3029L75.293 21.3571L75.3004 21.4115L75.3072 21.4661L75.3135 21.5208L75.3192 21.5756L75.3243 21.6305L75.3289 21.6856L75.3329 21.7409L75.3362 21.7961L75.339 21.8516L75.3412 21.9071L75.343 21.9628L75.344 22.0185L75.3445 22.0743L75.3443 22.1301L75.3437 22.1861L75.3424 22.2422L75.3405 22.2983L75.338 22.3545L75.335 22.4107L75.3313 22.467L75.327 22.5232L75.3221 22.5796L75.3167 22.636L75.3107 22.6923L75.304 22.7487L75.2967 22.8051L75.2889 22.8616L75.2804 22.918L75.2713 22.9743L75.2616 23.0307L75.2513 23.0871L75.2404 23.1434L75.229 23.1997L75.2168 23.256L75.204 23.3121L75.1908 23.3683L75.1768 23.4244L75.1622 23.4805L75.1471 23.5364L75.1313 23.5923L75.115 23.6481L75.098 23.7038L75.0804 23.7594L75.0622 23.8149L75.0434 23.8703L75.024 23.9256L75.004 23.9807L74.9833 24.0358L74.9621 24.0906L74.9403 24.1454L74.9179 24.2L74.8949 24.2544L74.8712 24.3087L74.847 24.3629L74.8221 24.4168L74.7967 24.4705L74.7706 24.5241L74.744 24.5775L74.7168 24.6307L74.689 24.6837L74.6605 24.7364L74.6315 24.789L74.602 24.8413L74.5718 24.8934L74.541 24.9453L74.5097 24.9969L74.4777 25.0483L74.4452 25.0994L74.4121 25.1502L74.3784 25.2009L74.3442 25.2511L74.3094 25.3012L74.274 25.351L74.238 25.4004L74.2016 25.4496L74.1645 25.4984L74.1269 25.547L74.0887 25.5952L74.05 25.6431L74.0107 25.6907L73.9709 25.738L73.9305 25.7849L73.8895 25.8314L73.848 25.8776L73.806 25.9235L73.7635 25.969L73.7205 26.0141L73.6769 26.0589L73.6328 26.1032L73.5881 26.1471L73.543 26.1908L73.4973 26.234L73.4511 26.2767L73.4045 26.3191L73.3573 26.3611L73.3097 26.4026L73.2615 26.4437L73.2129 26.4843L73.1637 26.5246L73.114 26.5644L73.064 26.6037L73.0134 26.6426L72.9624 26.6811L72.9109 26.7191L72.859 26.7565L72.8065 26.7935L72.7537 26.8301L72.7003 26.8661L72.6466 26.9018L72.5924 26.9368L72.5378 26.9714L72.4827 27.0055L72.4272 27.0391L72.3713 27.0721L72.315 27.1046L72.2583 27.1366L72.2011 27.1681L72.1437 27.1991L72.0858 27.2294L72.0275 27.2593L71.9688 27.2886L71.9098 27.3174L71.8503 27.3456L71.7905 27.3732L71.7304 27.4003L71.6699 27.4268L71.609 27.4528L71.5479 27.4781L71.4863 27.5029L71.4244 27.5271L71.3622 27.5507L71.2997 27.5737L71.2369 27.5961L71.1738 27.618L71.1103 27.6391L71.0466 27.6598L70.9826 27.6797L70.9183 27.6991L70.8537 27.7179L70.7889 27.736L70.7238 27.7535L70.6584 27.7703L70.5928 27.7866L70.5269 27.8021L70.4608 27.8171L70.3944 27.8314L70.3279 27.8451L70.261 27.8581L70.194 27.8705L70.1269 27.8822L70.0594 27.8933L69.9919 27.9037L69.924 27.9134L69.8561 27.9225L69.788 27.931L69.7197 27.9387L69.6512 27.9457L69.5826 27.9521L69.5139 27.9578L69.445 27.9629L69.3759 27.9671L69.3068 27.9709L69.2375 27.9739L69.1681 27.9761L69.0986 27.9777L69.029 27.9786L68.9594 27.9789L68.8897 27.9784L68.8199 27.9772L68.75 27.9753L68.68 27.9728L68.61 27.9695L68.54 27.9655L68.4699 27.9609L68.3998 27.9555L68.3297 27.9494L68.2595 27.9426L68.1894 27.9351L68.1192 27.9269L68.0491 27.918L67.979 27.9083L67.9089 27.8981L67.8388 27.887L67.7688 27.8752L67.6988 27.8628L67.6289 27.8496L67.559 27.8358L67.4891 27.8211L67.4194 27.8059L67.3498 27.7898L67.2802 27.7731L67.2107 27.7557L67.1413 27.7375L67.0721 27.7186L67.003 27.6991L66.934 27.6788L66.8651 27.6578L66.7964 27.6361L66.7279 27.6137L66.6594 27.5906L66.5912 27.5668L66.5231 27.5422L66.4552 27.517L66.3876 27.4911L66.32 27.4644L66.2528 27.4371L66.1857 27.4091L66.1189 27.3803L66.0522 27.3509L65.9858 27.3208L65.9197 27.29L65.8537 27.2584L65.788 27.2262L65.7227 27.1933L65.6576 27.1598L65.5928 27.1255L65.5282 27.0906L65.464 27.055L65.4 27.0187L65.3363 26.9817L65.273 26.9441L65.21 26.9058L65.1474 26.8668L65.085 26.8271L65.023 26.7869L64.9614 26.7459L64.9001 26.7042L64.8393 26.662L64.7788 26.6191L64.7186 26.5755L64.6589 26.5312L64.5995 26.4864L64.5406 26.441L64.482 26.3948L64.424 26.3481L64.3662 26.3007L64.309 26.2527L64.2521 26.2041L64.1958 26.1548L64.1399 26.105L64.0844 26.0545L64.0294 26.0034L63.9749 25.9518L63.9209 25.8995L63.8672 25.8467L63.8142 25.7932L63.7617 25.7392L63.7096 25.6846L63.658 25.6295L63.607 25.5737L63.5566 25.5174L63.5066 25.4606L63.4572 25.4031L63.4083 25.3452L63.36 25.2867L63.3122 25.2276L63.265 25.1681L63.2184 25.108L63.1723 25.0473L63.1269 24.9861L63.082 24.9245L63.0378 24.8623L62.994 24.7996L62.951 24.7364L62.9085 24.6728L62.8667 24.6086L62.8255 24.544L62.7849 24.4789L62.745 24.4133L62.7056 24.3472L62.667 24.2808L62.629 24.2138L62.5916 24.1464L62.5549 24.0786L62.5189 24.0103L62.4835 23.9416L62.4488 23.8725L62.4148 23.8031L62.3815 23.7331L62.3489 23.6628L62.317 23.5921L62.2858 23.521L62.2552 23.4494L62.2254 23.3776L62.1963 23.3053L62.168 23.2328L62.1403 23.1598L62.1135 23.0865L62.0873 23.0129L62.0619 22.939L62.0371 22.8647L62.0132 22.7901L61.99 22.7151L61.9676 22.64L61.9459 22.5644L61.925 22.4886L61.9049 22.4125L61.8854 22.3361L61.8669 22.2595L61.849 22.1827L61.832 22.1055L61.8157 22.0281L61.8002 21.9505L61.7855 21.8727L61.7716 21.7946L61.7585 21.7163L61.7462 21.6379L61.7347 21.5591L61.724 21.4803L61.7141 21.4012L61.705 21.3221L61.6968 21.2426L61.6893 21.1631L61.6827 21.0833L61.6769 21.0035L61.6719 20.9235L61.6677 20.8434L61.6643 20.7632L61.6618 20.6829L61.6601 20.6024L61.6593 20.522L61.6592 20.4413L61.66 20.3606L61.6618 20.2799L61.6642 20.1991L61.6676 20.1181L61.6718 20.0372L61.6768 19.9563L61.6826 19.8753L61.6893 19.7943L61.6969 19.7133L61.7052 19.6323L61.7145 19.5513L61.7246 19.4703L61.7355 19.3894L61.7473 19.3085L61.76 19.2276L61.7735 19.1468L61.7878 19.066L61.803 18.9852L61.819 18.9046L61.836 18.8241L61.8537 18.7436L61.8722 18.6632L61.8917 18.5831L61.912 18.5029L61.9331 18.4229L61.9551 18.3431L61.978 18.2633L62.0016 18.1837L62.0261 18.1043L62.0515 18.0251L62.0777 17.946L62.1048 17.8671L62.1327 17.7884L62.1614 17.71L62.191 17.6317L62.2214 17.5537L62.2527 17.4759L62.2848 17.3982L62.3177 17.321L62.3514 17.2439L62.386 17.1671L62.4214 17.0905L62.4577 17.0142L62.4947 16.9383L62.5326 16.8626L62.5712 16.7872L62.6108 16.7122L62.651 16.6375L62.6922 16.5631L62.7341 16.4891L62.7769 16.4153L62.8204 16.3421L62.8648 16.2691L62.9099 16.1964L62.9559 16.1242L63.0026 16.0523L63.05 15.9809L63.0983 15.9099L63.1474 15.8392L63.1972 15.7691L63.2479 15.6993L63.2992 15.63L63.3513 15.5611L63.4042 15.4927L63.4579 15.4247L63.5123 15.3572L63.5675 15.2901L63.6233 15.2237L63.68 15.1576L63.7373 15.0921L63.7954 15.0271L63.8542 14.9625L63.9138 14.8986L63.974 14.8351L64.035 14.7722L64.0967 14.7099L64.159 14.6481L64.2221 14.5868L64.2859 14.5261L64.3503 14.4661L64.4154 14.4065L64.4811 14.3476L64.5476 14.2892L64.6148 14.2316L64.6825 14.1744L64.751 14.118L64.82 14.0621L64.8897 14.0069L64.96 13.9523L65.031 13.8984L65.1025 13.8451L65.1747 13.7925L65.2475 13.7406L65.3209 13.6893L65.3949 13.6387L65.4695 13.5888L65.5446 13.5396L65.6203 13.4911L65.6967 13.4433L65.7735 13.3962L65.851 13.3499L65.9289 13.3042L66.0074 13.2593L66.0864 13.2151L66.166 13.1717L66.246 13.1291L66.3266 13.0871L66.4077 13.046L66.4892 13.0056L66.5713 12.966L66.6539 12.9271L66.7369 12.8891L66.8203 12.8518L66.9042 12.8153L66.9887 12.7796L67.0735 12.7447L67.1587 12.7107L67.2444 12.6774L67.3305 12.645L67.417 12.6133L67.5039 12.5826L67.5912 12.5526L67.6789 12.5235L67.767 12.4952L67.8553 12.4678L67.9441 12.4412L68.0332 12.4155L68.1227 12.3907L68.2125 12.3667L68.3026 12.3435L68.393 12.3212L68.4838 12.2999L68.5749 12.2794L68.6661 12.2598L68.7578 12.2411L68.8496 12.2232L68.8957 12.2147ZM70.0247 18.815L68.9769 19.0653L68.9153 13.8749L68.866 13.886L68.7916 13.9035L68.7173 13.9218L68.6436 13.9407L68.57 13.9603L68.4968 13.9807L68.4236 14.0019L68.3511 14.0235L68.2785 14.0461L68.2068 14.0691L68.1349 14.093L68.0634 14.1175L67.9923 14.1427L67.9215 14.1685L67.8513 14.195L67.7812 14.2222L67.7115 14.2501L67.6422 14.2785L67.573 14.3078L67.5048 14.3374L67.4365 14.368L67.3689 14.399L67.3013 14.4308L67.2344 14.4631L67.1677 14.4961L67.1017 14.5296L67.036 14.5638L66.9707 14.5986L66.9059 14.634L66.8414 14.67L66.7774 14.7066L66.7141 14.7437L66.6508 14.7816L66.5882 14.8199L66.5262 14.8588L66.4646 14.8982L66.4033 14.9383L66.3427 14.979L66.2825 15.0201L66.2228 15.0618L66.1637 15.104L66.1049 15.1468L66.0467 15.1901L65.989 15.234L65.9319 15.2783L65.8753 15.3231L65.8193 15.3684L65.7637 15.4143L65.7086 15.4608L65.6542 15.5075L65.6003 15.5549L65.547 15.6026L65.4941 15.6509L65.4419 15.6997L65.3902 15.7489L65.3391 15.7984L65.2885 15.8486L65.2386 15.8991L65.1892 15.9501L65.1405 16.0013L65.0921 16.0533L65.0446 16.1054L64.9976 16.1581L64.9511 16.2111L64.9054 16.2644L64.8601 16.3183L64.8157 16.3723L64.7716 16.4271L64.7283 16.4819L64.6855 16.5372L64.6434 16.593L64.602 16.6489L64.561 16.7051L64.5209 16.7618L64.4812 16.8189L64.4422 16.8761L64.404 16.9339L64.3663 16.9917L64.3293 17.0499L64.2929 17.1085L64.2572 17.1672L64.222 17.2265L64.1877 17.2857L64.1539 17.3454L64.1207 17.4053L64.0883 17.4654L64.0565 17.5258L64.0254 17.5864L63.9949 17.6474L63.9651 17.7083L63.936 17.7698L63.9075 17.8312L63.8798 17.893L63.8526 17.9549L63.8261 18.0171L63.8004 18.0792L63.7753 18.1418L63.751 18.2044L63.7271 18.2672L63.7041 18.3301L63.6818 18.3932L63.66 18.4565L63.639 18.5199L63.6187 18.5833L63.599 18.6471L63.58 18.7108L63.5619 18.7745L63.5442 18.8385L63.5272 18.9026L63.511 18.9667L63.4955 19.0309L63.4806 19.0951L63.4664 19.1595L63.453 19.224L63.4401 19.2883L63.428 19.3528L63.4165 19.4174L63.4058 19.4819L63.3957 19.5464L63.3862 19.6111L63.3775 19.6756L63.3695 19.7403L63.3621 19.8048L63.3554 19.8694L63.3494 19.9341L63.344 19.9986L63.3394 20.0631L63.3354 20.1277L63.332 20.1921L63.3294 20.2564L63.3274 20.3207L63.3261 20.3851L63.3254 20.4492L63.3255 20.5133L63.3261 20.5773L63.3275 20.6413L63.3295 20.7051L63.3321 20.7689L63.3354 20.8325L63.3394 20.896L63.344 20.9593L63.3493 21.0226L63.3552 21.0857L63.3618 21.1488L63.369 21.2114L63.3768 21.2742L63.3852 21.3366L63.3944 21.3991L63.4041 21.4611L63.4145 21.5231L63.4255 21.5851L63.4371 21.6466L63.4494 21.7081L63.4622 21.7691L63.4758 21.8302L63.4899 21.891L63.5046 21.9516L63.5199 22.0118L63.5359 22.0721L63.5523 22.1318L63.5694 22.1915L63.5871 22.2508L63.6054 22.31L63.6243 22.3688L63.6438 22.4272L63.6639 22.4857L63.6845 22.5437L63.7057 22.6013L63.7274 22.6589L63.7498 22.7161L63.7727 22.7729L63.7961 22.8294L63.82 22.8856L63.8447 22.9416L63.8698 22.9972L63.8954 23.0525L63.9216 23.1074L63.9482 23.162L63.9756 23.2164L64.0032 23.2702L64.0315 23.3238L64.0603 23.3771L64.0897 23.4299L64.1195 23.4824L64.1498 23.5346L64.1806 23.5862L64.212 23.6377L64.2437 23.6887L64.276 23.7392L64.3088 23.7895L64.342 23.8393L64.3757 23.8889L64.4098 23.9377L64.4444 23.9864L64.4795 24.0346L64.515 24.0823L64.551 24.1298L64.5874 24.1767L64.6242 24.2231L64.6615 24.2692L64.6992 24.315L64.7372 24.3601L64.7759 24.4049L64.8148 24.4492L64.854 24.4931L64.894 24.5365L64.934 24.5793L64.9745 24.622L65.0154 24.664L65.0566 24.7055L65.0983 24.7466L65.1403 24.7872L65.1827 24.8274L65.2254 24.8671L65.2685 24.9062L65.312 24.945L65.3557 24.9831L65.3998 25.0209L65.4441 25.0581L65.4889 25.0949L65.534 25.1311L65.5794 25.1669L65.625 25.2021L65.671 25.2368L65.7172 25.2711L65.7638 25.3048L65.8106 25.338L65.8577 25.3707L65.905 25.4029L65.9527 25.4345L66.0005 25.4656L66.0486 25.4962L66.0971 25.5264L66.1457 25.5559L66.1945 25.585L66.2437 25.6135L66.2929 25.6414L66.3423 25.6689L66.3922 25.6959L66.4421 25.7222L66.4922 25.7481L66.5425 25.7733L66.5931 25.7981L66.6437 25.8223L66.6947 25.8461L66.7457 25.8692L66.7968 25.8918L66.8482 25.9139L66.8998 25.9354L66.9513 25.9564L67.0031 25.9769L67.055 25.9967L67.1072 26.0161L67.1592 26.0349L67.2117 26.0531L67.264 26.0708L67.3164 26.088L67.369 26.1046L67.4218 26.1207L67.4745 26.1361L67.5273 26.1511L67.5803 26.1655L67.6333 26.1794L67.6863 26.1927L67.7394 26.2055L67.7925 26.2177L67.8457 26.2293L67.899 26.2405L67.9522 26.2511L68.0055 26.2611L68.0588 26.2706L68.1121 26.2796L68.1655 26.288L68.2189 26.2959L68.272 26.3031L68.3254 26.3099L68.3787 26.3161L68.432 26.3219L68.4853 26.327L68.5386 26.3316L68.5918 26.3357L68.6449 26.3392L68.698 26.3422L68.751 26.3447L68.804 26.3467L68.857 26.3481L68.9098 26.349L68.9625 26.3493L69.0152 26.3491L69.0678 26.3485L69.1204 26.3472L69.1729 26.3455L69.225 26.3433L69.2772 26.3405L69.3295 26.3372L69.3813 26.3334L69.4332 26.3291L69.4849 26.3243L69.5365 26.3191L69.588 26.3131L69.6391 26.3069L69.6904 26.3001L69.7413 26.2927L69.792 26.2849L69.8429 26.2766L69.8933 26.2678L69.9436 26.2585L69.9938 26.2487L70.0438 26.2384L70.0934 26.2277L70.1429 26.2165L70.1923 26.2048L70.2415 26.1926L70.2904 26.1801L70.3391 26.167L70.3876 26.1534L70.436 26.1393L70.484 26.1249L70.5317 26.11L70.5795 26.0945L70.6268 26.0787L70.6739 26.0625L70.7207 26.0458L70.7672 26.0286L70.8137 26.011L70.8598 25.993L70.9055 25.9745L70.951 25.9557L70.9963 25.9363L71.0414 25.9166L71.086 25.8965L71.1305 25.876L71.1746 25.8551L71.2183 25.8337L71.262 25.812L71.305 25.7899L71.348 25.7673L71.3907 25.7443L71.433 25.7211L71.4749 25.6974L71.5166 25.6733L71.558 25.6489L71.5989 25.6241L71.6395 25.5989L71.6799 25.5733L71.7199 25.5475L71.7596 25.5212L71.7989 25.4947L71.8379 25.4677L71.8765 25.4404L71.9147 25.4129L71.9526 25.3849L71.9901 25.3566L72.0273 25.328L72.0641 25.2991L72.1007 25.2698L72.1367 25.2403L72.1724 25.2105L72.2077 25.1803L72.2426 25.1499L72.2772 25.1191L72.3114 25.0881L72.3452 25.0568L72.3785 25.0252L72.4116 24.9933L72.4442 24.9611L72.4765 24.9288L72.5083 24.8961L72.5397 24.8631L72.5707 24.8301L72.6014 24.7965L72.6315 24.763L72.6614 24.729L72.6908 24.6948L72.7197 24.6605L72.7484 24.6258L72.7764 24.5911L72.8042 24.556L72.8316 24.5208L72.8584 24.4853L72.885 24.4496L72.911 24.4139L72.9366 24.3777L72.9619 24.3414L72.9866 24.3051L73.011 24.2684L73.035 24.2317L73.0583 24.1948L73.0814 24.1577L73.104 24.1204L73.1262 24.083L73.148 24.0454L73.1693 24.0077L73.1902 23.9699L73.2107 23.9318L73.2307 23.8938L73.2502 23.8555L73.2694 23.8171L73.2881 23.7787L73.3064 23.74L73.3242 23.7013L73.3416 23.6625L73.3585 23.6237L73.375 23.5846L73.391 23.5456L73.4068 23.5062L73.4219 23.4672L73.4367 23.4276L73.4509 23.3886L73.4648 23.349L73.4782 23.3093L73.4911 23.2699L73.5037 23.2302L73.5158 23.1907L73.5275 23.1507L73.5386 23.1112L73.5495 23.0711L73.5598 23.0317L73.5697 22.9917L73.5791 22.9517L73.5881 22.912L73.5967 22.8723L73.6049 22.8321L73.6126 22.7924L73.6199 22.7523L73.6267 22.7127L73.6331 22.6729L73.6391 22.633L73.6447 22.5931L73.6498 22.5532L73.6545 22.5136L73.6588 22.4741L73.6626 22.4341L73.666 22.3946L73.669 22.355L73.6716 22.3154L73.6738 22.276L73.6755 22.2366L73.6768 22.1974L73.6777 22.158L73.6782 22.1186L73.6783 22.0796L73.678 22.0406L73.6772 22.0017L73.676 21.9629L73.6745 21.9239L73.6725 21.8856L73.6701 21.8465L73.6674 21.8084L73.6642 21.7701L73.6607 21.7316L73.6567 21.6935L73.6524 21.6558L73.6476 21.6175L73.6425 21.5801L73.637 21.5423L73.6311 21.5051L73.6248 21.4676L73.6181 21.4303L73.6111 21.3934L73.6038 21.3566L73.596 21.3197L73.5878 21.2832L73.5793 21.2468L73.5704 21.2106L73.5612 21.1747L73.5515 21.1385L73.5417 21.1031L73.5313 21.0672L73.5207 21.0321L73.5097 20.9969L73.4983 20.962L73.4866 20.9271L73.4745 20.8924L73.4622 20.8582L73.4495 20.8241L73.4364 20.79L73.423 20.7563L73.4093 20.7225L73.3954 20.6895L73.381 20.6561L73.3664 20.6233L73.3514 20.5908L73.3361 20.5582L73.3206 20.5261L73.3047 20.4941L73.2885 20.4622L73.272 20.4308L73.2552 20.3995L73.2382 20.3685L73.2209 20.3377L73.2031 20.3071L73.1853 20.2769L73.1671 20.2469L73.1486 20.217L73.1299 20.1876L73.1109 20.1583L73.0916 20.1293L73.072 20.1005L73.0523 20.0721L73.0322 20.0439L73.012 20.016L72.9914 19.9883L72.9706 19.961L72.9497 19.9339L72.9283 19.907L72.9069 19.8805L72.8851 19.8542L72.8632 19.8282L72.841 19.8025L72.8188 19.7771L72.7961 19.7521L72.7733 19.7272L72.7503 19.7026L72.7271 19.6784L72.7037 19.6545L72.68 19.6308L72.6563 19.6075L72.6323 19.5845L72.6082 19.5618L72.5837 19.5392L72.5593 19.5171L72.5346 19.4952L72.5098 19.4738L72.4847 19.4525L72.4595 19.4317L72.4341 19.4111L72.4087 19.3908L72.383 19.3708L72.3572 19.3511L72.3313 19.3318L72.3052 19.3127L72.279 19.294L72.2527 19.2756L72.2262 19.2574L72.1997 19.2397L72.173 19.2222L72.146 19.2051L72.1192 19.1882L72.092 19.1717L72.065 19.1555L72.0378 19.1397L72.0104 19.1241L71.9829 19.1089L71.9554 19.094L71.9279 19.0793L71.9001 19.0651L71.8725 19.0511L71.8445 19.0374L71.8167 19.0241L71.7887 19.0112L71.7607 18.9985L71.7326 18.9861L71.7043 18.9741L71.6763 18.9624L71.648 18.9511L71.6196 18.94L71.5913 18.9292L71.563 18.9188L71.5346 18.9087L71.5061 18.8989L71.4777 18.8893L71.4493 18.8802L71.4208 18.8713L71.3922 18.8628L71.3639 18.8546L71.3351 18.8467L71.3068 18.8391L71.2782 18.8319L71.2497 18.8249L71.2211 18.8182L71.1927 18.8119L71.1641 18.8059L71.1357 18.8001L71.1073 18.7947L71.079 18.7896L71.0504 18.7848L71.0222 18.7803L70.9937 18.7761L70.9656 18.7722L70.9372 18.7686L70.909 18.7653L70.881 18.7623L70.8529 18.7597L70.8249 18.7572L70.7969 18.7551L70.769 18.7533L70.741 18.7518L70.7132 18.7506L70.6857 18.7497L70.658 18.749L70.6304 18.7486L70.6029 18.7485L70.5755 18.7488L70.5481 18.7492L70.521 18.75L70.4938 18.7511L70.4669 18.7523L70.4398 18.754L70.413 18.7558L70.3863 18.7579L70.3597 18.7603L70.3332 18.763L70.3067 18.7659L70.2805 18.7691L70.2543 18.7725L70.2283 18.7762L70.2023 18.7802L70.1766 18.7844L70.1509 18.7889L70.1255 18.7936L70.1 18.7986L70.0748 18.8038L70.0496 18.8092L70.0247 18.815Z" fill="#7C7C7C"/>
</svg>
