<svg width="239" height="40" viewBox="0 0 239 40" fill="none" xmlns="http://www.w3.org/2000/svg">
<path d="M56.3587 17.828C55.8533 18.3364 55.4664 18.95 55.2253 19.6249C54.9843 20.3 54.8951 21.0199 54.964 21.7333L54.94 21.7093C55.0109 22.5492 54.8976 23.3943 54.6081 24.1859C54.3187 24.9773 53.86 25.6961 53.2641 26.2921C52.6681 26.888 51.9493 27.3468 51.1577 27.6361C50.3663 27.9256 49.5211 28.0389 48.6813 27.968L48.7053 27.992C47.7008 27.8985 46.6919 28.1171 45.816 28.618C44.9403 29.1189 44.2403 29.8777 43.8116 30.7911C43.3829 31.7044 43.2463 32.7276 43.4204 33.7215C43.5947 34.7152 44.0711 35.6311 44.7848 36.3441C45.4985 37.0572 46.4148 37.5328 47.4087 37.706C48.4027 37.8793 49.4257 37.7417 50.3387 37.3123C51.2516 36.8827 52.0097 36.1821 52.5099 35.3059C53.01 34.4296 53.2277 33.4205 53.1333 32.416L53.1587 32.44C53.0877 31.6003 53.2009 30.7551 53.4904 29.9635C53.7799 29.172 54.2387 28.4532 54.8345 27.8572C55.4305 27.2613 56.1493 26.8025 56.9408 26.5132C57.7324 26.2237 58.5775 26.1104 59.4173 26.1813L59.392 26.1573C60.2125 26.2311 61.0385 26.0965 61.7933 25.7661C62.548 25.4357 63.2072 24.9201 63.7096 24.2672C64.212 23.6143 64.5416 22.8449 64.6675 22.0308C64.7935 21.2165 64.7119 20.3837 64.4303 19.6093C64.1487 18.8351 63.6761 18.1444 63.0565 17.6013C62.4369 17.0583 61.6903 16.6804 60.8857 16.5028C60.0812 16.3252 59.2448 16.3535 58.4541 16.5851C57.6635 16.8168 56.9441 17.2443 56.3627 17.828H56.3587Z" fill="#7C7C7C"/>
<path d="M46.5227 24.848L46.4973 24.824C47.2111 24.8958 47.9319 24.8082 48.6077 24.5674C49.2835 24.3266 49.8973 23.9388 50.4048 23.4317C50.9121 22.9246 51.3007 22.311 51.5419 21.6354C51.7832 20.9598 51.8713 20.2392 51.8 19.5253L51.8253 19.5493C51.7544 18.7094 51.8677 17.8644 52.1571 17.0728C52.4465 16.2813 52.9053 15.5625 53.5012 14.9665C54.0972 14.3706 54.816 13.9118 55.6075 13.6225C56.3991 13.333 57.2441 13.2197 58.084 13.2906L58.0587 13.2666C59.0633 13.361 60.0725 13.1431 60.9488 12.6428C61.8252 12.1424 62.5257 11.3839 62.9551 10.4708C63.3844 9.55761 63.5216 8.53423 63.348 7.54022C63.1744 6.54621 62.6984 5.62997 61.9848 4.91645C61.2713 4.20294 60.3551 3.72689 59.3611 3.55326C58.3671 3.37962 57.3437 3.51683 56.4305 3.94619C55.5173 4.37554 54.7589 5.07614 54.2585 5.95242C53.7581 6.82869 53.5403 7.83798 53.6347 8.84262L53.6107 8.81729C53.6817 9.65714 53.5687 10.5024 53.2793 11.294C52.99 12.0856 52.5312 12.8046 51.9353 13.4006C51.3393 13.9965 50.6204 14.4553 49.8288 14.7446C49.0371 15.034 48.1919 15.147 47.352 15.076L47.376 15.1013C46.6623 15.0294 45.9413 15.117 45.2656 15.3578C44.5899 15.5985 43.976 15.9865 43.4685 16.4936C42.9611 17.0006 42.5727 17.6142 42.3313 18.2898C42.0901 18.9654 42.002 19.6861 42.0733 20.4L42.0493 20.376C42.12 21.2157 42.0065 22.0608 41.7171 22.8522C41.4275 23.6436 40.9688 24.3624 40.3729 24.9582C39.777 25.5541 39.0583 26.0128 38.2669 26.3024C37.4755 26.5918 36.6304 26.7053 35.7907 26.6346L35.8147 26.6586C34.81 26.5642 33.8007 26.7821 32.9245 27.2825C32.0482 27.7829 31.3476 28.5413 30.9183 29.4545C30.4889 30.3677 30.3517 31.391 30.5253 32.385C30.6989 33.379 31.175 34.2953 31.8885 35.0088C32.602 35.7224 33.5183 36.1984 34.5123 36.372C35.5063 36.5456 36.5297 36.4084 37.4428 35.979C38.356 35.5497 39.1145 34.8492 39.6148 33.9729C40.1152 33.0965 40.3331 32.0873 40.2387 31.0826L40.264 31.1066C40.1931 30.2668 40.3064 29.4217 40.5959 28.6301C40.8852 27.8386 41.344 27.1198 41.9399 26.5238C42.5359 25.928 43.2547 25.4692 44.0461 25.1798C44.8377 24.8904 45.6828 24.777 46.5227 24.848Z" fill="#7C7C7C"/>
<path d="M37.5867 22.172C38.092 21.6637 38.4789 21.0501 38.7198 20.375C38.9606 19.7 39.0495 18.98 38.98 18.2666L39.0053 18.2906C38.9344 17.4506 39.0477 16.6052 39.3373 15.8134C39.6269 15.0217 40.0859 14.3028 40.6821 13.7068C41.2784 13.1108 41.9975 12.6521 42.7893 12.3629C43.5812 12.0736 44.4267 11.9607 45.2667 12.032L45.2413 12.008C46.2456 12.1021 47.2545 11.8841 48.1304 11.3837C49.0063 10.8834 49.7064 10.1251 50.1356 9.21227C50.5647 8.29939 50.7017 7.27639 50.5281 6.28275C50.3545 5.28911 49.8785 4.37321 49.1653 3.65996C48.4521 2.94671 47.5361 2.47081 46.5425 2.29719C45.5489 2.12355 44.5259 2.26064 43.6131 2.68973C42.7001 3.11883 41.9419 3.81905 41.4416 4.69492C40.9412 5.57079 40.7232 6.57967 40.8173 7.58396L40.7933 7.55996C40.8643 8.39976 40.7509 9.24492 40.4615 10.0364C40.172 10.828 39.7134 11.5468 39.1174 12.1427C38.5215 12.7387 37.8027 13.1974 37.0111 13.4868C36.2196 13.7762 35.3745 13.8896 34.5347 13.8186L34.5587 13.8426C33.7381 13.769 32.9122 13.9038 32.1576 14.2344C31.4029 14.5649 30.7439 15.0806 30.2417 15.7337C29.7394 16.3866 29.4101 17.156 29.2842 17.9701C29.1584 18.7844 29.2401 19.6172 29.5218 20.3913C29.8035 21.1656 30.2761 21.8561 30.8957 22.399C31.5154 22.9421 32.262 23.3198 33.0665 23.4974C33.871 23.6749 34.7073 23.6465 35.498 23.4149C36.2886 23.1832 37.0079 22.7557 37.5893 22.172H37.5867Z" fill="#7C7C7C"/>
<path d="M78.8894 8.87329H82.8494V28.144H78.8894V8.87329Z" fill="#7C7C7C"/>
<path d="M85.092 21.5453C85.0865 20.1605 85.4921 18.8051 86.2575 17.6509C87.0228 16.4968 88.1135 15.5957 89.3913 15.062C90.6692 14.5281 92.0767 14.3856 93.4356 14.6524C94.7945 14.9192 96.0437 15.5832 97.0249 16.5605C98.0061 17.5377 98.6752 18.7843 98.9475 20.1421C99.2197 21.5 99.0828 22.9081 98.5541 24.1881C98.0255 25.468 97.1288 26.5624 95.9777 27.3323C94.8265 28.1023 93.4729 28.5133 92.088 28.5133C91.1688 28.5239 90.2567 28.3509 89.4049 28.0048C88.5532 27.6587 87.7791 27.1463 87.1277 26.4976C86.4763 25.8488 85.9608 25.0767 85.6113 24.2264C85.2617 23.3761 85.0852 22.4647 85.092 21.5453ZM95.124 21.5453C95.1075 20.9484 94.9153 20.3696 94.5717 19.8812C94.228 19.3929 93.748 19.0167 93.1917 18.7997C92.6353 18.5827 92.0274 18.5344 91.4438 18.6611C90.8602 18.7877 90.3269 19.0835 89.9105 19.5116C89.4943 19.9396 89.2132 20.4809 89.1029 21.0679C88.9925 21.6547 89.0575 22.2611 89.2899 22.8112C89.5223 23.3613 89.9116 23.8307 90.4092 24.1607C90.9069 24.4907 91.4909 24.6667 92.088 24.6667C92.4969 24.6776 92.9037 24.6036 93.2828 24.4495C93.6617 24.2953 94.0047 24.0644 94.2899 23.7712C94.5751 23.4779 94.7965 23.1287 94.94 22.7456C95.0836 22.3625 95.1463 21.9539 95.124 21.5453Z" fill="#7C7C7C"/>
<path d="M114.867 14.9454V27.4787C114.867 31.9134 111.408 33.788 107.897 33.788C106.661 33.8806 105.424 33.6308 104.32 33.0664C103.217 32.5019 102.29 31.6444 101.641 30.588L105.02 28.6347C105.293 29.1854 105.727 29.6396 106.265 29.9368C106.802 30.2339 107.418 30.3598 108.029 30.2974C108.42 30.3515 108.818 30.3171 109.193 30.1967C109.569 30.0763 109.913 29.873 110.199 29.6019C110.485 29.3307 110.707 28.9987 110.848 28.6302C110.989 28.2618 111.045 27.8664 111.012 27.4734V26.2667C110.548 26.834 109.958 27.2848 109.289 27.5828C108.619 27.8808 107.889 28.0178 107.157 27.9827C105.416 27.9278 103.764 27.1974 102.551 25.9459C101.339 24.6946 100.661 23.0204 100.661 21.278C100.661 19.5356 101.339 17.8615 102.551 16.6102C103.764 15.3587 105.416 14.6283 107.157 14.5734C107.889 14.5383 108.619 14.6752 109.289 14.9732C109.958 15.2712 110.548 15.722 111.012 16.2894V14.9427L114.867 14.9454ZM111.013 21.28C111.04 20.6419 110.875 20.0103 110.54 19.4667C110.204 18.923 109.714 18.4922 109.132 18.2296C108.549 17.967 107.902 17.8847 107.272 17.9932C106.643 18.1018 106.06 18.3962 105.6 18.8387C105.139 19.2811 104.821 19.8512 104.687 20.4758C104.553 21.1003 104.609 21.7507 104.848 22.3431C105.087 22.9355 105.498 23.443 106.027 23.8C106.557 24.1571 107.181 24.3475 107.82 24.3467C108.236 24.3758 108.654 24.3174 109.046 24.1752C109.438 24.0331 109.796 23.8103 110.097 23.5215C110.397 23.2326 110.635 22.8839 110.792 22.4978C110.95 22.1118 111.026 21.697 111.013 21.28Z" fill="#7C7C7C"/>
<path d="M117.109 21.5453C117.104 20.1605 117.509 18.8051 118.275 17.6509C119.04 16.4968 120.131 15.5957 121.409 15.062C122.687 14.5281 124.094 14.3856 125.453 14.6524C126.812 14.9192 128.061 15.5832 129.042 16.5605C130.023 17.5377 130.693 18.7843 130.965 20.1421C131.237 21.5 131.1 22.9081 130.571 24.1881C130.043 25.468 129.146 26.5624 127.995 27.3323C126.844 28.1023 125.49 28.5133 124.105 28.5133C123.186 28.5239 122.274 28.3509 121.422 28.0048C120.571 27.6587 119.796 27.1463 119.145 26.4976C118.494 25.8488 117.978 25.0767 117.629 24.2264C117.279 23.3761 117.103 22.4647 117.109 21.5453ZM127.141 21.5453C127.125 20.9484 126.933 20.3696 126.589 19.8812C126.245 19.3929 125.765 19.0167 125.209 18.7997C124.653 18.5827 124.045 18.5344 123.461 18.6611C122.878 18.7877 122.344 19.0835 121.928 19.5116C121.512 19.9396 121.231 20.4809 121.12 21.0679C121.01 21.6547 121.075 22.2611 121.307 22.8112C121.54 23.3613 121.929 23.8307 122.427 24.1607C122.924 24.4907 123.508 24.6667 124.105 24.6667C124.514 24.6776 124.921 24.6036 125.3 24.4495C125.679 24.2953 126.022 24.0644 126.307 23.7712C126.592 23.4779 126.814 23.1287 126.957 22.7456C127.101 22.3625 127.164 21.9539 127.141 21.5453Z" fill="#7C7C7C"/>
<path d="M132.948 11.408C132.948 10.9381 133.087 10.4787 133.348 10.088C133.609 9.69723 133.981 9.39268 134.415 9.21285C134.849 9.03301 135.327 8.98596 135.788 9.07764C136.248 9.16932 136.672 9.39561 137.004 9.72791C137.336 10.0602 137.563 10.4835 137.654 10.9445C137.746 11.4053 137.699 11.8831 137.519 12.3172C137.339 12.7514 137.035 13.1225 136.644 13.3836C136.253 13.6447 135.794 13.784 135.324 13.784C134.696 13.7777 134.095 13.5255 133.651 13.0812C133.207 12.6369 132.954 12.0362 132.948 11.408ZM133.348 14.9453H137.309V28.1453H133.343L133.348 14.9453Z" fill="#7C7C7C"/>
<path d="M154.408 21.5453C154.454 22.4177 154.327 23.2905 154.034 24.1136C153.741 24.9366 153.289 25.6937 152.702 26.3413C152.116 26.9888 151.407 27.5141 150.617 27.8869C149.827 28.2596 148.971 28.4725 148.099 28.5133C147.365 28.5533 146.631 28.4296 145.951 28.151C145.271 27.8724 144.662 27.446 144.167 26.9026V33.424H140.207V14.9453H144.167V16.1853C144.662 15.6424 145.271 15.2162 145.951 14.938C146.632 14.6596 147.365 14.536 148.099 14.576C148.971 14.6166 149.828 14.8294 150.618 15.2022C151.408 15.575 152.117 16.1004 152.703 16.7481C153.29 17.3958 153.742 18.1532 154.035 18.9765C154.327 19.7997 154.454 20.6728 154.408 21.5453ZM150.448 21.5453C150.433 20.9276 150.235 20.3281 149.881 19.8218C149.526 19.3157 149.03 18.9253 148.455 18.6997C147.88 18.474 147.251 18.4229 146.647 18.553C146.042 18.683 145.49 18.9884 145.059 19.4308C144.627 19.8733 144.336 20.433 144.221 21.0404C144.106 21.6476 144.173 22.275 144.413 22.8445C144.653 23.414 145.056 23.8998 145.571 24.2416C146.086 24.5832 146.69 24.7654 147.308 24.7653C147.732 24.7842 148.156 24.7132 148.551 24.5569C148.945 24.4008 149.303 24.1628 149.599 23.8588C149.896 23.5546 150.125 23.1914 150.271 22.7928C150.417 22.3941 150.478 21.9689 150.448 21.5453Z" fill="#7C7C7C"/>
<path d="M166.628 24.184C166.628 27.22 163.989 28.5133 161.139 28.5133C159.987 28.6176 158.83 28.3741 157.818 27.814C156.807 27.254 155.986 26.4033 155.463 25.372L158.893 23.4187C159.032 23.8953 159.33 24.3101 159.738 24.5935C160.145 24.8769 160.639 25.012 161.133 24.976C162.083 24.976 162.559 24.6853 162.559 24.1587C162.559 22.7053 156.064 23.472 156.064 18.9053C156.064 16.0267 158.493 14.576 161.239 14.576C162.271 14.5433 163.292 14.7881 164.197 15.2848C165.103 15.7816 165.859 16.512 166.385 17.4L163.007 19.2213C162.859 18.8756 162.612 18.5811 162.297 18.3745C161.983 18.168 161.615 18.0587 161.239 18.06C160.552 18.06 160.129 18.3267 160.129 18.7987C160.135 20.304 166.628 19.3 166.628 24.184Z" fill="#7C7C7C"/>
<path d="M181.093 14.9453V28.1453H177.133V26.904C176.676 27.4517 176.096 27.8833 175.44 28.1633C174.784 28.4433 174.072 28.5637 173.36 28.5146C170.693 28.5146 168.427 26.6146 168.427 23.048V14.9453H172.387V22.468C172.353 22.7824 172.389 23.1002 172.492 23.3993C172.593 23.6985 172.76 23.9718 172.979 24.2002C173.197 24.4286 173.463 24.6066 173.757 24.722C174.051 24.8373 174.367 24.8872 174.683 24.868C176.135 24.868 177.137 24.024 177.137 22.1493V14.9493L181.093 14.9453Z" fill="#7C7C7C"/>
<path d="M203.8 20.04V28.144H199.84V20.3826C199.84 19.0626 199.207 18.2186 197.94 18.2186C196.62 18.2186 195.88 19.1426 195.88 20.7V28.144H191.921V20.3826C191.921 19.0626 191.288 18.2186 190.02 18.2186C188.7 18.2186 187.961 19.1426 187.961 20.7V28.144H184.001V14.944H187.961V16.1573C188.372 15.619 188.911 15.1921 189.528 14.9157C190.147 14.6392 190.824 14.522 191.499 14.5746C192.176 14.5414 192.851 14.6845 193.457 14.9897C194.063 15.2948 194.579 15.7518 194.956 16.316C195.395 15.7257 195.976 15.2564 196.645 14.9518C197.315 14.6473 198.051 14.5176 198.784 14.5746C201.815 14.576 203.8 16.74 203.8 20.04Z" fill="#7C7C7C"/>
<path d="M207.149 14.864C208.772 14.864 210.088 13.5483 210.088 11.9254C210.088 10.3024 208.772 8.98669 207.149 8.98669C205.527 8.98669 204.211 10.3024 204.211 11.9254C204.211 13.5483 205.527 14.864 207.149 14.864Z" fill="#7C7C7C"/>
</svg>
