<svg width="20" height="20" viewBox="0 0 20 20" fill="none" xmlns="http://www.w3.org/2000/svg">
<path d="M7.49219 17.5H12.4922" stroke="white" stroke-width="1.5" stroke-linecap="round" stroke-linejoin="round"/>
<path d="M4.39062 8.12503C4.38958 7.38407 4.53514 6.65023 4.81892 5.96578C5.1027 5.28132 5.5191 4.65977 6.04412 4.13693C6.56914 3.61408 7.19242 3.20028 7.87805 2.91934C8.56368 2.63841 9.29812 2.4959 10.0391 2.50003C13.1328 2.52346 15.6094 5.09378 15.6094 8.19534V8.75003C15.6094 11.5469 16.1953 13.1719 16.7109 14.0625C16.7657 14.1574 16.7946 14.265 16.7947 14.3745C16.7948 14.484 16.7661 14.5916 16.7115 14.6866C16.6569 14.7815 16.5783 14.8605 16.4836 14.9155C16.3889 14.9705 16.2814 14.9996 16.1719 15H3.82812C3.7186 14.9996 3.6111 14.9705 3.51639 14.9155C3.42169 14.8605 3.3431 14.7815 3.28851 14.6866C3.23391 14.5916 3.20523 14.484 3.20532 14.3745C3.20542 14.265 3.2343 14.1574 3.28906 14.0625C3.80468 13.1719 4.39062 11.5469 4.39062 8.75003V8.12503Z" stroke="white" stroke-width="1.5" stroke-linecap="round" stroke-linejoin="round"/>
</svg>
