<svg width="40" height="40" viewBox="0 0 40 40" fill="none" xmlns="http://www.w3.org/2000/svg">
<path d="M16.25 27.5C19.0114 27.5 21.25 25.2614 21.25 22.5C21.25 19.7386 19.0114 17.5 16.25 17.5C13.4886 17.5 11.25 19.7386 11.25 22.5C11.25 25.2614 13.4886 27.5 16.25 27.5Z" stroke="#1C1C1C" stroke-width="1.5" stroke-linecap="round" stroke-linejoin="round"/>
<path opacity="0.2" d="M11.25 22.5C11.25 21.5111 11.5432 20.5444 12.0927 19.7221C12.6421 18.8999 13.423 18.259 14.3366 17.8806C15.2502 17.5022 16.2555 17.4031 17.2255 17.5961C18.1954 17.789 19.0863 18.2652 19.7855 18.9645C20.4848 19.6637 20.961 20.5546 21.1539 21.5245C21.3469 22.4945 21.2478 23.4998 20.8694 24.4134C20.491 25.327 19.8501 26.1079 19.0279 26.6573C18.2056 27.2068 17.2389 27.5 16.25 27.5H30V12.5H10V22.5H11.25Z" fill="#1C1C1C"/>
<path d="M8.34375 32.5C9.05326 31.0037 10.1728 29.7394 11.5724 28.8541C12.9719 27.9688 14.594 27.4988 16.25 27.4988C17.906 27.4988 19.5281 27.9688 20.9276 28.8541C22.3272 29.7394 23.4467 31.0037 24.1563 32.5H33.75C34.0815 32.5 34.3995 32.3683 34.6339 32.1339C34.8683 31.8995 35 31.5815 35 31.25V8.75C35 8.41848 34.8683 8.10054 34.6339 7.86612C34.3995 7.6317 34.0815 7.5 33.75 7.5H6.25C5.91848 7.5 5.60054 7.6317 5.36612 7.86612C5.1317 8.10054 5 8.41848 5 8.75V31.25C5 31.5815 5.1317 31.8995 5.36612 32.1339C5.60054 32.3683 5.91848 32.5 6.25 32.5H8.34375Z" stroke="#1C1C1C" stroke-width="1.5" stroke-linecap="round" stroke-linejoin="round"/>
<path d="M27.5 27.5H30V12.5H10V15" stroke="#1C1C1C" stroke-width="1.5" stroke-linecap="round" stroke-linejoin="round"/>
</svg>
