<svg width="21" height="20" viewBox="0 0 21 20" fill="none" xmlns="http://www.w3.org/2000/svg">
<path opacity="0.2" d="M16.625 6.25C16.625 6.88241 16.1447 7.62006 15.0022 8.24323C13.8881 8.85093 12.2977 9.25 10.5 9.25C8.70228 9.25 7.1119 8.85093 5.99778 8.24323C4.85529 7.62006 4.375 6.88241 4.375 6.25C4.375 5.61759 4.85529 4.87994 5.99778 4.25677C7.1119 3.64907 8.70228 3.25 10.5 3.25C12.2977 3.25 13.8881 3.64907 15.0022 4.25677C16.1447 4.87994 16.625 5.61759 16.625 6.25Z" fill="#32BCA3" stroke="#32BCA3" stroke-width="1.5"/>
<path d="M10.5 10C14.297 10 17.375 8.32107 17.375 6.25C17.375 4.17893 14.297 2.5 10.5 2.5C6.70304 2.5 3.625 4.17893 3.625 6.25C3.625 8.32107 6.70304 10 10.5 10Z" stroke="#32BCA3" stroke-width="1.5" stroke-linecap="round" stroke-linejoin="round"/>
<path d="M3.625 6.25V10C3.625 12.0703 6.70313 13.75 10.5 13.75C14.2969 13.75 17.375 12.0703 17.375 10V6.25" stroke="#32BCA3" stroke-width="1.5" stroke-linecap="round" stroke-linejoin="round"/>
<path d="M3.625 10V13.75C3.625 15.8203 6.70313 17.5 10.5 17.5C14.2969 17.5 17.375 15.8203 17.375 13.75V10" stroke="#32BCA3" stroke-width="1.5" stroke-linecap="round" stroke-linejoin="round"/>
</svg>
