<svg width="20" height="20" viewBox="0 0 20 20" fill="none" xmlns="http://www.w3.org/2000/svg">
<path d="M11.1875 10C11.1875 10.6558 10.6558 11.1875 10 11.1875C9.34416 11.1875 8.8125 10.6558 8.8125 10C8.8125 9.34416 9.34416 8.8125 10 8.8125C10.6558 8.8125 11.1875 9.34416 11.1875 10Z" fill="#1C1C1C" stroke="#1C1C1C" stroke-width="0.125"/>
<path d="M5 11.25C5.69036 11.25 6.25 10.6904 6.25 10C6.25 9.30964 5.69036 8.75 5 8.75C4.30964 8.75 3.75 9.30964 3.75 10C3.75 10.6904 4.30964 11.25 5 11.25Z" fill="#1C1C1C"/>
<path d="M15 11.25C15.6904 11.25 16.25 10.6904 16.25 10C16.25 9.30964 15.6904 8.75 15 8.75C14.3096 8.75 13.75 9.30964 13.75 10C13.75 10.6904 14.3096 11.25 15 11.25Z" fill="#1C1C1C"/>
</svg>
