<svg width="24" height="24" viewBox="0 0 24 24" fill="none" xmlns="http://www.w3.org/2000/svg">
<path d="M21.7501 12.0002C21.7453 14.3823 20.871 16.6807 19.2916 18.4638C17.7121 20.247 15.536 21.3922 13.172 21.6846C13.1192 21.6898 13.066 21.684 13.0155 21.6676C12.9651 21.6512 12.9186 21.6246 12.879 21.5893C12.8394 21.5541 12.8075 21.5111 12.7853 21.4629C12.7631 21.4148 12.7511 21.3626 12.7501 21.3096V14.2502H15.0001C15.1027 14.2504 15.2042 14.2296 15.2984 14.189C15.3926 14.1484 15.4774 14.0889 15.5477 14.0142C15.618 13.9395 15.6722 13.8512 15.707 13.7548C15.7419 13.6583 15.7565 13.5557 15.7501 13.4533C15.7335 13.2594 15.644 13.079 15.4995 12.9485C15.3551 12.818 15.1666 12.7471 14.972 12.7502H12.7501V10.5002C12.7501 10.1024 12.9081 9.72085 13.1894 9.43955C13.4707 9.15824 13.8523 9.00021 14.2501 9.00021H15.7501C15.8527 9.00041 15.9542 8.97957 16.0484 8.93898C16.1426 8.89839 16.2274 8.83892 16.2977 8.76423C16.368 8.68954 16.4222 8.60123 16.457 8.50476C16.4919 8.40828 16.5065 8.30569 16.5001 8.20333C16.4835 8.0094 16.394 7.82898 16.2495 7.69848C16.1051 7.56798 15.9166 7.49712 15.722 7.50021H14.2501C13.4544 7.50021 12.6914 7.81628 12.1288 8.37889C11.5662 8.94149 11.2501 9.70456 11.2501 10.5002V12.7502H9.00009C8.89753 12.75 8.79602 12.7708 8.70182 12.8114C8.60763 12.852 8.52277 12.9115 8.45248 12.9862C8.38218 13.0609 8.32796 13.1492 8.29315 13.2457C8.25834 13.3421 8.24368 13.4447 8.25009 13.5471C8.26668 13.741 8.35622 13.9214 8.50064 14.0519C8.64506 14.1824 8.8336 14.2533 9.02822 14.2502H11.2501V21.3096C11.2504 21.3621 11.2396 21.4142 11.2184 21.4623C11.1973 21.5104 11.1662 21.5536 11.1274 21.5889C11.0885 21.6243 11.0426 21.6511 10.9926 21.6676C10.9427 21.684 10.8899 21.6898 10.8376 21.6846C5.88759 21.0846 2.06259 16.7815 2.25947 11.6346C2.36998 9.09281 3.46964 6.69492 5.32372 4.95274C7.17779 3.21056 9.63941 2.2621 12.1831 2.30982C14.7269 2.35754 17.1512 3.39765 18.9386 5.20814C20.726 7.01863 21.735 9.45608 21.7501 12.0002V12.0002Z" fill="white"/>
</svg>
