<svg width="32" height="32" viewBox="0 0 32 32" fill="none" xmlns="http://www.w3.org/2000/svg">
<path opacity="0.2" d="M18.625 19.975H21.5C22.3536 19.975 23.1988 19.8069 23.9874 19.4802C24.7761 19.1536 25.4926 18.6748 26.0962 18.0712C26.6998 17.4676 27.1786 16.7511 27.5052 15.9624C27.8319 15.1738 28 14.3286 28 13.475C28.0045 13.0976 27.971 12.7207 27.9 12.35L29.95 22.9C30.0816 23.6341 29.9753 24.3911 29.6465 25.0605C29.3178 25.73 28.7838 26.2769 28.1224 26.6216C27.4609 26.9662 26.7067 27.0906 25.9697 26.9765C25.2326 26.8625 24.5513 26.516 24.025 25.9875L18.625 19.9875V19.975Z" fill="white"/>
<path d="M19 13.5H23" stroke="white" stroke-width="1.5" stroke-linecap="round" stroke-linejoin="round"/>
<path d="M9 13.5H13" stroke="white" stroke-width="1.5" stroke-linecap="round" stroke-linejoin="round"/>
<path d="M11 11.5V15.5" stroke="white" stroke-width="1.5" stroke-linecap="round" stroke-linejoin="round"/>
<path d="M21.5001 6.9625L10.5001 7C8.97224 7.00291 7.49407 7.54288 6.32412 8.52545C5.15417 9.50803 4.36691 10.8707 4.10006 12.375V12.375L2.05006 22.8875C1.91843 23.6216 2.02475 24.3786 2.35352 25.048C2.68228 25.7175 3.2163 26.2644 3.87771 26.6091C4.53911 26.9537 5.29333 27.0781 6.03038 26.964C6.76742 26.85 7.44877 26.5035 7.97506 25.975V25.975L13.3751 20L21.5001 19.9625C23.224 19.9625 24.8773 19.2777 26.0963 18.0587C27.3152 16.8397 28.0001 15.1864 28.0001 13.4625C28.0001 11.7386 27.3152 10.0853 26.0963 8.86631C24.8773 7.64732 23.224 6.9625 21.5001 6.9625V6.9625Z" stroke="white" stroke-width="1.5" stroke-linecap="round" stroke-linejoin="round"/>
<path d="M27.9 12.3375L29.95 22.8875C30.0816 23.6216 29.9753 24.3786 29.6465 25.048C29.3178 25.7175 28.7838 26.2644 28.1224 26.6091C27.4609 26.9537 26.7067 27.0781 25.9697 26.964C25.2326 26.85 24.5513 26.5035 24.025 25.975V25.975L18.625 19.975" stroke="white" stroke-width="1.5" stroke-linecap="round" stroke-linejoin="round"/>
</svg>
