<svg width="21" height="20" viewBox="0 0 21 20" fill="none" xmlns="http://www.w3.org/2000/svg">
<path opacity="0.2" d="M17.3405 11.8248C17.5283 11.6369 17.6999 11.4343 17.8536 11.219L18.4814 14.4497C18.5341 14.7497 18.4902 15.0587 18.3559 15.3322C18.2209 15.6072 18.0015 15.8318 17.7299 15.9734C17.4582 16.1149 17.1485 16.166 16.8458 16.1192C16.5486 16.0732 16.2735 15.9352 16.0591 15.7249L13.8176 13.2344H13.9375C14.5695 13.2344 15.1953 13.1099 15.7792 12.868C16.363 12.6262 16.8936 12.2717 17.3405 11.8248Z" fill="#32BCA3" stroke="#32BCA3" stroke-width="1.5"/>
<path d="M12.375 8.4375H14.875" stroke="#32BCA3" stroke-width="1.5" stroke-linecap="round" stroke-linejoin="round"/>
<path d="M6.125 8.4375H8.625" stroke="#32BCA3" stroke-width="1.5" stroke-linecap="round" stroke-linejoin="round"/>
<path d="M7.375 7.1875V9.6875" stroke="#32BCA3" stroke-width="1.5" stroke-linecap="round" stroke-linejoin="round"/>
<path d="M13.9374 4.35156L7.06242 4.375C6.10753 4.37682 5.18367 4.7143 4.45245 5.32841C3.72123 5.94252 3.2292 6.79416 3.06242 7.73437V7.73437L1.78117 14.3047C1.6989 14.7635 1.76535 15.2366 1.97083 15.655C2.1763 16.0734 2.51006 16.4153 2.92344 16.6307C3.33682 16.8461 3.80821 16.9238 4.26886 16.8525C4.72952 16.7812 5.15536 16.5647 5.48429 16.2344V16.2344L8.85929 12.5L13.9374 12.4766C15.0149 12.4766 16.0482 12.0486 16.81 11.2867C17.5719 10.5248 17.9999 9.4915 17.9999 8.41406C17.9999 7.33662 17.5719 6.30331 16.81 5.54144C16.0482 4.77957 15.0149 4.35156 13.9374 4.35156V4.35156Z" stroke="#32BCA3" stroke-width="1.5" stroke-linecap="round" stroke-linejoin="round"/>
<path d="M17.9375 7.71094L19.2188 14.3047C19.301 14.7635 19.2346 15.2366 19.0291 15.655C18.8236 16.0734 18.4899 16.4153 18.0765 16.6307C17.6631 16.8461 17.1917 16.9238 16.7311 16.8525C16.2704 16.7812 15.8446 16.5647 15.5156 16.2344V16.2344L12.1406 12.4844" stroke="#32BCA3" stroke-width="1.5" stroke-linecap="round" stroke-linejoin="round"/>
</svg>
