<svg width="20" height="20" viewBox="0 0 20 20" fill="none" xmlns="http://www.w3.org/2000/svg">
<path opacity="0.2" d="M16.125 5.3125C16.125 6.10641 15.4814 6.75 14.6875 6.75C13.8936 6.75 13.25 6.10641 13.25 5.3125C13.25 4.51859 13.8936 3.875 14.6875 3.875C15.4814 3.875 16.125 4.51859 16.125 5.3125Z" fill="#32BCA3" stroke="#32BCA3" stroke-width="1.5"/>
<path opacity="0.2" d="M6.75 5.3125C6.75 6.10641 6.10641 6.75 5.3125 6.75C4.51859 6.75 3.875 6.10641 3.875 5.3125C3.875 4.51859 4.51859 3.875 5.3125 3.875C6.10641 3.875 6.75 4.51859 6.75 5.3125Z" fill="#32BCA3" stroke="#32BCA3" stroke-width="1.5"/>
<path d="M10 16.875C11.2081 16.875 12.1875 15.8956 12.1875 14.6875C12.1875 13.4794 11.2081 12.5 10 12.5C8.79188 12.5 7.8125 13.4794 7.8125 14.6875C7.8125 15.8956 8.79188 16.875 10 16.875Z" stroke="#32BCA3" stroke-width="1.5" stroke-linecap="round" stroke-linejoin="round"/>
<path d="M14.6875 7.5C15.8956 7.5 16.875 6.52062 16.875 5.3125C16.875 4.10438 15.8956 3.125 14.6875 3.125C13.4794 3.125 12.5 4.10438 12.5 5.3125C12.5 6.52062 13.4794 7.5 14.6875 7.5Z" stroke="#32BCA3" stroke-width="1.5" stroke-linecap="round" stroke-linejoin="round"/>
<path d="M5.3125 7.5C6.52062 7.5 7.5 6.52062 7.5 5.3125C7.5 4.10438 6.52062 3.125 5.3125 3.125C4.10438 3.125 3.125 4.10438 3.125 5.3125C3.125 6.52062 4.10438 7.5 5.3125 7.5Z" stroke="#32BCA3" stroke-width="1.5" stroke-linecap="round" stroke-linejoin="round"/>
<path d="M5.31252 7.5V8.125C5.31148 8.37152 5.35928 8.6158 5.45314 8.84375C5.547 9.0717 5.68507 9.27881 5.85939 9.45313C6.0337 9.62745 6.24081 9.76552 6.46876 9.85938C6.69672 9.95324 6.941 10.001 7.18752 10H12.8125C13.059 10.001 13.3033 9.95324 13.5313 9.85938C13.7592 9.76552 13.9663 9.62745 14.1406 9.45313C14.315 9.27881 14.453 9.0717 14.5469 8.84375C14.6408 8.6158 14.6886 8.37152 14.6875 8.125V7.5" stroke="#32BCA3" stroke-width="1.5" stroke-linecap="round" stroke-linejoin="round"/>
<path d="M10 10V12.5" stroke="#32BCA3" stroke-width="1.5" stroke-linecap="round" stroke-linejoin="round"/>
</svg>
