<svg width="32" height="32" viewBox="0 0 32 32" fill="none" xmlns="http://www.w3.org/2000/svg">
<path opacity="0.2" d="M4.5 13.8625V20.6875C4.5009 20.8999 4.57112 21.1062 4.7 21.275C5.5375 22.4 9.0875 26.5 16 26.5C22.9125 26.5 26.4625 22.4 27.3 21.275C27.4289 21.1062 27.4991 20.8999 27.5 20.6875V13.8625L16 20L4.5 13.8625Z" fill="#1C1C1C"/>
<path d="M1 12L16 4L31 12L16 20L1 12Z" stroke="#1C1C1C" stroke-width="1.5" stroke-linecap="round" stroke-linejoin="round"/>
<path d="M23.5 30V16L16 12" stroke="#1C1C1C" stroke-width="1.5" stroke-linecap="round" stroke-linejoin="round"/>
<path d="M27.5 13.8625V20.6875C27.4991 20.8999 27.4289 21.1062 27.3 21.275C26.4625 22.4 22.9125 26.5 16 26.5C9.0875 26.5 5.5375 22.4 4.7 21.275C4.57112 21.1062 4.5009 20.8999 4.5 20.6875V13.8625" stroke="#1C1C1C" stroke-width="1.5" stroke-linecap="round" stroke-linejoin="round"/>
</svg>
