<svg width="32" height="32" viewBox="0 0 32 32" fill="none" xmlns="http://www.w3.org/2000/svg">
<path d="M32 10.7031C32.0001 8.54711 31.3513 6.44132 30.1384 4.66159C28.9256 2.88186 27.2052 1.51116 25.2028 0.729042C23.2004 -0.053082 21.0092 -0.210154 18.9164 0.278385C16.8234 0.766924 14.9264 1.8783 13.4737 3.46695H0V32H28.448V18.6651C29.5646 17.6631 30.4581 16.4361 31.0701 15.0641C31.6822 13.6922 31.999 12.2063 32 10.7031ZM26.5263 10.7031C26.5285 11.7362 26.2251 12.7468 25.6546 13.6069C25.084 14.4669 24.2722 15.1379 23.3215 15.5347C22.3707 15.9316 21.3242 16.0365 20.3139 15.8363C19.3039 15.6361 18.3756 15.1396 17.6467 14.4098C16.9179 13.68 16.4213 12.7497 16.2196 11.7366C16.0179 10.7235 16.1204 9.67305 16.5139 8.71837C16.9074 7.76365 17.5744 6.94756 18.4303 6.37335C19.2864 5.79915 20.2929 5.49265 21.3225 5.49264C22.7008 5.49264 24.0228 6.04126 24.9983 7.0181C25.974 7.99494 26.5235 9.32023 26.5263 10.7031ZM22.9744 26.5079H5.47369V8.95907H10.807C10.704 9.53483 10.6498 10.1183 10.6451 10.7031C10.648 13.5436 11.7738 16.267 13.7756 18.2755C15.7774 20.284 18.4915 21.4137 21.3225 21.4166C21.8761 21.4136 22.4284 21.3665 22.9744 21.2757V26.5079Z" fill="white"/>
</svg>
