<svg width="40" height="40" viewBox="0 0 40 40" fill="none" xmlns="http://www.w3.org/2000/svg">
<path d="M20 25C22.7614 25 25 22.7614 25 20C25 17.2386 22.7614 15 20 15C17.2386 15 15 17.2386 15 20C15 22.7614 17.2386 25 20 25Z" stroke="#1C1C1C" stroke-width="1.5" stroke-linecap="round" stroke-linejoin="round"/>
<path opacity="0.2" d="M20 25C22.7614 25 25 22.7614 25 20C25 17.2386 22.7614 15 20 15C17.2386 15 15 17.2386 15 20C15 22.7614 17.2386 25 20 25Z" fill="#1C1C1C"/>
<path opacity="0.2" d="M36.25 10H27.5L37.5 18.75V11.25C37.5 10.9185 37.3683 10.6005 37.1339 10.3661C36.8995 10.1317 36.5815 10 36.25 10Z" fill="#1C1C1C"/>
<path opacity="0.2" d="M36.25 30C36.5815 30 36.8995 29.8683 37.1339 29.6339C37.3683 29.3995 37.5 29.0815 37.5 28.75V21.25L27.5 30H36.25Z" fill="#1C1C1C"/>
<path opacity="0.2" d="M2.5 11.25V18.75L12.5 10H3.75C3.41848 10 3.10054 10.1317 2.86612 10.3661C2.6317 10.6005 2.5 10.9185 2.5 11.25Z" fill="#1C1C1C"/>
<path opacity="0.2" d="M2.5 28.75C2.5 29.0815 2.6317 29.3995 2.86612 29.6339C3.10054 29.8683 3.41848 30 3.75 30H12.5L2.5 21.25V28.75Z" fill="#1C1C1C"/>
<path d="M36.25 10H3.75C3.05964 10 2.5 10.5596 2.5 11.25V28.75C2.5 29.4404 3.05964 30 3.75 30H36.25C36.9404 30 37.5 29.4404 37.5 28.75V11.25C37.5 10.5596 36.9404 10 36.25 10Z" stroke="#1C1C1C" stroke-width="1.5" stroke-linecap="round" stroke-linejoin="round"/>
<path d="M27.5 10L37.5 18.75" stroke="#1C1C1C" stroke-width="1.5" stroke-linecap="round" stroke-linejoin="round"/>
<path d="M27.5 30L37.5 21.25" stroke="#1C1C1C" stroke-width="1.5" stroke-linecap="round" stroke-linejoin="round"/>
<path d="M12.5 10L2.5 18.75" stroke="#1C1C1C" stroke-width="1.5" stroke-linecap="round" stroke-linejoin="round"/>
<path d="M12.5 30L2.5 21.25" stroke="#1C1C1C" stroke-width="1.5" stroke-linecap="round" stroke-linejoin="round"/>
</svg>
