<svg width="1440" height="580" viewBox="0 0 1440 580" fill="none" xmlns="http://www.w3.org/2000/svg">
<path d="M1517.73 85.7299C1492.97 -72.3776 1254.05 -171.666 1075.05 -168.773C868.778 -165.42 791.91 -27.1592 634.652 -68.3323C491.145 -105.859 481.843 -240.26 376.385 -260.934C279.467 -279.93 126.823 -197.901 -123.011 205.671" stroke="url(#paint0_linear_650_4293)" stroke-miterlimit="10"/>
<path d="M-110.87 223.416C135.935 -174.327 288.646 -259.495 386.914 -244.11C459.745 -232.615 488.202 -167.469 545.454 -116.717C574.035 -90.5868 609.104 -71.496 647.514 -61.1581C773.327 -27.2039 847.696 -104.073 981.694 -137.545C1015.85 -146.174 1050.97 -151.019 1086.34 -151.98C1266.06 -157.416 1502.23 -71.4931 1530.63 80.8355" stroke="url(#paint1_linear_650_4293)" stroke-miterlimit="10"/>
<path d="M-98.6987 241.106C145.077 -150.778 297.768 -239.06 397.181 -227.257C470.257 -218.575 500.36 -156.55 557.712 -108.392C586.967 -83.2104 621.981 -64.6008 660.085 -53.9819C784.091 -19.4455 858.48 -88.7239 992.955 -120.67C1027.13 -128.856 1062.12 -133.711 1097.37 -135.158C1277.83 -142.618 1511.23 -70.6068 1543.27 75.9429" stroke="url(#paint2_linear_650_4293)" stroke-miterlimit="10"/>
<path d="M-86.5578 258.742C154.13 -127.202 306.889 -218.569 407.564 -210.432C480.944 -204.509 512.574 -145.659 570.114 -100.068C599.981 -75.849 634.914 -57.7094 672.685 -46.8056C795.001 -11.6875 869.145 -73.4014 1004.24 -103.794C1038.45 -111.609 1073.35 -116.504 1108.51 -118.418C1289.69 -128.202 1520.31 -69.8024 1556 70.9682" stroke="url(#paint3_linear_650_4293)" stroke-miterlimit="10"/>
<path d="M-74.4162 276.514C163.242 -103.654 315.952 -198.052 417.977 -193.579C491.573 -190.388 524.876 -134.713 582.575 -91.7718C613.075 -68.5033 647.989 -50.8141 685.489 -39.6307C806.114 -3.93104 880.103 -58.0536 1015.88 -86.9204C1050.06 -94.2887 1084.79 -99.1864 1119.77 -101.57C1301.69 -113.678 1529.54 -68.8628 1568.9 66.1287" stroke="url(#paint4_linear_650_4293)" stroke-miterlimit="10"/>
<path d="M-62.3916 294.233C172.325 -80.1047 325.086 -180.182 428.389 -176.753C502.126 -174.382 537.177 -123.958 594.977 -83.4471C626.095 -61.1705 660.989 -43.9333 698.205 -32.4544C817.14 3.82681 890.914 -42.704 1027.17 -70.0167C1061.34 -77.0108 1095.95 -81.9402 1130.8 -84.7744C1313.46 -99.3164 1538.54 -68.0029 1581.54 61.2367" stroke="url(#paint5_linear_650_4293)" stroke-miterlimit="10"/>
<path d="M-50.1035 311.95C181.437 -56.5282 334.081 -156.823 438.772 -160.063C512.715 -162.007 549.539 -113.039 607.41 -75.0953C639.111 -53.8186 673.99 -37.0233 710.922 -25.2508C828.167 11.612 901.814 -27.3549 1038.58 -53.1137C1072.74 -59.7003 1107.24 -64.6438 1141.94 -67.9246C1325.35 -84.7911 1547.65 -67.1708 1594.3 56.3715" stroke="url(#paint6_linear_650_4293)" stroke-miterlimit="10"/>
<path d="M-37.9623 329.667C190.461 -32.9791 343.114 -136.359 449.185 -143.074C523.285 -147.858 561.956 -102.367 619.841 -66.7984C652.1 -46.5417 686.978 -30.1969 723.638 -18.1568C839.163 19.315 912.684 -12.0334 1049.98 -36.3203C1081.93 -41.9368 1116.04 -47.3453 1153.08 -51.2118C1337.26 -70.4848 1556.76 -66.2572 1607.05 51.4514" stroke="url(#paint7_linear_650_4293)" stroke-miterlimit="10"/>
<path d="M-25.8203 347.385C199.632 -9.40292 352.15 -115.594 459.568 -126.302C533.856 -133.681 574.403 -91.6664 632.331 -58.5285C665.149 -39.303 700.046 -23.3742 736.442 -11.008C850.277 27.0453 923.613 3.23385 1061.48 -19.4448C1093.57 -24.7344 1127.59 -30.0879 1164.34 -34.4171C1349.03 -56.0679 1565.87 -65.3702 1619.81 46.5318" stroke="url(#paint8_linear_650_4293)" stroke-miterlimit="10"/>
<path d="M-13.6483 365.075C208.746 14.1466 361.187 -94.8833 469.983 -109.393C544.429 -119.339 586.998 -80.9117 644.677 -50.1755C678.009 -31.9924 712.922 -16.4708 749.043 -3.77586C861.217 34.8587 934.397 18.6386 1072.8 -2.62278C1104.89 -7.58464 1138.94 -12.9383 1175.4 -17.7029C1361.04 -41.8703 1574.99 -64.6466 1632.56 41.5035" stroke="url(#paint9_linear_650_4293)" stroke-miterlimit="10"/>
<path d="M-1.50691 382.793C217.828 37.6964 370.222 -74.1179 480.307 -92.5655C554.913 -105.052 599.386 -70.265 657.05 -41.8224C690.892 -24.7217 725.844 -9.61746 761.701 3.40162C872.155 42.6178 945.179 33.9617 1084.14 14.3905C1116.39 9.81015 1150.35 4.42965 1186.48 -0.742954C1372.86 -27.4258 1584.01 -63.6218 1645.29 36.7488" stroke="url(#paint10_linear_650_4293)" stroke-miterlimit="10"/>
<path d="M10.6347 400.51C226.94 61.2733 379.316 -53.3527 490.778 -75.7387C565.572 -90.7378 611.978 -59.6466 669.511 -33.4969C702.583 -18.4772 736.445 -3.32482 774.476 10.5786C883.239 50.3489 956.107 49.3113 1095.61 31.2666C1127.94 27.0408 1161.85 21.6333 1197.74 16.0523C1384.86 -13.146 1593.24 -62.7617 1658.13 31.857" stroke="url(#paint11_linear_650_4293)" stroke-miterlimit="10"/>
<path d="M22.778 418.228C236.055 84.9325 388.208 -32.5313 501.163 -58.8835C576.145 -76.4227 624.572 -49.0821 681.944 -25.1707C715.799 -11.0559 749.746 3.65915 787.194 17.7564C894.267 58.1901 966.95 64.6346 1107.01 48.1434C1139.44 44.2995 1173.32 38.8649 1208.82 32.8489C1396.66 1.08082 1602.3 -61.9 1670.83 26.9667" stroke="url(#paint12_linear_650_4293)" stroke-miterlimit="10"/>
<path d="M34.8616 435.946C245.137 108.401 397.42 -11.6839 511.546 -42.0278C586.717 -62.0252 637.164 -38.5443 694.376 -16.8166C729.043 -3.66142 763.046 10.6437 799.794 24.9628C905.205 65.8957 977.674 80.0134 1118.42 65.0754C1150.97 61.5585 1184.75 56.097 1219.97 49.7003C1408.55 15.3077 1611.41 -61.0379 1683.59 22.0768" stroke="url(#paint13_linear_650_4293)" stroke-miterlimit="10"/>
<path d="M47.0933 453.636C254.252 131.951 406.43 9.21937 521.961 -25.1994C597.35 -47.6822 649.787 -28.0883 706.781 -8.51659C742.259 3.65159 776.376 17.6011 812.629 32.1136C916.292 73.6281 988.663 95.3092 1129.83 81.9255C1163.86 78.3659 1197.68 73.1799 1231.14 66.3879C1420.41 29.5075 1620.61 -60.1211 1696.34 17.1601" stroke="url(#paint14_linear_650_4293)" stroke-miterlimit="10"/>
<path d="M59.2357 471.354C263.365 155.529 415.671 30.0401 532.258 -8.3697C607.864 -33.3107 662.321 -17.6584 719.242 -0.188775C755.532 10.9651 789.705 24.5593 825.346 39.2931C927.348 81.3887 999.533 110.661 1141.18 98.8038C1175.18 95.6577 1208.93 90.4683 1242.22 83.2676C1432.26 43.5443 1629.63 -59.2572 1709.13 12.1622" stroke="url(#paint15_linear_650_4293)" stroke-miterlimit="10"/>
<path d="M71.3787 489.071C272.449 179.08 424.913 51.0524 542.759 8.4595C618.525 -18.8846 675.029 -7.28327 731.646 8.11264C768.746 18.225 802.976 31.5458 838.034 46.4733C938.316 89.1503 1010.37 125.985 1152.64 115.682C1186.62 112.914 1220.31 107.693 1253.43 100.065C1444.09 57.7728 1638.75 -58.3655 1721.89 7.38383" stroke="url(#paint16_linear_650_4293)" stroke-miterlimit="10"/>
<path d="M83.5579 506.789C281.569 202.776 433.928 71.9965 553.149 25.3306C629.22 -4.47115 687.655 3.05245 744.054 16.4558C782.082 25.4712 816.281 38.5186 850.755 53.6668C949.346 96.8691 1021.22 141.348 1164.05 132.598C1197.99 130.191 1231.64 124.938 1264.57 116.902C1455.92 71.9048 1647.86 -57.4844 1734.64 2.5113" stroke="url(#paint17_linear_650_4293)" stroke-miterlimit="10"/>
<path d="M95.7062 524.507C290.54 226.227 443.116 92.9945 563.566 42.2839C639.885 10.0796 700.25 13.4712 756.49 24.9637C795.242 32.9651 829.643 45.6834 863.476 61.0253C960.377 104.862 1032.09 156.875 1175.46 149.597C1209.37 147.552 1242.96 142.265 1275.72 133.821C1467.74 86.092 1657.12 -56.4112 1747.4 -2.24987" stroke="url(#paint18_linear_650_4293)" stroke-miterlimit="10"/>
<path d="M107.855 542.224C299.776 249.812 452.334 113.991 573.954 59.0452C650.578 24.411 712.844 23.6163 768.925 33.1436C808.487 39.885 842.916 52.5208 876.196 68.1105C971.376 112.527 1042.94 172.101 1186.87 166.432C1220.74 164.761 1254.29 159.44 1286.86 150.575C1479.54 100.033 1666.09 -55.6915 1760.15 -7.22892" stroke="url(#paint19_linear_650_4293)" stroke-miterlimit="10"/>
<path d="M120.035 559.915C308.896 273.37 461.555 135.123 584.257 75.8882C661.157 38.8789 725.294 33.8438 781.217 41.488C821.588 46.9967 856.104 59.4951 888.771 75.2238C982.29 120.248 1053.69 187.409 1198.16 183.266C1232 181.942 1265.53 176.587 1297.92 167.329C1491.1 113.756 1675.08 -54.7804 1772.85 -12.1249" stroke="url(#paint20_linear_650_4293)" stroke-miterlimit="10"/>
<path d="M132.155 577.632C433.696 122.067 648.337 34.7066 793.77 49.8308C952.531 66.3369 1013.96 203.645 1209.68 200.18C1439.29 196.087 1667.13 -60.1471 1785.67 -16.9937" stroke="url(#paint21_linear_650_4293)" stroke-miterlimit="10"/>
<defs>
<linearGradient id="paint0_linear_650_4293" x1="694.729" y1="-265.134" x2="697.003" y2="201.676" gradientUnits="userSpaceOnUse">
<stop stop-color="#515151"/>
<stop offset="1" stop-color="#515151" stop-opacity="0"/>
</linearGradient>
<linearGradient id="paint1_linear_650_4293" x1="707.322" y1="-247.46" x2="709.597" y2="219.418" gradientUnits="userSpaceOnUse">
<stop stop-color="#515151"/>
<stop offset="1" stop-color="#515151" stop-opacity="0"/>
</linearGradient>
<linearGradient id="paint2_linear_650_4293" x1="719.8" y1="-229.92" x2="722.075" y2="237.107" gradientUnits="userSpaceOnUse">
<stop stop-color="#515151"/>
<stop offset="1" stop-color="#515151" stop-opacity="0"/>
</linearGradient>
<linearGradient id="paint3_linear_650_4293" x1="732.304" y1="-212.561" x2="734.58" y2="254.741" gradientUnits="userSpaceOnUse">
<stop stop-color="#515151"/>
<stop offset="1" stop-color="#515151" stop-opacity="0"/>
</linearGradient>
<linearGradient id="paint4_linear_650_4293" x1="744.894" y1="-195.357" x2="747.174" y2="272.511" gradientUnits="userSpaceOnUse">
<stop stop-color="#515151"/>
<stop offset="1" stop-color="#515151" stop-opacity="0"/>
</linearGradient>
<linearGradient id="paint5_linear_650_4293" x1="757.293" y1="-178.467" x2="759.577" y2="290.228" gradientUnits="userSpaceOnUse">
<stop stop-color="#515151"/>
<stop offset="1" stop-color="#515151" stop-opacity="0"/>
</linearGradient>
<linearGradient id="paint6_linear_650_4293" x1="769.882" y1="-161.714" x2="772.17" y2="307.944" gradientUnits="userSpaceOnUse">
<stop stop-color="#515151"/>
<stop offset="1" stop-color="#515151" stop-opacity="0"/>
</linearGradient>
<linearGradient id="paint7_linear_650_4293" x1="782.396" y1="-144.995" x2="784.689" y2="325.659" gradientUnits="userSpaceOnUse">
<stop stop-color="#515151"/>
<stop offset="1" stop-color="#515151" stop-opacity="0"/>
</linearGradient>
<linearGradient id="paint8_linear_650_4293" x1="794.908" y1="-128.708" x2="797.208" y2="343.375" gradientUnits="userSpaceOnUse">
<stop stop-color="#515151"/>
<stop offset="1" stop-color="#515151" stop-opacity="0"/>
</linearGradient>
<linearGradient id="paint9_linear_650_4293" x1="807.435" y1="-112.526" x2="809.743" y2="361.064" gradientUnits="userSpaceOnUse">
<stop stop-color="#515151"/>
<stop offset="1" stop-color="#515151" stop-opacity="0"/>
</linearGradient>
<linearGradient id="paint10_linear_650_4293" x1="819.929" y1="-96.6872" x2="822.246" y2="378.78" gradientUnits="userSpaceOnUse">
<stop stop-color="#515151"/>
<stop offset="1" stop-color="#515151" stop-opacity="0"/>
</linearGradient>
<linearGradient id="paint11_linear_650_4293" x1="832.48" y1="-81.1375" x2="834.807" y2="396.495" gradientUnits="userSpaceOnUse">
<stop stop-color="#515151"/>
<stop offset="1" stop-color="#515151" stop-opacity="0"/>
</linearGradient>
<linearGradient id="paint12_linear_650_4293" x1="844.958" y1="-65.9087" x2="847.297" y2="414.211" gradientUnits="userSpaceOnUse">
<stop stop-color="#515151"/>
<stop offset="1" stop-color="#515151" stop-opacity="0"/>
</linearGradient>
<linearGradient id="paint13_linear_650_4293" x1="857.431" y1="-51.025" x2="859.784" y2="431.927" gradientUnits="userSpaceOnUse">
<stop stop-color="#515151"/>
<stop offset="1" stop-color="#515151" stop-opacity="0"/>
</linearGradient>
<linearGradient id="paint14_linear_650_4293" x1="869.977" y1="-36.6145" x2="872.346" y2="449.615" gradientUnits="userSpaceOnUse">
<stop stop-color="#515151"/>
<stop offset="1" stop-color="#515151" stop-opacity="0"/>
</linearGradient>
<linearGradient id="paint15_linear_650_4293" x1="882.489" y1="-22.6808" x2="884.876" y2="467.331" gradientUnits="userSpaceOnUse">
<stop stop-color="#515151"/>
<stop offset="1" stop-color="#515151" stop-opacity="0"/>
</linearGradient>
<linearGradient id="paint16_linear_650_4293" x1="894.983" y1="-9.29052" x2="897.391" y2="485.047" gradientUnits="userSpaceOnUse">
<stop stop-color="#515151"/>
<stop offset="1" stop-color="#515151" stop-opacity="0"/>
</linearGradient>
<linearGradient id="paint17_linear_650_4293" x1="907.41" y1="-9.32877" x2="909.905" y2="502.763" gradientUnits="userSpaceOnUse">
<stop stop-color="#515151"/>
<stop offset="1" stop-color="#515151" stop-opacity="0"/>
</linearGradient>
<linearGradient id="paint18_linear_650_4293" x1="919.812" y1="-10.5546" x2="922.399" y2="520.48" gradientUnits="userSpaceOnUse">
<stop stop-color="#515151"/>
<stop offset="1" stop-color="#515151" stop-opacity="0"/>
</linearGradient>
<linearGradient id="paint19_linear_650_4293" x1="932.21" y1="-12.6305" x2="934.893" y2="538.196" gradientUnits="userSpaceOnUse">
<stop stop-color="#515151"/>
<stop offset="1" stop-color="#515151" stop-opacity="0"/>
</linearGradient>
<linearGradient id="paint20_linear_650_4293" x1="944.592" y1="-15.1086" x2="947.374" y2="555.885" gradientUnits="userSpaceOnUse">
<stop stop-color="#515151"/>
<stop offset="1" stop-color="#515151" stop-opacity="0"/>
</linearGradient>
<linearGradient id="paint21_linear_650_4293" x1="957" y1="-17.9977" x2="959.881" y2="573.601" gradientUnits="userSpaceOnUse">
<stop stop-color="#515151"/>
<stop offset="1" stop-color="#515151" stop-opacity="0"/>
</linearGradient>
</defs>
</svg>
