<svg width="1440" height="607" viewBox="0 0 1440 607" fill="none" xmlns="http://www.w3.org/2000/svg">
<path d="M1480.77 116.434C1456.06 -50.0576 1217.15 -154.546 1038.13 -151.449C831.835 -147.858 754.917 -2.23766 597.658 -45.5506C454.15 -85.0276 444.89 -226.558 339.429 -248.299C242.509 -268.275 89.8258 -181.85 -160.158 243.212" stroke="url(#paint0_linear_722_5795)" stroke-miterlimit="10"/>
<path d="M-148.018 261.916C98.935 -157.005 251.686 -246.738 349.958 -230.564C422.792 -218.48 451.231 -149.885 508.472 -96.4556C537.047 -68.9473 572.114 -48.8535 610.523 -37.9781C736.337 -2.25814 810.737 -83.2278 944.757 -118.515C978.917 -127.612 1014.05 -132.724 1049.42 -133.746C1229.15 -139.522 1465.32 -49.1075 1493.67 111.297" stroke="url(#paint1_linear_722_5795)" stroke-miterlimit="10"/>
<path d="M-135.846 280.563C108.075 -132.189 260.807 -225.199 360.226 -212.799C433.306 -203.677 463.391 -138.369 520.733 -87.6716C549.983 -61.1619 584.994 -41.5748 623.098 -30.4034C747.104 5.93015 821.521 -67.0462 956.018 -100.726C990.198 -109.356 1025.19 -114.479 1060.45 -116.014C1240.92 -123.921 1474.32 -48.1555 1506.32 106.162" stroke="url(#paint2_linear_722_5795)" stroke-miterlimit="10"/>
<path d="M-123.706 299.152C117.126 -107.343 269.928 -203.603 370.609 -195.062C443.993 -188.847 475.607 -126.882 533.138 -78.8885C563 -53.393 597.93 -34.3007 635.701 -22.8291C758.016 14.1174 832.187 -50.8929 967.307 -82.9373C1001.52 -91.177 1036.42 -96.3417 1071.59 -98.3677C1252.78 -108.723 1483.41 -47.2904 1519.06 100.941" stroke="url(#paint3_linear_722_5795)" stroke-miterlimit="10"/>
<path d="M-111.564 317.885C126.236 -82.5267 278.989 -181.978 381.021 -177.298C454.623 -173.958 487.912 -115.338 545.602 -70.1346C576.097 -45.64 611.009 -27.0221 648.508 -15.256C769.133 22.3036 843.145 -34.7126 978.946 -65.1504C1013.13 -72.9197 1047.86 -78.0873 1082.85 -80.6075C1264.79 -93.4108 1492.64 -46.2824 1531.96 95.8618" stroke="url(#paint4_linear_722_5795)" stroke-miterlimit="10"/>
<path d="M-99.5398 336.562C135.316 -57.7098 288.123 -163.142 391.433 -159.561C465.176 -157.085 500.215 -103.996 558.007 -61.3514C589.121 -37.9014 624.012 -19.7594 661.227 -7.68205C780.162 30.4904 853.957 -18.5311 990.235 -47.3326C1024.41 -54.7076 1059.02 -59.9086 1093.87 -62.9033C1276.56 -78.2697 1501.64 -45.3591 1544.61 90.7272" stroke="url(#paint5_linear_722_5795)" stroke-miterlimit="10"/>
<path d="M-87.252 355.237C144.426 -32.8642 297.115 -138.526 401.816 -141.968C475.766 -144.037 512.578 -92.4803 570.442 -52.5393C602.139 -30.1425 637.016 -12.4659 673.948 -0.0791693C791.191 38.7063 864.858 -2.3499 1001.64 -29.5152C1035.81 -36.4612 1070.31 -41.677 1105.02 -45.1419C1288.45 -62.9564 1510.76 -44.4649 1557.37 85.6208" stroke="url(#paint6_linear_722_5795)" stroke-miterlimit="10"/>
<path d="M-75.1111 373.912C153.448 -8.04747 306.147 -116.958 412.229 -124.06C486.337 -129.119 524.997 -81.2247 582.876 -43.7853C615.131 -22.4627 650.007 -5.26051 686.667 7.40809C802.19 46.8354 875.728 13.8021 1013.05 -11.8134C1045 -17.7372 1079.11 -23.4426 1116.16 -27.525C1300.36 -47.8739 1519.88 -43.4851 1570.14 80.4564" stroke="url(#paint7_linear_722_5795)" stroke-miterlimit="10"/>
<path d="M-62.9695 392.588C162.616 16.7977 315.181 -95.0737 422.612 -106.381C496.909 -114.173 537.447 -69.94 595.369 -35.0599C628.183 -14.8234 663.079 1.94078 699.474 14.9529C813.307 54.9932 886.657 29.8968 1024.54 5.97468C1056.64 0.395163 1090.67 -5.25229 1127.42 -9.82188C1312.13 -32.6751 1529 -42.5335 1582.9 75.2925" stroke="url(#paint8_linear_722_5795)" stroke-miterlimit="10"/>
<path d="M-50.7981 411.234C171.727 41.6143 324.216 -73.2469 433.026 -88.558C507.483 -99.0538 550.043 -58.5986 607.718 -26.2475C641.047 -7.10888 675.958 9.22661 712.079 22.585C824.25 63.238 897.441 46.1359 1035.86 23.7061C1067.96 18.4716 1102.02 12.824 1138.47 7.79591C1324.14 -17.7077 1538.11 -41.7545 1595.66 70.0135" stroke="url(#paint9_linear_722_5795)" stroke-miterlimit="10"/>
<path d="M-38.6572 429.91C180.807 66.4313 333.25 -51.3623 443.351 -70.8209C517.967 -83.9915 562.433 -47.3709 620.093 -17.435C653.933 0.563694 688.883 16.4596 724.739 30.1595C835.191 71.4256 908.224 62.289 1047.21 41.6388C1079.46 36.8061 1113.43 31.1302 1149.56 25.6726C1335.97 -2.48026 1547.14 -40.6585 1608.4 65.0225" stroke="url(#paint10_linear_722_5795)" stroke-miterlimit="10"/>
<path d="M-26.5164 448.585C189.916 91.2767 342.342 -29.4784 453.821 -53.0848C528.626 -68.9018 575.027 -36.1734 632.557 -8.65205C665.627 7.15551 699.487 23.1026 737.517 37.7331C846.277 79.5835 919.152 78.4698 1058.67 59.4269C1091.01 54.9675 1124.92 49.2632 1160.82 43.3756C1347.97 12.5734 1556.38 -39.7363 1621.25 59.8868" stroke="url(#paint11_linear_722_5795)" stroke-miterlimit="10"/>
<path d="M-14.3738 467.261C199.028 116.208 351.232 -7.53566 464.205 -35.3194C539.2 -53.8114 587.623 -25.0331 644.993 0.131254C678.846 14.9857 712.791 30.4722 750.238 45.3072C857.308 87.8567 929.995 94.6224 1070.08 77.2154C1102.51 73.158 1136.39 67.4251 1171.9 61.0796C1359.77 27.5708 1565.44 -38.813 1633.95 54.752" stroke="url(#paint12_linear_722_5795)" stroke-miterlimit="10"/>
<path d="M-2.29115 485.937C208.107 140.939 360.442 14.4345 474.588 -17.5535C549.772 -38.6343 600.217 -13.9212 657.427 8.94375C692.093 22.7874 726.094 37.8423 762.841 52.9111C868.249 95.9871 940.72 110.834 1081.48 95.0618C1114.03 91.3489 1147.83 85.5877 1183.04 78.8412C1371.65 42.5681 1574.56 -37.8896 1646.72 49.6175" stroke="url(#paint13_linear_722_5795)" stroke-miterlimit="10"/>
<path d="M9.9396 504.583C217.219 165.756 369.449 36.4631 485.003 0.183368C560.405 -23.5151 612.841 -2.89576 669.834 17.6989C705.312 30.503 739.427 45.1835 775.679 60.4562C879.338 104.145 951.709 126.957 1092.89 112.822C1126.93 109.064 1160.75 103.592 1194.22 96.4301C1383.51 57.5368 1583.76 -36.9091 1659.48 44.4542" stroke="url(#paint14_linear_722_5795)" stroke-miterlimit="10"/>
<path d="M22.0808 523.259C226.329 190.602 378.688 58.4044 495.298 17.9211C570.919 -8.36628 625.376 8.10164 682.298 26.4827C718.587 38.2185 752.759 52.5248 788.398 68.0309C890.396 112.333 962.579 143.139 1104.24 130.611C1138.25 127.288 1172.01 121.814 1205.3 114.221C1395.37 72.3331 1592.79 -35.9849 1672.27 39.2047" stroke="url(#paint15_linear_722_5795)" stroke-miterlimit="10"/>
<path d="M34.2224 541.934C235.409 215.419 387.929 80.5467 505.798 35.6574C581.58 6.83896 638.086 19.0403 694.703 35.2377C731.804 45.8766 766.033 59.895 801.089 75.6054C901.367 120.52 973.421 159.291 1115.7 148.4C1149.68 145.475 1183.38 139.966 1216.5 131.924C1407.2 87.3306 1601.91 -35.0327 1685.04 34.1851" stroke="url(#paint16_linear_722_5795)" stroke-miterlimit="10"/>
<path d="M46.3959 560.609C244.523 240.382 396.938 102.607 516.184 53.4266C592.272 22.019 650.711 29.9257 707.111 44.0252C745.14 53.5088 779.338 67.2398 813.811 83.1832C912.398 128.653 984.264 175.476 1127.11 166.22C1161.06 163.675 1194.71 158.133 1227.65 149.66C1419.02 102.216 1611.03 -34.1051 1697.8 29.0544" stroke="url(#paint17_linear_722_5795)" stroke-miterlimit="10"/>
<path d="M58.5383 579.285C253.486 265.087 406.12 124.725 526.598 71.2824C602.934 37.3435 663.304 40.898 719.547 52.9856C758.3 61.4013 792.7 74.7861 826.532 90.9342C923.428 137.074 995.136 191.833 1138.52 184.127C1172.43 181.962 1206.03 176.385 1238.79 167.482C1430.85 117.16 1620.29 -32.9763 1710.56 24.0395" stroke="url(#paint18_linear_722_5795)" stroke-miterlimit="10"/>
<path d="M70.6812 597.961C262.714 289.934 415.332 146.841 536.981 88.9363C613.624 52.4371 675.897 51.5822 731.981 61.6003C771.544 68.689 805.973 81.9873 839.251 98.397C934.428 145.15 1005.98 207.873 1149.92 201.861C1183.8 200.091 1217.36 194.478 1249.93 185.131C1442.65 131.844 1629.26 -32.2202 1723.32 18.7941" stroke="url(#paint19_linear_722_5795)" stroke-miterlimit="10"/>
<path d="M82.8545 616.607C271.827 314.752 424.546 169.101 547.279 106.677C624.2 67.6751 688.345 62.3535 744.272 70.3886C784.645 76.179 819.161 89.3329 851.827 105.89C945.341 153.284 1016.73 224 1161.21 219.595C1195.06 218.191 1228.59 212.541 1260.99 202.781C1454.21 146.3 1638.26 -31.2627 1736.03 13.6357" stroke="url(#paint20_linear_722_5795)" stroke-miterlimit="10"/>
<path d="M94.9684 635.283C396.687 155.363 611.38 63.287 756.824 79.175C915.597 96.5146 976.987 241.12 1172.74 237.414C1402.37 233.036 1630.31 -36.9128 1748.85 8.50525" stroke="url(#paint21_linear_722_5795)" stroke-miterlimit="10"/>
<defs>
<linearGradient id="paint0_linear_722_5795" x1="657.803" y1="-252.814" x2="660.466" y2="238.766" gradientUnits="userSpaceOnUse">
<stop stop-color="#515151"/>
<stop offset="1" stop-color="#515151" stop-opacity="0"/>
</linearGradient>
<linearGradient id="paint1_linear_722_5795" x1="670.396" y1="-234.184" x2="673.06" y2="257.468" gradientUnits="userSpaceOnUse">
<stop stop-color="#515151"/>
<stop offset="1" stop-color="#515151" stop-opacity="0"/>
</linearGradient>
<linearGradient id="paint2_linear_722_5795" x1="682.873" y1="-215.695" x2="685.538" y2="276.113" gradientUnits="userSpaceOnUse">
<stop stop-color="#515151"/>
<stop offset="1" stop-color="#515151" stop-opacity="0"/>
</linearGradient>
<linearGradient id="paint3_linear_722_5795" x1="695.378" y1="-197.399" x2="698.044" y2="294.7" gradientUnits="userSpaceOnUse">
<stop stop-color="#515151"/>
<stop offset="1" stop-color="#515151" stop-opacity="0"/>
</linearGradient>
<linearGradient id="paint4_linear_722_5795" x1="707.968" y1="-179.264" x2="710.638" y2="313.431" gradientUnits="userSpaceOnUse">
<stop stop-color="#515151"/>
<stop offset="1" stop-color="#515151" stop-opacity="0"/>
</linearGradient>
<linearGradient id="paint5_linear_722_5795" x1="720.367" y1="-161.46" x2="723.041" y2="332.105" gradientUnits="userSpaceOnUse">
<stop stop-color="#515151"/>
<stop offset="1" stop-color="#515151" stop-opacity="0"/>
</linearGradient>
<linearGradient id="paint6_linear_722_5795" x1="732.956" y1="-143.802" x2="735.636" y2="350.778" gradientUnits="userSpaceOnUse">
<stop stop-color="#515151"/>
<stop offset="1" stop-color="#515151" stop-opacity="0"/>
</linearGradient>
<linearGradient id="paint7_linear_722_5795" x1="745.47" y1="-126.179" x2="748.156" y2="369.452" gradientUnits="userSpaceOnUse">
<stop stop-color="#515151"/>
<stop offset="1" stop-color="#515151" stop-opacity="0"/>
</linearGradient>
<linearGradient id="paint8_linear_722_5795" x1="757.983" y1="-109.011" x2="760.676" y2="388.125" gradientUnits="userSpaceOnUse">
<stop stop-color="#515151"/>
<stop offset="1" stop-color="#515151" stop-opacity="0"/>
</linearGradient>
<linearGradient id="paint9_linear_722_5795" x1="770.51" y1="-91.9542" x2="773.212" y2="406.77" gradientUnits="userSpaceOnUse">
<stop stop-color="#515151"/>
<stop offset="1" stop-color="#515151" stop-opacity="0"/>
</linearGradient>
<linearGradient id="paint10_linear_722_5795" x1="783.005" y1="-75.2592" x2="785.717" y2="425.443" gradientUnits="userSpaceOnUse">
<stop stop-color="#515151"/>
<stop offset="1" stop-color="#515151" stop-opacity="0"/>
</linearGradient>
<linearGradient id="paint11_linear_722_5795" x1="795.556" y1="-58.8687" x2="798.281" y2="444.117" gradientUnits="userSpaceOnUse">
<stop stop-color="#515151"/>
<stop offset="1" stop-color="#515151" stop-opacity="0"/>
</linearGradient>
<linearGradient id="paint12_linear_722_5795" x1="808.034" y1="-42.8166" x2="810.773" y2="462.79" gradientUnits="userSpaceOnUse">
<stop stop-color="#515151"/>
<stop offset="1" stop-color="#515151" stop-opacity="0"/>
</linearGradient>
<linearGradient id="paint13_linear_722_5795" x1="820.508" y1="-27.128" x2="823.263" y2="481.464" gradientUnits="userSpaceOnUse">
<stop stop-color="#515151"/>
<stop offset="1" stop-color="#515151" stop-opacity="0"/>
</linearGradient>
<linearGradient id="paint14_linear_722_5795" x1="833.054" y1="-11.9381" x2="835.828" y2="500.109" gradientUnits="userSpaceOnUse">
<stop stop-color="#515151"/>
<stop offset="1" stop-color="#515151" stop-opacity="0"/>
</linearGradient>
<linearGradient id="paint15_linear_722_5795" x1="845.567" y1="2.74908" x2="848.362" y2="518.782" gradientUnits="userSpaceOnUse">
<stop stop-color="#515151"/>
<stop offset="1" stop-color="#515151" stop-opacity="0"/>
</linearGradient>
<linearGradient id="paint16_linear_722_5795" x1="858.061" y1="16.8631" x2="860.882" y2="537.455" gradientUnits="userSpaceOnUse">
<stop stop-color="#515151"/>
<stop offset="1" stop-color="#515151" stop-opacity="0"/>
</linearGradient>
<linearGradient id="paint17_linear_722_5795" x1="870.491" y1="16.8232" x2="873.413" y2="556.129" gradientUnits="userSpaceOnUse">
<stop stop-color="#515151"/>
<stop offset="1" stop-color="#515151" stop-opacity="0"/>
</linearGradient>
<linearGradient id="paint18_linear_722_5795" x1="882.896" y1="15.5313" x2="885.926" y2="574.803" gradientUnits="userSpaceOnUse">
<stop stop-color="#515151"/>
<stop offset="1" stop-color="#515151" stop-opacity="0"/>
</linearGradient>
<linearGradient id="paint19_linear_722_5795" x1="895.297" y1="13.3435" x2="898.44" y2="593.476" gradientUnits="userSpaceOnUse">
<stop stop-color="#515151"/>
<stop offset="1" stop-color="#515151" stop-opacity="0"/>
</linearGradient>
<linearGradient id="paint20_linear_722_5795" x1="907.683" y1="10.7317" x2="910.941" y2="612.121" gradientUnits="userSpaceOnUse">
<stop stop-color="#515151"/>
<stop offset="1" stop-color="#515151" stop-opacity="0"/>
</linearGradient>
<linearGradient id="paint21_linear_722_5795" x1="920.093" y1="7.68632" x2="923.469" y2="630.794" gradientUnits="userSpaceOnUse">
<stop stop-color="#515151"/>
<stop offset="1" stop-color="#515151" stop-opacity="0"/>
</linearGradient>
</defs>
</svg>
