<svg width="1171" height="511" viewBox="0 0 1171 511" fill="none" xmlns="http://www.w3.org/2000/svg">
<path d="M952.836 23.5052C921.461 -79.3895 763.049 -122.537 652.186 -103.407C524.43 -81.3483 490.688 18.0993 388.866 5.79901C295.952 -5.39502 276.575 -93.9904 208.995 -97.6204C146.887 -100.954 60.3991 -31.6648 -53.9038 261.062" stroke="url(#paint0_linear_607_5584)" stroke-miterlimit="10"/>
<path d="M-44.5612 271.765C68.4505 -16.7882 154.663 -88.1743 217.243 -87.375C263.634 -86.7211 287.898 -46.0795 328.587 -17.7889C348.979 -3.13766 372.688 6.20315 397.586 9.39489C479.151 19.9108 517.554 -38.4193 597.377 -73.5855C617.714 -82.6134 639.035 -89.2151 660.902 -93.2549C771.952 -114.147 927.308 -79.6351 960.36 19.0615" stroke="url(#paint1_linear_607_5584)" stroke-miterlimit="10"/>
<path d="M-35.205 282.429C76.5183 -1.93296 162.403 -75.3896 225.332 -77.0858C271.59 -78.3287 296.56 -39.9231 337.048 -13.3697C357.764 0.58552 381.39 9.61124 406.127 13.0194C486.628 24.0966 525.811 -29.1812 606.086 -63.3767C626.479 -72.1118 647.717 -78.7078 669.46 -83.0593C780.768 -105.37 932.992 -79.8551 967.722 14.6435" stroke="url(#paint2_linear_607_5584)" stroke-miterlimit="10"/>
<path d="M-25.8732 293.059C84.534 12.949 170.149 -62.5688 233.49 -66.8265C279.658 -69.9358 305.255 -33.7909 345.6 -8.96501C366.598 4.29033 390.126 13.011 414.685 16.6409C494.195 28.2679 533.993 -19.9499 614.811 -53.171C635.263 -61.6625 656.44 -68.276 678.08 -72.9299C789.598 -96.8575 938.722 -80.1384 975.129 10.1622" stroke="url(#paint3_linear_607_5584)" stroke-miterlimit="10"/>
<path d="M-16.5273 303.78C92.5829 27.807 177.861 -49.724 241.669 -56.5519C287.694 -61.5008 314.01 -27.631 354.185 -4.58435C375.48 7.97739 398.951 16.3999 423.37 20.2421C501.889 32.4188 542.358 -10.7294 623.755 -43.0002C644.23 -51.1909 665.303 -57.7902 686.785 -62.7395C798.529 -88.2865 944.556 -80.3455 982.659 5.75423" stroke="url(#paint4_linear_607_5584)" stroke-miterlimit="10"/>
<path d="M-7.25982 314.477C100.613 42.6677 185.349 -38.6501 249.845 -46.2959C295.875 -51.8042 322.744 -21.5986 362.737 -0.18007C384.315 11.6619 407.728 19.7854 432 23.8516C509.529 36.5781 550.633 -1.4948 632.483 -32.7768C652.991 -40.7175 673.986 -47.3264 695.338 -52.5627C807.298 -79.8017 950.236 -80.5844 990.02 1.33563" stroke="url(#paint5_linear_607_5584)" stroke-miterlimit="10"/>
<path d="M2.17145 325.147C108.666 57.5434 193.305 -23.9083 257.989 -36.1282C303.71 -44.5294 331.533 -15.4635 371.31 4.2391C393.149 15.3592 416.508 23.19 440.634 27.479C517.172 40.7552 558.962 7.73075 641.284 -22.5654C661.83 -30.2342 682.753 -36.8416 703.971 -42.3616C816.158 -71.22 955.987 -80.8536 997.457 -3.07688" stroke="url(#paint6_linear_607_5584)" stroke-miterlimit="10"/>
<path d="M11.5114 335.832C116.66 72.4099 200.993 -11.0974 266.182 -25.7633C311.713 -36.0709 340.331 -9.4974 379.876 8.62215C401.959 19.0096 425.272 26.5405 449.255 31.0339C524.787 44.8809 567.27 16.9412 650.073 -12.4265C669.344 -19.2367 689.978 -26.1164 712.589 -32.2511C825.012 -62.7862 961.746 -81.0681 1004.89 -7.52557" stroke="url(#paint7_linear_607_5584)" stroke-miterlimit="10"/>
<path d="M20.8518 346.517C124.748 87.2793 208.713 1.91254 274.335 -15.5416C319.72 -27.5951 349.151 -3.51685 388.477 12.9804C410.802 22.6276 434.085 29.8797 457.937 34.6156C532.478 49.0124 575.609 26.1089 658.926 -2.24251C678.321 -8.84936 698.907 -15.6841 721.288 -22.0985C833.788 -54.2662 967.502 -81.3017 1012.32 -11.9752" stroke="url(#paint8_linear_607_5584)" stroke-miterlimit="10"/>
<path d="M30.2078 357.18C132.797 102.136 216.427 14.886 282.52 -5.23225C327.744 -19.0106 358.067 2.4853 396.996 17.4075C419.535 26.3111 442.786 33.2907 466.502 38.2719C540.07 53.2155 583.872 35.3816 667.664 7.92232C687.094 1.53339 707.698 -5.30426 729.851 -11.9803C842.685 -45.915 973.241 -81.6446 1019.74 -16.4978" stroke="url(#paint9_linear_607_5584)" stroke-miterlimit="10"/>
<path d="M39.548 367.865C140.828 116.996 224.147 27.8957 290.641 5.03122C335.707 -10.4538 366.845 8.43492 405.532 21.8315C428.278 29.9655 451.511 36.6634 475.096 41.8859C547.655 57.3822 592.126 44.5997 676.44 18.2112C696.001 12.062 716.548 5.21488 738.458 -1.70172C851.499 -37.3831 978.957 -81.7795 1027.17 -20.8362" stroke="url(#paint10_linear_607_5584)" stroke-miterlimit="10"/>
<path d="M48.8878 378.55C148.879 131.871 231.903 40.8993 298.853 15.2799C343.781 -1.89659 375.746 14.3457 414.119 26.2282C436.177 33.0506 458.738 39.8854 483.762 45.488C555.327 61.5159 600.472 53.8212 685.274 28.3974C704.926 22.4756 725.434 15.616 747.157 8.4501C860.405 -28.9781 984.782 -82.0441 1034.66 -25.2776" stroke="url(#paint11_linear_607_5584)" stroke-miterlimit="10"/>
<path d="M58.2288 389.235C156.94 146.8 239.538 53.9591 307.015 25.5548C351.803 6.66865 384.642 20.2195 422.69 30.6271C445.142 36.7718 467.711 43.3074 492.393 49.0951C562.976 65.7273 608.763 63.0325 694.073 38.5887C713.82 32.9124 734.306 26.0375 755.747 18.6187C869.178 -20.5898 990.499 -82.2923 1042.05 -29.7054" stroke="url(#paint12_linear_607_5584)" stroke-miterlimit="10"/>
<path d="M67.5324 399.926C164.962 161.605 247.375 67.005 315.175 35.8295C359.831 15.2882 393.535 26.0749 431.262 35.044C454.121 40.4717 476.684 46.729 500.953 52.7317C570.555 69.8564 616.986 72.2916 702.876 48.8161C722.73 43.3461 743.159 36.4617 764.379 28.8175C878.006 -12.2105 996.252 -82.5468 1049.49 -34.1395" stroke="url(#paint13_linear_607_5584)" stroke-miterlimit="10"/>
<path d="M76.9254 410.583C173.012 176.461 255.092 80.1067 323.352 46.0823C367.892 23.8646 402.438 31.8718 439.812 39.4264C463.075 44.119 485.673 50.1286 509.654 56.3078C578.229 73.9882 625.365 81.4692 711.672 58.9881C732.446 53.3465 752.92 46.6429 773.013 38.9035C886.813 -3.84756 1002.07 -82.775 1056.92 -38.5932" stroke="url(#paint14_linear_607_5584)" stroke-miterlimit="10"/>
<path d="M86.2654 421.268C181.064 191.335 262.944 93.1307 331.455 56.3465C375.882 32.4705 411.283 37.6591 448.399 43.8208C472.063 47.7601 494.66 53.5278 518.284 59.9134C585.886 78.1407 633.675 90.6946 720.434 69.1839C741.233 63.8201 761.668 57.12 781.611 49.1251C895.602 4.40606 1007.76 -83.0227 1064.36 -43.1049" stroke="url(#paint15_linear_607_5584)" stroke-miterlimit="10"/>
<path d="M95.6056 431.953C189.094 206.194 270.816 106.281 339.685 66.5897C383.968 41.0976 420.231 43.3918 456.947 48.2021C481.01 51.3699 503.614 56.9502 526.896 63.521C593.489 82.3011 641.965 99.904 729.268 79.3673C750.087 74.2578 770.483 67.542 790.274 59.2799C904.393 12.7888 1013.52 -83.2622 1071.8 -47.4697" stroke="url(#paint16_linear_607_5584)" stroke-miterlimit="10"/>
<path d="M104.965 442.635C197.157 221.131 278.534 119.387 347.846 76.8474C392.069 49.687 429.118 49.08 465.498 52.5846C490.026 54.933 512.584 60.3347 535.526 67.1091C601.123 86.4033 650.258 109.116 738.068 89.5584C758.904 84.692 779.264 77.9592 798.903 69.4412C913.173 21.0792 1019.27 -83.5443 1079.24 -51.9306" stroke="url(#paint17_linear_607_5584)" stroke-miterlimit="10"/>
<path d="M114.305 453.32C205.103 235.92 286.366 132.512 356.031 87.1563C400.165 58.3694 437.995 54.8247 474.083 57.0722C498.958 58.6758 521.608 63.8394 544.171 70.805C608.783 90.6861 658.584 118.434 746.876 99.8035C767.727 95.1807 788.054 88.4298 807.538 79.6566C921.956 29.4052 1025.13 -83.7155 1086.68 -56.3211" stroke="url(#paint18_linear_607_5584)" stroke-miterlimit="10"/>
<path d="M123.645 464.005C213.226 250.774 294.216 145.634 364.179 97.341C408.256 66.9035 446.843 60.3873 482.634 61.3412C507.884 62.0278 530.543 67.1342 552.788 74.3187C616.392 94.7533 666.862 127.555 755.667 109.94C776.535 105.57 796.833 98.7994 816.158 89.7631C930.696 37.5705 1030.78 -84.0949 1094.1 -60.8583" stroke="url(#paint19_linear_607_5584)" stroke-miterlimit="10"/>
<path d="M133.001 474.668C221.275 265.622 302.081 158.848 372.282 107.589C416.29 75.5399 455.61 66.0183 491.112 65.7331C516.74 65.5208 539.44 70.5277 561.319 77.8643C623.952 98.8648 675.094 136.739 764.386 120.088C785.271 115.951 805.547 109.16 824.723 99.8782C939.269 45.6135 1036.46 -84.3508 1101.49 -65.3366" stroke="url(#paint20_linear_607_5584)" stroke-miterlimit="10"/>
<path d="M142.323 485.356C283.458 152.852 407.906 74.0089 499.752 70.099C600.015 65.8281 652.062 151.398 773.258 130.267C915.428 105.46 1030.98 -87.1589 1108.96 -69.8087" stroke="url(#paint21_linear_607_5584)" stroke-miterlimit="10"/>
<defs>
<linearGradient id="paint0_linear_607_5584" x1="406.257" y1="-131.014" x2="455.965" y2="179.42" gradientUnits="userSpaceOnUse">
<stop stop-color="#515151"/>
<stop offset="1" stop-color="#515151" stop-opacity="0"/>
</linearGradient>
<linearGradient id="paint1_linear_607_5584" x1="415.873" y1="-120.4" x2="465.588" y2="190.078" gradientUnits="userSpaceOnUse">
<stop stop-color="#515151"/>
<stop offset="1" stop-color="#515151" stop-opacity="0"/>
</linearGradient>
<linearGradient id="paint2_linear_607_5584" x1="425.404" y1="-109.866" x2="475.135" y2="200.711" gradientUnits="userSpaceOnUse">
<stop stop-color="#515151"/>
<stop offset="1" stop-color="#515151" stop-opacity="0"/>
</linearGradient>
<linearGradient id="paint3_linear_607_5584" x1="434.933" y1="-99.4559" x2="484.694" y2="211.305" gradientUnits="userSpaceOnUse">
<stop stop-color="#515151"/>
<stop offset="1" stop-color="#515151" stop-opacity="0"/>
</linearGradient>
<linearGradient id="paint4_linear_607_5584" x1="444.501" y1="-89.1564" x2="494.322" y2="221.981" gradientUnits="userSpaceOnUse">
<stop stop-color="#515151"/>
<stop offset="1" stop-color="#515151" stop-opacity="0"/>
</linearGradient>
<linearGradient id="paint5_linear_607_5584" x1="453.917" y1="-79.0487" x2="503.826" y2="232.639" gradientUnits="userSpaceOnUse">
<stop stop-color="#515151"/>
<stop offset="1" stop-color="#515151" stop-opacity="0"/>
</linearGradient>
<linearGradient id="paint6_linear_607_5584" x1="463.437" y1="-69.0511" x2="513.449" y2="243.278" gradientUnits="userSpaceOnUse">
<stop stop-color="#515151"/>
<stop offset="1" stop-color="#515151" stop-opacity="0"/>
</linearGradient>
<linearGradient id="paint7_linear_607_5584" x1="472.907" y1="-59.0689" x2="523.026" y2="253.925" gradientUnits="userSpaceOnUse">
<stop stop-color="#515151"/>
<stop offset="1" stop-color="#515151" stop-opacity="0"/>
</linearGradient>
<linearGradient id="paint8_linear_607_5584" x1="482.333" y1="-49.3748" x2="532.604" y2="264.571" gradientUnits="userSpaceOnUse">
<stop stop-color="#515151"/>
<stop offset="1" stop-color="#515151" stop-opacity="0"/>
</linearGradient>
<linearGradient id="paint9_linear_607_5584" x1="491.757" y1="-39.7525" x2="542.189" y2="275.197" gradientUnits="userSpaceOnUse">
<stop stop-color="#515151"/>
<stop offset="1" stop-color="#515151" stop-opacity="0"/>
</linearGradient>
<linearGradient id="paint10_linear_607_5584" x1="501.126" y1="-30.3563" x2="551.759" y2="285.845" gradientUnits="userSpaceOnUse">
<stop stop-color="#515151"/>
<stop offset="1" stop-color="#515151" stop-opacity="0"/>
</linearGradient>
<linearGradient id="paint11_linear_607_5584" x1="510.5" y1="-21.1584" x2="561.365" y2="296.486" gradientUnits="userSpaceOnUse">
<stop stop-color="#515151"/>
<stop offset="1" stop-color="#515151" stop-opacity="0"/>
</linearGradient>
<linearGradient id="paint12_linear_607_5584" x1="519.796" y1="-12.168" x2="570.927" y2="307.135" gradientUnits="userSpaceOnUse">
<stop stop-color="#515151"/>
<stop offset="1" stop-color="#515151" stop-opacity="0"/>
</linearGradient>
<linearGradient id="paint13_linear_607_5584" x1="529.055" y1="-3.40772" x2="580.489" y2="317.783" gradientUnits="userSpaceOnUse">
<stop stop-color="#515151"/>
<stop offset="1" stop-color="#515151" stop-opacity="0"/>
</linearGradient>
<linearGradient id="paint14_linear_607_5584" x1="538.311" y1="5.02946" x2="590.096" y2="328.405" gradientUnits="userSpaceOnUse">
<stop stop-color="#515151"/>
<stop offset="1" stop-color="#515151" stop-opacity="0"/>
</linearGradient>
<linearGradient id="paint15_linear_607_5584" x1="547.497" y1="13.1514" x2="599.686" y2="339.049" gradientUnits="userSpaceOnUse">
<stop stop-color="#515151"/>
<stop offset="1" stop-color="#515151" stop-opacity="0"/>
</linearGradient>
<linearGradient id="paint16_linear_607_5584" x1="556.617" y1="20.9121" x2="609.269" y2="349.693" gradientUnits="userSpaceOnUse">
<stop stop-color="#515151"/>
<stop offset="1" stop-color="#515151" stop-opacity="0"/>
</linearGradient>
<linearGradient id="paint17_linear_607_5584" x1="564.331" y1="19.7086" x2="618.884" y2="360.327" gradientUnits="userSpaceOnUse">
<stop stop-color="#515151"/>
<stop offset="1" stop-color="#515151" stop-opacity="0"/>
</linearGradient>
<linearGradient id="paint18_linear_607_5584" x1="571.91" y1="17.7133" x2="628.49" y2="370.962" gradientUnits="userSpaceOnUse">
<stop stop-color="#515151"/>
<stop offset="1" stop-color="#515151" stop-opacity="0"/>
</linearGradient>
<linearGradient id="paint19_linear_607_5584" x1="579.4" y1="15.1509" x2="638.099" y2="381.597" gradientUnits="userSpaceOnUse">
<stop stop-color="#515151"/>
<stop offset="1" stop-color="#515151" stop-opacity="0"/>
</linearGradient>
<linearGradient id="paint20_linear_607_5584" x1="586.839" y1="12.3206" x2="647.697" y2="392.215" gradientUnits="userSpaceOnUse">
<stop stop-color="#515151"/>
<stop offset="1" stop-color="#515151" stop-opacity="0"/>
</linearGradient>
<linearGradient id="paint21_linear_607_5584" x1="594.251" y1="9.21304" x2="657.316" y2="402.849" gradientUnits="userSpaceOnUse">
<stop stop-color="#515151"/>
<stop offset="1" stop-color="#515151" stop-opacity="0"/>
</linearGradient>
</defs>
</svg>
