<svg width="1146" height="561" viewBox="0 0 1146 561" fill="none" xmlns="http://www.w3.org/2000/svg">
<path d="M853.921 -173.36C795.262 -263.324 631.067 -260.911 529.823 -211.938C413.155 -155.491 408.279 -50.8371 307.016 -34.4916C214.621 -19.5474 171.453 -99.1198 105.5 -83.9252C44.889 -69.9583 -19.0339 20.3605 -47.7855 332.552" stroke="url(#paint0_linear_2132_27368)" stroke-miterlimit="10"/>
<path d="M-35.8534 340.193C-7.18654 32.3598 55.8902 -59.8934 116.254 -76.4199C161.018 -88.6121 195.597 -56.3582 242.538 -40.4826C266.195 -32.073 291.569 -29.6706 316.381 -33.491C397.681 -45.9492 418.428 -112.476 485.4 -168.243C502.442 -182.517 521.104 -194.737 541 -204.652C641.936 -255.365 800.801 -265.212 859.909 -179.735" stroke="url(#paint1_linear_2132_27368)" stroke-miterlimit="10"/>
<path d="M-23.9193 347.794C4.67054 44.3344 66.859 -49.8132 126.866 -68.8281C170.978 -82.802 205.615 -52.8865 251.883 -38.6207C275.657 -30.9676 300.864 -28.8443 325.581 -32.4127C406.015 -44.0389 428.911 -105.938 496.585 -160.9C513.764 -174.908 532.347 -187.1 552.037 -197.279C652.828 -249.424 806.191 -267.03 865.748 -186.041" stroke="url(#paint2_linear_2132_27368)" stroke-miterlimit="10"/>
<path d="M-12.0179 355.369C16.4852 56.349 77.843 -39.6997 137.537 -61.2841C181.045 -77.022 215.658 -49.447 261.31 -36.7977C285.162 -29.8935 310.19 -28.0355 334.797 -31.3422C414.431 -42.1677 439.32 -99.386 507.786 -153.564C525.089 -167.355 543.609 -179.547 563.116 -189.988C663.66 -243.74 811.607 -268.92 871.614 -192.419" stroke="url(#paint3_linear_2132_27368)" stroke-miterlimit="10"/>
<path d="M-0.077737 363.028C28.325 68.3317 88.8014 -29.5538 148.232 -53.731C191.093 -71.193 225.767 -45.9974 270.762 -35.0067C294.708 -28.8495 319.598 -27.2615 344.13 -30.3259C422.964 -40.3506 449.902 -92.8949 519.187 -146.322C536.596 -159.831 555.019 -171.98 574.293 -182.661C674.607 -238.028 817.145 -270.767 877.617 -198.762" stroke="url(#paint4_linear_2132_27368)" stroke-miterlimit="10"/>
<path d="M11.7804 370.684C40.1482 80.3222 99.0537 -21.043 158.919 -46.1945C201.63 -64.1939 235.821 -42.664 280.189 -33.1834C304.208 -27.7945 328.959 -26.4772 353.412 -29.2863C431.446 -38.5102 460.401 -86.3647 530.396 -138.969C547.905 -152.248 566.252 -164.385 585.322 -175.304C685.374 -232.353 822.526 -272.601 883.456 -205.067" stroke="url(#paint5_linear_2132_27368)" stroke-miterlimit="10"/>
<path d="M23.7885 378.27C51.9963 92.3211 110.773 -9.1459 169.552 -38.7337C211.164 -59.421 245.955 -39.2469 289.641 -31.3518C313.71 -26.7269 338.329 -25.6752 362.703 -28.2304C439.937 -36.6536 470.951 -79.8584 541.672 -131.648C559.293 -144.676 577.57 -156.792 596.432 -167.946C696.254 -226.61 827.967 -274.483 889.369 -211.387" stroke="url(#paint6_linear_2132_27368)" stroke-miterlimit="10"/>
<path d="M35.7128 385.895C63.786 104.327 121.699 0.974744 180.285 -31.0973C221.187 -53.5596 256.052 -35.9945 299.077 -29.5528C323.176 -25.6974 347.667 -24.9204 371.962 -27.2405C448.387 -34.8385 481.475 -73.3603 552.916 -124.393C569.549 -136.246 587.474 -148.542 607.504 -160.671C707.088 -221.007 833.43 -276.315 895.266 -217.74" stroke="url(#paint7_linear_2132_27368)" stroke-miterlimit="10"/>
<path d="M47.6377 393.521C75.6672 116.311 132.711 11.2778 190.941 -23.5865C231.219 -47.6819 266.174 -32.7336 308.538 -27.7864C332.666 -24.7077 357.051 -24.1898 381.287 -26.2411C456.912 -33.0384 492.017 -66.9115 564.234 -117.111C581.043 -128.804 598.934 -141.044 618.665 -153.377C717.871 -215.299 838.886 -278.164 901.164 -224.093" stroke="url(#paint8_linear_2132_27368)" stroke-miterlimit="10"/>
<path d="M59.5717 401.121C87.5077 128.293 143.708 21.5474 201.652 -16.0006C241.297 -41.7048 276.395 -29.4785 317.94 -25.9314C342.068 -23.6248 366.347 -23.3592 390.519 -25.1375C465.361 -31.1418 502.516 -60.3408 575.437 -109.817C592.34 -121.31 610.247 -133.558 629.687 -146.079C728.724 -209.787 844.296 -280.113 907.03 -230.513" stroke="url(#paint9_linear_2132_27368)" stroke-miterlimit="10"/>
<path d="M71.4961 408.746C99.3307 140.283 154.72 31.8508 212.289 -8.44068C251.309 -35.737 286.467 -26.235 327.358 -24.0837C351.471 -22.5719 375.655 -22.5714 399.768 -24.0823C473.794 -29.278 512.991 -53.8194 586.71 -102.413C603.805 -113.713 621.655 -125.954 640.796 -138.638C739.548 -204.078 849.741 -281.855 912.957 -236.758" stroke="url(#paint10_linear_2132_27368)" stroke-miterlimit="10"/>
<path d="M83.4204 416.372C111.178 152.283 165.765 42.1386 223.01 -0.919649C261.429 -29.7993 296.648 -23.0625 336.818 -22.2759C359.907 -21.8313 383.482 -21.5138 409.083 -23.0581C482.301 -27.4697 523.556 -47.3204 598.011 -95.1237C615.257 -106.231 633.065 -118.473 651.957 -131.344C750.424 -198.515 855.255 -283.751 918.912 -243.118" stroke="url(#paint11_linear_2132_27368)" stroke-miterlimit="10"/>
<path d="M95.3457 423.996C123.05 164.332 176.71 52.5136 233.689 6.64082C271.5 -23.8387 306.814 -19.9238 346.263 -20.4609C369.542 -20.775 393.043 -20.7468 418.366 -22.0189C490.808 -25.5799 534.065 -40.8151 609.279 -87.8193C626.684 -98.7169 644.468 -110.968 663.019 -124.004C761.169 -192.932 860.67 -285.601 924.784 -249.439" stroke="url(#paint12_linear_2132_27368)" stroke-miterlimit="10"/>
<path d="M107.237 431.637C134.85 176.272 187.844 62.8201 244.367 14.2017C281.593 -17.8279 316.972 -16.8013 355.714 -18.6288C379.186 -19.7426 402.603 -19.9792 427.59 -20.9315C499.225 -23.7493 544.522 -34.245 620.562 -80.4811C638.128 -91.2106 655.854 -103.455 674.129 -116.646C771.963 -187.371 866.118 -287.467 930.689 -255.776" stroke="url(#paint13_linear_2132_27368)" stroke-miterlimit="10"/>
<path d="M119.205 439.222C146.69 188.254 198.88 73.2137 255.055 21.7377C291.705 -11.8665 327.124 -13.737 365.134 -16.8228C388.791 -18.7529 412.173 -19.2367 436.932 -19.9403C507.734 -21.9417 555.106 -27.7955 631.823 -73.1934C650.225 -84.3416 668.044 -96.4247 685.211 -109.395C782.734 -181.82 871.633 -289.323 936.587 -262.129" stroke="url(#paint14_linear_2132_27368)" stroke-miterlimit="10"/>
<path d="M131.129 446.847C158.538 200.254 210.023 83.4956 265.676 29.3053C301.758 -5.85676 337.217 -10.6655 374.594 -15.0152C398.428 -17.7782 421.742 -18.4937 446.215 -18.9007C516.233 -20.1092 565.638 -21.281 643.058 -65.873C661.561 -76.7616 679.343 -88.8305 696.295 -102.005C793.457 -176.368 877.031 -291.164 942.478 -268.54" stroke="url(#paint15_linear_2132_27368)" stroke-miterlimit="10"/>
<path d="M143.054 454.473C170.361 212.244 221.222 93.8938 276.413 36.8183C311.909 0.14723 347.395 -7.67392 384.013 -13.2086C408.016 -16.8212 431.286 -17.7185 455.481 -17.8533C524.682 -18.2533 576.146 -14.7754 654.359 -58.5838C672.952 -69.2343 690.693 -81.3074 707.423 -94.6954C804.218 -170.792 882.487 -293.013 948.414 -274.81" stroke="url(#paint16_linear_2132_27368)" stroke-miterlimit="10"/>
<path d="M154.996 462.09C182.241 224.309 232.264 104.304 287.093 44.3788C322.07 6.12643 357.508 -4.69261 393.441 -11.3859C417.664 -15.9124 440.839 -16.968 464.764 -16.8142C533.15 -16.4466 586.663 -8.25351 665.635 -51.2628C684.311 -61.6843 702.013 -73.7633 718.527 -87.3541C814.949 -165.283 887.935 -294.879 954.32 -281.147" stroke="url(#paint17_linear_2132_27368)" stroke-miterlimit="10"/>
<path d="M166.92 469.715C193.966 236.265 243.421 114.702 297.811 51.9819C332.252 12.1971 367.626 -1.65303 402.931 -9.47054C427.281 -14.8067 450.479 -16.1162 474.093 -15.6747C541.694 -14.4731 597.241 -1.63912 676.933 -43.8913C695.692 -54.0833 713.357 -66.17 729.652 -79.9623C825.694 -159.739 893.52 -296.667 960.255 -287.416" stroke="url(#paint18_linear_2132_27368)" stroke-miterlimit="10"/>
<path d="M178.844 477.34C205.88 248.233 254.595 125.091 308.458 59.4764C342.388 18.127 377.667 1.22031 412.328 -7.7547C436.784 -14.0734 459.976 -15.4405 483.344 -14.7014C550.129 -12.6913 607.718 4.80023 688.185 -36.6195C707.03 -46.5735 724.662 -58.6705 740.732 -72.6703C836.353 -154.338 898.839 -298.592 966.129 -293.819" stroke="url(#paint19_linear_2132_27368)" stroke-miterlimit="10"/>
<path d="M190.778 484.941C217.72 260.215 265.808 135.563 319.079 67.0436C352.498 24.1707 387.649 4.18193 421.689 -5.90073C446.26 -13.1853 469.462 -14.6589 492.52 -13.6731C558.53 -10.8534 618.169 11.3122 699.372 -29.3171C718.297 -39.0515 735.903 -51.1621 751.761 -65.3555C846.817 -149.008 904.229 -300.41 971.994 -300.157" stroke="url(#paint20_linear_2132_27368)" stroke-miterlimit="10"/>
<path d="M202.686 492.574C246.246 134.945 344.013 25.007 431.199 -4.11644C526.373 -35.9113 600.09 31.7085 710.713 -22.0268C840.476 -85.0806 898.183 -301.589 977.932 -306.509" stroke="url(#paint21_linear_2132_27368)" stroke-miterlimit="10"/>
<defs>
<linearGradient id="paint0_linear_2132_27368" x1="285.826" y1="-170.445" x2="419.041" y2="113.661" gradientUnits="userSpaceOnUse">
<stop stop-color="#515151"/>
<stop offset="1" stop-color="#515151" stop-opacity="0"/>
</linearGradient>
<linearGradient id="paint1_linear_2132_27368" x1="297.996" y1="-162.965" x2="431.23" y2="121.182" gradientUnits="userSpaceOnUse">
<stop stop-color="#515151"/>
<stop offset="1" stop-color="#515151" stop-opacity="0"/>
</linearGradient>
<linearGradient id="paint2_linear_2132_27368" x1="310.063" y1="-155.537" x2="443.339" y2="128.701" gradientUnits="userSpaceOnUse">
<stop stop-color="#515151"/>
<stop offset="1" stop-color="#515151" stop-opacity="0"/>
</linearGradient>
<linearGradient id="paint3_linear_2132_27368" x1="322.093" y1="-148.227" x2="455.448" y2="136.179" gradientUnits="userSpaceOnUse">
<stop stop-color="#515151"/>
<stop offset="1" stop-color="#515151" stop-opacity="0"/>
</linearGradient>
<linearGradient id="paint4_linear_2132_27368" x1="334.129" y1="-141.034" x2="467.646" y2="143.717" gradientUnits="userSpaceOnUse">
<stop stop-color="#515151"/>
<stop offset="1" stop-color="#515151" stop-opacity="0"/>
</linearGradient>
<linearGradient id="paint5_linear_2132_27368" x1="345.967" y1="-133.982" x2="479.72" y2="151.272" gradientUnits="userSpaceOnUse">
<stop stop-color="#515151"/>
<stop offset="1" stop-color="#515151" stop-opacity="0"/>
</linearGradient>
<linearGradient id="paint6_linear_2132_27368" x1="357.875" y1="-127.064" x2="491.902" y2="158.776" gradientUnits="userSpaceOnUse">
<stop stop-color="#515151"/>
<stop offset="1" stop-color="#515151" stop-opacity="0"/>
</linearGradient>
<linearGradient id="paint7_linear_2132_27368" x1="369.73" y1="-120.147" x2="504.043" y2="166.3" gradientUnits="userSpaceOnUse">
<stop stop-color="#515151"/>
<stop offset="1" stop-color="#515151" stop-opacity="0"/>
</linearGradient>
<linearGradient id="paint8_linear_2132_27368" x1="381.463" y1="-113.494" x2="516.184" y2="173.824" gradientUnits="userSpaceOnUse">
<stop stop-color="#515151"/>
<stop offset="1" stop-color="#515151" stop-opacity="0"/>
</linearGradient>
<linearGradient id="paint9_linear_2132_27368" x1="393.174" y1="-106.909" x2="528.325" y2="181.327" gradientUnits="userSpaceOnUse">
<stop stop-color="#515151"/>
<stop offset="1" stop-color="#515151" stop-opacity="0"/>
</linearGradient>
<linearGradient id="paint10_linear_2132_27368" x1="404.77" y1="-100.525" x2="540.457" y2="188.855" gradientUnits="userSpaceOnUse">
<stop stop-color="#515151"/>
<stop offset="1" stop-color="#515151" stop-opacity="0"/>
</linearGradient>
<linearGradient id="paint11_linear_2132_27368" x1="416.316" y1="-94.3316" x2="552.622" y2="196.368" gradientUnits="userSpaceOnUse">
<stop stop-color="#515151"/>
<stop offset="1" stop-color="#515151" stop-opacity="0"/>
</linearGradient>
<linearGradient id="paint12_linear_2132_27368" x1="427.731" y1="-88.3157" x2="564.747" y2="203.899" gradientUnits="userSpaceOnUse">
<stop stop-color="#515151"/>
<stop offset="1" stop-color="#515151" stop-opacity="0"/>
</linearGradient>
<linearGradient id="paint13_linear_2132_27368" x1="439.045" y1="-82.5096" x2="576.871" y2="211.431" gradientUnits="userSpaceOnUse">
<stop stop-color="#515151"/>
<stop offset="1" stop-color="#515151" stop-opacity="0"/>
</linearGradient>
<linearGradient id="paint14_linear_2132_27368" x1="450.268" y1="-77.0115" x2="589.03" y2="218.926" gradientUnits="userSpaceOnUse">
<stop stop-color="#515151"/>
<stop offset="1" stop-color="#515151" stop-opacity="0"/>
</linearGradient>
<linearGradient id="paint15_linear_2132_27368" x1="461.336" y1="-71.7959" x2="601.178" y2="226.446" gradientUnits="userSpaceOnUse">
<stop stop-color="#515151"/>
<stop offset="1" stop-color="#515151" stop-opacity="0"/>
</linearGradient>
<linearGradient id="paint16_linear_2132_27368" x1="472.241" y1="-66.9076" x2="613.319" y2="233.97" gradientUnits="userSpaceOnUse">
<stop stop-color="#515151"/>
<stop offset="1" stop-color="#515151" stop-opacity="0"/>
</linearGradient>
<linearGradient id="paint17_linear_2132_27368" x1="479.318" y1="-70.206" x2="625.469" y2="241.489" gradientUnits="userSpaceOnUse">
<stop stop-color="#515151"/>
<stop offset="1" stop-color="#515151" stop-opacity="0"/>
</linearGradient>
<linearGradient id="paint18_linear_2132_27368" x1="486.046" y1="-74.2239" x2="637.609" y2="249.014" gradientUnits="userSpaceOnUse">
<stop stop-color="#515151"/>
<stop offset="1" stop-color="#515151" stop-opacity="0"/>
</linearGradient>
<linearGradient id="paint19_linear_2132_27368" x1="492.532" y1="-78.7595" x2="649.749" y2="256.538" gradientUnits="userSpaceOnUse">
<stop stop-color="#515151"/>
<stop offset="1" stop-color="#515151" stop-opacity="0"/>
</linearGradient>
<linearGradient id="paint20_linear_2132_27368" x1="498.895" y1="-83.537" x2="661.874" y2="264.049" gradientUnits="userSpaceOnUse">
<stop stop-color="#515151"/>
<stop offset="1" stop-color="#515151" stop-opacity="0"/>
</linearGradient>
<linearGradient id="paint21_linear_2132_27368" x1="505.156" y1="-88.5722" x2="674.023" y2="271.569" gradientUnits="userSpaceOnUse">
<stop stop-color="#515151"/>
<stop offset="1" stop-color="#515151" stop-opacity="0"/>
</linearGradient>
</defs>
</svg>
