<svg width="1440" height="200" viewBox="0 0 1440 200" fill="none" xmlns="http://www.w3.org/2000/svg">
<path d="M1230.34 -103.009C1166.05 -285.558 877.551 -351.428 679.388 -308.91C451.031 -259.889 397.817 -78.7455 213.55 -93.3581C45.407 -106.638 3.80037 -264.38 -118.155 -265.933C-230.234 -267.355 -380.706 -136.516 -564.319 397.786" stroke="url(#paint0_linear_681_852)" stroke-miterlimit="10"/>
<path d="M-546.691 416.259C-365.086 -110.451 -215.269 -245.038 -102.531 -248.202C-18.9537 -250.438 27.816 -179.207 103.223 -131.373C141.051 -106.55 184.449 -91.5118 229.52 -87.6081C377.177 -74.7121 441.901 -182.328 582.96 -251.374C618.892 -269.089 656.781 -282.516 695.847 -291.382C894.212 -337.079 1176.55 -286.498 1243.55 -111.614" stroke="url(#paint1_linear_681_852)" stroke-miterlimit="10"/>
<path d="M-529.042 434.66C-349.439 -84.424 -200.369 -222.707 -87.1925 -230.38C-3.99741 -236.014 43.8734 -168.852 118.788 -124.124C157.144 -100.575 200.369 -86.0971 245.167 -81.7927C390.952 -67.81 457.463 -166.407 599.408 -233.743C635.464 -250.935 673.203 -264.346 712.022 -273.762C910.745 -322.028 1186.76 -287.38 1256.46 -120.161" stroke="url(#paint2_linear_681_852)" stroke-miterlimit="10"/>
<path d="M-511.439 453.004C-333.884 -58.345 -185.456 -200.311 -71.7307 -212.617C11.1596 -221.597 59.9887 -158.542 134.514 -116.907C173.326 -94.637 216.351 -80.6996 260.845 -75.9837C404.888 -60.9405 472.889 -150.492 615.887 -216.117C652.068 -232.876 689.696 -246.314 728.307 -256.266C927.284 -307.452 1197.05 -288.378 1269.45 -128.824" stroke="url(#paint3_linear_681_852)" stroke-miterlimit="10"/>
<path d="M-493.803 471.509C-318.27 -32.3118 -170.601 -177.869 -56.2299 -194.827C26.2649 -207.101 76.2144 -148.187 150.299 -109.736C189.594 -88.7341 232.493 -75.3281 276.751 -70.2205C419.051 -54.1169 488.646 -134.61 632.756 -198.57C669.002 -214.79 706.444 -228.195 744.748 -238.666C944.011 -292.778 1207.54 -289.247 1282.67 -137.365" stroke="url(#paint4_linear_681_852)" stroke-miterlimit="10"/>
<path d="M-476.311 489.976C-302.688 -6.27188 -156.285 -158.593 -40.7361 -177.07C41.7244 -190.35 92.3937 -138.059 166.026 -102.52C205.776 -82.8318 248.548 -69.9588 292.559 -64.4379C433.117 -47.2738 504.239 -118.695 649.242 -180.912C685.565 -196.685 722.867 -210.102 760.916 -221.079C960.439 -278.246 1217.74 -290.16 1295.59 -145.912" stroke="url(#paint5_linear_681_852)" stroke-miterlimit="10"/>
<path d="M-458.527 508.384C-287.069 19.7938 -140.847 -132.76 -25.3078 -159.469C56.3775 -177.923 108.677 -127.75 181.791 -95.278C221.956 -76.9057 264.608 -64.5546 308.373 -58.6228C447.188 -40.3982 519.93 -102.8 665.857 -163.281C702.268 -178.568 739.44 -191.977 777.226 -203.454C977.035 -263.546 1228.07 -291.133 1308.64 -154.452" stroke="url(#paint6_linear_681_852)" stroke-miterlimit="10"/>
<path d="M-440.905 526.825C-271.552 45.8468 -126.038 -110.377 -9.77482 -141.517C71.424 -163.382 124.966 -117.746 197.543 -88.1005C238.09 -71.0624 280.637 -59.2467 324.161 -52.9372C461.208 -33.6133 535.583 -86.931 682.446 -145.778C716.627 -159.43 753.258 -173.307 793.504 -185.99C993.612 -249.112 1238.42 -292.008 1321.67 -163.058" stroke="url(#paint7_linear_681_852)" stroke-miterlimit="10"/>
<path d="M-423.282 545.265C-255.867 71.8992 -111.157 -87.6375 5.67407 -123.819C86.4778 -148.809 141.295 -107.716 213.354 -80.9688C254.282 -65.2785 296.753 -53.9615 340.06 -47.2067C475.365 -26.8223 551.287 -71.1399 699.153 -128.199C733.574 -141.494 770.121 -155.286 809.932 -168.455C1010.05 -234.516 1248.76 -292.916 1334.71 -171.663" stroke="url(#paint8_linear_681_852)" stroke-miterlimit="10"/>
<path d="M-405.634 563.667C-240.253 97.9324 -96.2883 -64.9629 21.1882 -105.964C101.571 -134.042 157.799 -97.6534 229.022 -73.7071C270.28 -59.3684 312.674 -48.5387 355.752 -41.3332C489.347 -19.8948 566.863 -55.1539 715.652 -110.645C750.152 -123.551 786.732 -137.35 826.113 -150.972C1026.7 -220.231 1259.06 -294.018 1347.72 -180.398" stroke="url(#paint9_linear_681_852)" stroke-miterlimit="10"/>
<path d="M-388.012 582.108C-224.672 123.972 -81.4076 -42.2231 36.5845 -88.1876C116.553 -119.32 174.049 -87.6747 244.723 -66.4516C286.294 -53.5107 328.634 -43.1857 371.495 -35.5372C503.315 -13.0318 582.417 -39.2649 732.228 -92.8703C766.982 -105.355 803.458 -119.167 842.385 -133.203C1043.21 -205.615 1269.34 -294.744 1360.77 -188.802" stroke="url(#paint10_linear_681_852)" stroke-miterlimit="10"/>
<path d="M-370.391 600.549C-209.053 150.039 -66.4629 -19.4962 52.1421 -70.4433C131.735 -104.604 190.519 -77.7739 260.513 -59.2478C300.745 -48.6128 341.886 -37.9925 387.366 -29.767C517.438 -6.23359 598.14 -23.3759 748.901 -75.2836C783.837 -87.3669 820.242 -101.198 858.811 -115.668C1059.88 -191.233 1279.8 -295.709 1373.91 -197.394" stroke="url(#paint11_linear_681_852)" stroke-miterlimit="10"/>
<path d="M-352.766 618.989C-193.41 176.201 -51.7287 3.34042 67.6123 -52.6479C146.823 -89.869 206.979 -67.9391 276.274 -52.0387C317.165 -42.6502 358.298 -32.5682 403.176 -23.9849C531.525 0.706224 613.762 -7.50076 765.512 -57.685C800.637 -69.334 837.003 -83.1906 875.046 -98.0947C1076.31 -176.871 1290.08 -296.637 1386.89 -205.955" stroke="url(#paint12_linear_681_852)" stroke-miterlimit="10"/>
<path d="M-335.21 637.443C-177.85 202.144 -36.6348 26.1383 83.0791 -34.8517C161.927 -75.0364 223.429 -58.1357 292.038 -44.7962C333.608 -36.7257 374.707 -27.1431 418.86 -18.1433C545.479 7.50452 629.264 8.4663 782.133 -40.0206C817.466 -51.3067 853.728 -65.1761 891.355 -80.4686C1092.83 -162.527 1300.41 -297.577 1399.93 -214.527" stroke="url(#paint13_linear_681_852)" stroke-miterlimit="10"/>
<path d="M-317.495 655.831C-162.234 228.177 -21.7511 49.0461 98.5754 -17.0951C177.087 -60.2823 239.895 -48.4369 307.76 -37.6126C350.002 -30.8926 391.146 -21.7576 434.793 -12.4196C559.606 14.3017 645.042 24.2764 798.738 -22.4542C835.715 -34.1161 872.07 -47.6639 907.662 -63.0443C1109.32 -148.21 1310.86 -298.472 1412.97 -223.133" stroke="url(#paint14_linear_681_852)" stroke-miterlimit="10"/>
<path d="M-299.874 674.272C-146.615 254.243 -6.63109 71.805 113.939 0.688336C192.12 -45.469 256.255 -38.7502 323.55 -30.4092C366.457 -25.0719 407.581 -16.3715 450.6 -6.63669C573.703 21.1386 660.7 40.1783 815.281 -4.84154C852.324 -16.006 888.61 -29.5444 923.913 -45.3728C1125.77 -134.087 1321.09 -299.392 1426.02 -231.842" stroke="url(#paint15_linear_681_852)" stroke-miterlimit="10"/>
<path d="M-282.251 692.713C-131.033 280.283 8.53602 94.7906 129.53 18.4258C207.33 -30.6238 272.797 -29.1678 339.271 -23.2252C382.836 -19.3032 423.959 -10.94 466.376 -0.847383C587.704 27.9949 676.32 56.0541 831.955 12.7447C869.054 2.03562 905.269 -11.528 940.276 -27.8249C1142.23 -119.73 1331.43 -300.3 1439.09 -240.285" stroke="url(#paint16_linear_681_852)" stroke-miterlimit="10"/>
<path d="M-264.595 711.146C-115.386 306.477 23.4251 117.731 144.999 36.221C222.567 -15.8183 289.229 -19.6314 354.998 -16.0096C399.339 -13.5938 440.364 -5.54825 482.185 4.93465C601.757 34.7726 691.948 71.9615 848.572 30.3757C885.719 20.1028 921.867 6.51218 956.581 -10.2323C1158.66 -105.504 1341.77 -301.24 1452.13 -248.859" stroke="url(#paint17_linear_681_852)" stroke-miterlimit="10"/>
<path d="M-246.974 729.587C-99.9615 332.414 38.5193 140.697 160.518 54.1082C237.801 -0.842962 305.646 -9.98998 370.795 -8.60479C415.704 -7.55215 456.877 0.0585144 498.031 10.9124C615.874 41.8756 707.645 88.0581 865.206 48.1051C902.398 38.2693 938.486 24.6495 972.904 7.45885C1175.11 -91.2123 1352.31 -301.986 1465.2 -257.301" stroke="url(#paint18_linear_681_852)" stroke-miterlimit="10"/>
<path d="M-229.352 748.028C-84.2115 358.454 53.6472 163.657 175.96 71.7749C253.017 13.8664 321.999 -0.672798 386.515 -1.58908C432.03 -2.21101 473.216 5.29585 513.813 16.5658C629.881 48.5961 723.239 103.805 881.802 65.64C919.044 56.2577 955.078 42.6058 989.188 24.9554C1191.46 -77.2055 1362.45 -303.087 1478.22 -266.003" stroke="url(#paint19_linear_681_852)" stroke-miterlimit="10"/>
<path d="M-211.703 766.429C-68.597 384.487 68.8087 186.778 191.325 89.5573C268.136 28.7629 338.211 8.77322 402.112 5.65273C448.24 3.38863 489.491 10.7137 529.44 22.2833C643.805 55.3999 738.756 119.667 898.269 83.1999C935.559 74.2366 971.552 60.5495 1005.38 42.4704C1207.51 -63.4069 1372.66 -303.969 1491.19 -274.596" stroke="url(#paint20_linear_681_852)" stroke-miterlimit="10"/>
<path d="M-194.114 784.877C34.8221 177.345 252.924 26.6054 418 12.8367C598.202 -2.19864 698.396 147.658 915.013 100.806C1169.12 45.8089 1362.58 -308.614 1504.3 -283.182" stroke="url(#paint21_linear_681_852)" stroke-miterlimit="10"/>
<defs>
<linearGradient id="paint0_linear_681_852" x1="234.491" y1="-340.427" x2="346.434" y2="213.848" gradientUnits="userSpaceOnUse">
<stop stop-color="#515151"/>
<stop offset="1" stop-color="#515151" stop-opacity="0"/>
</linearGradient>
<linearGradient id="paint1_linear_681_852" x1="252.606" y1="-322.137" x2="364.565" y2="232.22" gradientUnits="userSpaceOnUse">
<stop stop-color="#515151"/>
<stop offset="1" stop-color="#515151" stop-opacity="0"/>
</linearGradient>
<linearGradient id="paint2_linear_681_852" x1="270.56" y1="-303.98" x2="382.554" y2="250.553" gradientUnits="userSpaceOnUse">
<stop stop-color="#515151"/>
<stop offset="1" stop-color="#515151" stop-opacity="0"/>
</linearGradient>
<linearGradient id="paint3_linear_681_852" x1="288.501" y1="-286.046" x2="400.562" y2="268.815" gradientUnits="userSpaceOnUse">
<stop stop-color="#515151"/>
<stop offset="1" stop-color="#515151" stop-opacity="0"/>
</linearGradient>
<linearGradient id="paint4_linear_681_852" x1="306.504" y1="-268.314" x2="418.7" y2="287.219" gradientUnits="userSpaceOnUse">
<stop stop-color="#515151"/>
<stop offset="1" stop-color="#515151" stop-opacity="0"/>
</linearGradient>
<linearGradient id="paint5_linear_681_852" x1="324.219" y1="-250.914" x2="436.614" y2="305.6" gradientUnits="userSpaceOnUse">
<stop stop-color="#515151"/>
<stop offset="1" stop-color="#515151" stop-opacity="0"/>
</linearGradient>
<linearGradient id="paint6_linear_681_852" x1="342.112" y1="-233.72" x2="454.738" y2="323.939" gradientUnits="userSpaceOnUse">
<stop stop-color="#515151"/>
<stop offset="1" stop-color="#515151" stop-opacity="0"/>
</linearGradient>
<linearGradient id="paint7_linear_681_852" x1="359.916" y1="-216.549" x2="472.781" y2="342.295" gradientUnits="userSpaceOnUse">
<stop stop-color="#515151"/>
<stop offset="1" stop-color="#515151" stop-opacity="0"/>
</linearGradient>
<linearGradient id="paint8_linear_681_852" x1="377.617" y1="-199.892" x2="490.826" y2="360.65" gradientUnits="userSpaceOnUse">
<stop stop-color="#515151"/>
<stop offset="1" stop-color="#515151" stop-opacity="0"/>
</linearGradient>
<linearGradient id="paint9_linear_681_852" x1="395.31" y1="-183.362" x2="508.879" y2="378.97" gradientUnits="userSpaceOnUse">
<stop stop-color="#515151"/>
<stop offset="1" stop-color="#515151" stop-opacity="0"/>
</linearGradient>
<linearGradient id="paint10_linear_681_852" x1="412.886" y1="-167.235" x2="526.906" y2="397.329" gradientUnits="userSpaceOnUse">
<stop stop-color="#515151"/>
<stop offset="1" stop-color="#515151" stop-opacity="0"/>
</linearGradient>
<linearGradient id="paint11_linear_681_852" x1="430.457" y1="-151.463" x2="544.997" y2="415.675" gradientUnits="userSpaceOnUse">
<stop stop-color="#515151"/>
<stop offset="1" stop-color="#515151" stop-opacity="0"/>
</linearGradient>
<linearGradient id="paint12_linear_681_852" x1="447.873" y1="-136.058" x2="563.011" y2="434.037" gradientUnits="userSpaceOnUse">
<stop stop-color="#515151"/>
<stop offset="1" stop-color="#515151" stop-opacity="0"/>
</linearGradient>
<linearGradient id="paint13_linear_681_852" x1="465.203" y1="-121.062" x2="581.021" y2="452.399" gradientUnits="userSpaceOnUse">
<stop stop-color="#515151"/>
<stop offset="1" stop-color="#515151" stop-opacity="0"/>
</linearGradient>
<linearGradient id="paint14_linear_681_852" x1="482.504" y1="-106.646" x2="599.109" y2="470.712" gradientUnits="userSpaceOnUse">
<stop stop-color="#515151"/>
<stop offset="1" stop-color="#515151" stop-opacity="0"/>
</linearGradient>
<linearGradient id="paint15_linear_681_852" x1="499.655" y1="-92.7891" x2="617.167" y2="489.065" gradientUnits="userSpaceOnUse">
<stop stop-color="#515151"/>
<stop offset="1" stop-color="#515151" stop-opacity="0"/>
</linearGradient>
<linearGradient id="paint16_linear_681_852" x1="516.661" y1="-79.5754" x2="635.211" y2="507.42" gradientUnits="userSpaceOnUse">
<stop stop-color="#515151"/>
<stop offset="1" stop-color="#515151" stop-opacity="0"/>
</linearGradient>
<linearGradient id="paint17_linear_681_852" x1="530.459" y1="-82.3293" x2="653.272" y2="525.772" gradientUnits="userSpaceOnUse">
<stop stop-color="#515151"/>
<stop offset="1" stop-color="#515151" stop-opacity="0"/>
</linearGradient>
<linearGradient id="paint18_linear_681_852" x1="543.954" y1="-86.4913" x2="671.314" y2="544.128" gradientUnits="userSpaceOnUse">
<stop stop-color="#515151"/>
<stop offset="1" stop-color="#515151" stop-opacity="0"/>
</linearGradient>
<linearGradient id="paint19_linear_681_852" x1="557.245" y1="-91.6632" x2="689.358" y2="562.484" gradientUnits="userSpaceOnUse">
<stop stop-color="#515151"/>
<stop offset="1" stop-color="#515151" stop-opacity="0"/>
</linearGradient>
<linearGradient id="paint20_linear_681_852" x1="570.426" y1="-97.3114" x2="707.38" y2="580.809" gradientUnits="userSpaceOnUse">
<stop stop-color="#515151"/>
<stop offset="1" stop-color="#515151" stop-opacity="0"/>
</linearGradient>
<linearGradient id="paint21_linear_681_852" x1="583.537" y1="-103.454" x2="725.439" y2="599.162" gradientUnits="userSpaceOnUse">
<stop stop-color="#515151"/>
<stop offset="1" stop-color="#515151" stop-opacity="0"/>
</linearGradient>
</defs>
</svg>
