<svg width="32" height="33" viewBox="0 0 32 33" fill="none" xmlns="http://www.w3.org/2000/svg">
<path opacity="0.2" d="M25 28.5C26.6569 28.5 28 27.1569 28 25.5C28 23.8431 26.6569 22.5 25 22.5C23.3431 22.5 22 23.8431 22 25.5C22 27.1569 23.3431 28.5 25 28.5Z" fill="#1C1C1C"/>
<path d="M25 28.5C26.6569 28.5 28 27.1569 28 25.5C28 23.8431 26.6569 22.5 25 22.5C23.3431 22.5 22 23.8431 22 25.5C22 27.1569 23.3431 28.5 25 28.5Z" stroke="#1C1C1C" stroke-width="1.5" stroke-linecap="round" stroke-linejoin="round"/>
<path d="M9 7.5H21C22.0609 7.5 23.0783 7.92143 23.8284 8.67157C24.5786 9.42172 25 10.4391 25 11.5C25 12.5609 24.5786 13.5783 23.8284 14.3284C23.0783 15.0786 22.0609 15.5 21 15.5H9C7.67392 15.5 6.40215 16.0268 5.46447 16.9645C4.52678 17.9021 4 19.1739 4 20.5C4 21.8261 4.52678 23.0979 5.46447 24.0355C6.40215 24.9732 7.67392 25.5 9 25.5H22" stroke="#1C1C1C" stroke-width="1.5" stroke-linecap="round" stroke-linejoin="round"/>
</svg>
