<svg width="21" height="20" viewBox="0 0 21 20" fill="none" xmlns="http://www.w3.org/2000/svg">
<path opacity="0.2" d="M13.6972 14.9607L3.9121 16.588L5.5407 6.80232L9.68623 5.24689L15.2531 10.8138L13.6972 14.9607ZM9.5625 13.25L9.56622 13.25C10.1776 13.247 10.7631 13.0027 11.1954 12.5704C11.6277 12.1381 11.872 11.5526 11.875 10.9412H11.875V10.9375C11.875 10.4801 11.7394 10.033 11.4853 9.65274C11.2312 9.27246 10.87 8.97606 10.4475 8.80103C10.0249 8.626 9.55993 8.58021 9.11135 8.66943L9.25767 9.40502L9.11135 8.66943C8.66277 8.75866 8.25072 8.97891 7.92732 9.30231L8.45765 9.83265L7.92731 9.30232C7.60391 9.62572 7.38366 10.0378 7.29443 10.4864L8.03002 10.6327L7.29443 10.4864C7.20521 10.9349 7.251 11.3999 7.42603 11.8225C7.60106 12.245 7.89746 12.6062 8.27774 12.8603C8.65803 13.1144 9.10513 13.25 9.5625 13.25Z" fill="#32BCA3" stroke="#32BCA3" stroke-width="1.5"/>
<path d="M9.5625 12.5C10.4254 12.5 11.125 11.8004 11.125 10.9375C11.125 10.0746 10.4254 9.375 9.5625 9.375C8.69956 9.375 8 10.0746 8 10.9375C8 11.8004 8.69956 12.5 9.5625 12.5Z" stroke="#32BCA3" stroke-width="1.5" stroke-linecap="round" stroke-linejoin="round"/>
<path d="M3 17.5L8.46094 12.0391" stroke="#32BCA3" stroke-width="1.5" stroke-linecap="round" stroke-linejoin="round"/>
<path d="M3 17.5L13.8984 15.6875C14.006 15.6691 14.1068 15.6226 14.1905 15.5526C14.2742 15.4826 14.3379 15.3917 14.375 15.2891L16.125 10.625L9.875 4.375L5.21094 6.125C5.10816 6.16415 5.01736 6.22941 4.94749 6.31435C4.87762 6.39929 4.83109 6.50097 4.8125 6.60937L3 17.5Z" stroke="#32BCA3" stroke-width="1.5" stroke-linecap="round" stroke-linejoin="round"/>
<path d="M16.125 10.6251L18.1797 8.57037C18.2387 8.51221 18.2856 8.44289 18.3176 8.36644C18.3497 8.28999 18.3661 8.20794 18.3661 8.12505C18.3661 8.04217 18.3497 7.96012 18.3176 7.88367C18.2856 7.80722 18.2387 7.7379 18.1797 7.67974L12.8203 2.32037C12.7622 2.26131 12.6928 2.21442 12.6164 2.18241C12.5399 2.1504 12.4579 2.13391 12.375 2.13391C12.2921 2.13391 12.2101 2.1504 12.1336 2.18241C12.0572 2.21442 11.9878 2.26131 11.9297 2.32037L9.875 4.37505" stroke="#32BCA3" stroke-width="1.5" stroke-linecap="round" stroke-linejoin="round"/>
</svg>
