<svg width="32" height="32" viewBox="0 0 32 32" fill="none" xmlns="http://www.w3.org/2000/svg">
<path opacity="0.2" d="M15 7L7.5375 9.8C7.37305 9.86264 7.22777 9.96706 7.11598 10.103C7.00419 10.2389 6.92975 10.4016 6.9 10.575L4 28L21.4375 25.1C21.6096 25.0706 21.7709 24.9962 21.9048 24.8842C22.0387 24.7722 22.1406 24.6267 22.2 24.4625L25 17L15 7ZM14.5 20C14.0055 20 13.5222 19.8534 13.1111 19.5787C12.7 19.304 12.3795 18.9135 12.1903 18.4567C12.0011 17.9999 11.9516 17.4972 12.048 17.0123C12.1445 16.5273 12.3826 16.0819 12.7322 15.7322C13.0819 15.3826 13.5273 15.1445 14.0123 15.048C14.4972 14.9516 14.9999 15.0011 15.4567 15.1903C15.9135 15.3795 16.304 15.7 16.5787 16.1111C16.8534 16.5222 17 17.0055 17 17.5C16.9967 18.162 16.7323 18.796 16.2641 19.2641C15.796 19.7323 15.162 19.9967 14.5 20Z" fill="white"/>
<path d="M14.5 20C15.8807 20 17 18.8807 17 17.5C17 16.1193 15.8807 15 14.5 15C13.1193 15 12 16.1193 12 17.5C12 18.8807 13.1193 20 14.5 20Z" stroke="white" stroke-width="1.5" stroke-linecap="round" stroke-linejoin="round"/>
<path d="M4 28L12.7375 19.2625" stroke="white" stroke-width="1.5" stroke-linecap="round" stroke-linejoin="round"/>
<path d="M4 28L21.4375 25.1C21.6096 25.0706 21.7709 24.9962 21.9048 24.8842C22.0387 24.7722 22.1406 24.6267 22.2 24.4625L25 17L15 7L7.5375 9.8C7.37305 9.86264 7.22777 9.96706 7.11598 10.103C7.00419 10.2389 6.92975 10.4016 6.9 10.575L4 28Z" stroke="white" stroke-width="1.5" stroke-linecap="round" stroke-linejoin="round"/>
<path d="M25 17L28.2875 13.7125C28.382 13.6195 28.457 13.5085 28.5082 13.3862C28.5595 13.2639 28.5858 13.1326 28.5858 13C28.5858 12.8674 28.5595 12.7361 28.5082 12.6138C28.457 12.4915 28.382 12.3806 28.2875 12.2875L19.7125 3.7125C19.6195 3.61802 19.5085 3.54298 19.3862 3.49177C19.2639 3.44055 19.1326 3.41417 19 3.41417C18.8674 3.41417 18.7361 3.44055 18.6138 3.49177C18.4915 3.54298 18.3805 3.61802 18.2875 3.7125L15 7" stroke="white" stroke-width="1.5" stroke-linecap="round" stroke-linejoin="round"/>
</svg>
