<svg width="33" height="32" viewBox="0 0 33 32" fill="none" xmlns="http://www.w3.org/2000/svg">
<path opacity="0.2" d="M14.3334 18H5.83337C5.56816 18 5.3138 17.8946 5.12627 17.7071C4.93873 17.5196 4.83337 17.2652 4.83337 17V9C4.83337 8.73478 4.93873 8.48043 5.12627 8.29289C5.3138 8.10536 5.56816 8 5.83337 8H13.3334C13.5986 8 13.8529 8.10536 14.0405 8.29289C14.228 8.48043 14.3334 8.73478 14.3334 9V18Z" fill="#1C1C1C"/>
<path opacity="0.2" d="M28.8334 18H20.3334C20.0682 18 19.8138 17.8946 19.6263 17.7071C19.4387 17.5196 19.3334 17.2652 19.3334 17V9C19.3334 8.73478 19.4387 8.48043 19.6263 8.29289C19.8138 8.10536 20.0682 8 20.3334 8H27.8334C28.0986 8 28.3529 8.10536 28.5405 8.29289C28.728 8.48043 28.8334 8.73478 28.8334 9V18Z" fill="#1C1C1C"/>
<path d="M14.3334 18H5.83337C5.56816 18 5.3138 17.8946 5.12627 17.7071C4.93873 17.5196 4.83337 17.2652 4.83337 17V9C4.83337 8.73478 4.93873 8.48043 5.12627 8.29289C5.3138 8.10536 5.56816 8 5.83337 8H13.3334C13.5986 8 13.8529 8.10536 14.0405 8.29289C14.228 8.48043 14.3334 8.73478 14.3334 9V20C14.3334 21.3261 13.8066 22.5979 12.8689 23.5355C11.9312 24.4732 10.6595 25 9.33337 25" stroke="#1C1C1C" stroke-width="1.5" stroke-linecap="round" stroke-linejoin="round"/>
<path d="M28.8334 18H20.3334C20.0682 18 19.8138 17.8946 19.6263 17.7071C19.4387 17.5196 19.3334 17.2652 19.3334 17V9C19.3334 8.73478 19.4387 8.48043 19.6263 8.29289C19.8138 8.10536 20.0682 8 20.3334 8H27.8334C28.0986 8 28.3529 8.10536 28.5405 8.29289C28.728 8.48043 28.8334 8.73478 28.8334 9V20C28.8334 21.3261 28.3066 22.5979 27.3689 23.5355C26.4312 24.4732 25.1595 25 23.8334 25" stroke="#1C1C1C" stroke-width="1.5" stroke-linecap="round" stroke-linejoin="round"/>
</svg>
