<svg width="16" height="16" viewBox="0 0 16 16" fill="none" xmlns="http://www.w3.org/2000/svg">
<path d="M13.7189 7.56249L3.16268 1.64999C3.07376 1.60087 2.97199 1.58 2.87091 1.59015C2.76983 1.60031 2.67425 1.64101 2.59688 1.70684C2.51951 1.77267 2.46403 1.86051 2.43782 1.95866C2.41162 2.0568 2.41593 2.16061 2.45018 2.25624L4.43768 7.83124C4.48147 7.93948 4.48147 8.0605 4.43768 8.16874L2.45018 13.7437C2.41593 13.8394 2.41162 13.9432 2.43782 14.0413C2.46403 14.1395 2.51951 14.2273 2.59688 14.2931C2.67425 14.359 2.76983 14.3997 2.87091 14.4098C2.97199 14.42 3.07376 14.3991 3.16268 14.35L13.7189 8.43749C13.7971 8.39425 13.8622 8.33087 13.9076 8.25393C13.9529 8.17699 13.9769 8.08931 13.9769 7.99999C13.9769 7.91068 13.9529 7.82299 13.9076 7.74605C13.8622 7.66912 13.7971 7.60573 13.7189 7.56249V7.56249Z" stroke="white" stroke-width="1.5" stroke-linecap="round" stroke-linejoin="round"/>
<path d="M4.5 8H8.5" stroke="white" stroke-width="1.5" stroke-linecap="round" stroke-linejoin="round"/>
</svg>
