<svg width="20" height="20" viewBox="0 0 20 20" fill="none" xmlns="http://www.w3.org/2000/svg">
<path d="M10 17.5C14.1421 17.5 17.5 14.1421 17.5 10C17.5 5.85786 14.1421 2.5 10 2.5C5.85786 2.5 2.5 5.85786 2.5 10C2.5 14.1421 5.85786 17.5 10 17.5Z" stroke="#7C7C7C" stroke-width="1.5" stroke-linecap="round" stroke-linejoin="round"/>
<path d="M7.90625 8.4375C7.90625 8.83445 7.58445 9.15625 7.1875 9.15625C6.79055 9.15625 6.46875 8.83445 6.46875 8.4375C6.46875 8.04055 6.79055 7.71875 7.1875 7.71875C7.58445 7.71875 7.90625 8.04055 7.90625 8.4375Z" fill="#7C7C7C" stroke="#7C7C7C" stroke-width="0.125"/>
<path d="M13.5312 8.4375C13.5312 8.83445 13.2095 9.15625 12.8125 9.15625C12.4155 9.15625 12.0938 8.83445 12.0938 8.4375C12.0938 8.04055 12.4155 7.71875 12.8125 7.71875C13.2095 7.71875 13.5312 8.04055 13.5312 8.4375Z" fill="#7C7C7C" stroke="#7C7C7C" stroke-width="0.125"/>
<path d="M13.25 11.875C12.9196 12.4442 12.4455 12.9167 11.8751 13.2451C11.3048 13.5735 10.6582 13.7464 10 13.7464C9.34184 13.7464 8.69523 13.5735 8.12486 13.2451C7.5545 12.9167 7.0804 12.4442 6.75 11.875" stroke="#7C7C7C" stroke-width="1.5" stroke-linecap="round" stroke-linejoin="round"/>
</svg>
