<svg width="40" height="40" viewBox="0 0 40 40" fill="none" xmlns="http://www.w3.org/2000/svg">
<path opacity="0.2" d="M35 10L20 15L5 10L20 5L35 10Z" fill="#1C1C1C"/>
<path d="M5 10V22.5" stroke="#1C1C1C" stroke-width="1.5" stroke-linecap="round" stroke-linejoin="round"/>
<path d="M8.46875 33.75C9.71947 31.8317 11.429 30.2557 13.4426 29.1648C15.4561 28.0739 17.7099 27.5026 20 27.5026C22.2901 27.5026 24.5439 28.0739 26.5575 29.1648C28.571 30.2557 30.2805 31.8317 31.5313 33.75" stroke="#1C1C1C" stroke-width="1.5" stroke-linecap="round" stroke-linejoin="round"/>
<path d="M35 10L20 15L5 10L20 5L35 10Z" stroke="#1C1C1C" stroke-width="1.5" stroke-linecap="round" stroke-linejoin="round"/>
<path d="M26.4531 12.8438C27.5998 14.0959 28.3573 15.6546 28.6335 17.3298C28.9096 19.0051 28.6925 20.7245 28.0084 22.2784C27.3243 23.8323 26.203 25.1537 24.781 26.0814C23.359 27.0091 21.6978 27.503 20 27.503C18.3022 27.503 16.641 27.0091 15.219 26.0814C13.797 25.1537 12.6757 23.8323 11.9916 22.2784C11.3076 20.7245 11.0904 19.0051 11.3665 17.3298C11.6427 15.6546 12.4002 14.0959 13.5469 12.8438" stroke="#1C1C1C" stroke-width="1.5" stroke-linecap="round" stroke-linejoin="round"/>
</svg>
